<?xml version="1.0" encoding="UTF-8" standalone="no"?>
<svg width="302px" height="34px" viewBox="0 0 302 34" version="1.1" xmlns="http://www.w3.org/2000/svg" xmlns:xlink="http://www.w3.org/1999/xlink">
    <!-- Generator: Sketch 39.1 (31720) - http://www.bohemiancoding.com/sketch -->
    <title>Logo</title>
    <desc>Created with Sketch.</desc>
    <defs></defs>
    <g id="Desktop" stroke="none" stroke-width="1" fill="none" fill-rule="evenodd">
        <g id="Homepage" transform="translate(-570.000000, -434.000000)" fill="#000000">
            <g id="Logo" transform="translate(570.000000, 434.000000)">
                <polygon id="Fill-1" points="298.143655 1.7 298.143655 15.0875 278.861931 15.0875 278.861931 1.7 275.005587 1.7 275.005587 32.3 278.861931 32.3 278.861931 18.9125 298.143655 18.9125 298.143655 32.3 302 32.3 302 1.7"></polygon>
                <path d="M248.424963,15.1572 C242.792003,14.0624 240.137803,13.22685 240.137803,10.30625 C240.137803,8.126 241.50427,5.525 248.011173,5.525 C251.887496,5.525 255.178565,7.84125 256.182857,9.4061 L259.523791,7.38225 C257.755782,4.6274 253.120116,1.7 248.011173,1.7 C240.616329,1.7 236.201117,4.9181 236.201117,10.30625 C236.201117,16.6821 242.550553,17.9163 247.652497,18.90825 C253.248714,19.9954 255.884544,20.82245 255.884544,23.69375 C255.884544,25.8757 254.518951,28.475 248.011173,28.475 C244.135725,28.475 240.843782,26.1596 239.840364,24.59475 L236.499431,26.6186 C238.266565,29.3726 242.90223,32.3 248.011173,32.3 C255.406018,32.3 259.821229,29.08275 259.821229,23.69375 C259.821229,17.37145 253.502412,16.14405 248.424963,15.1572" id="Fill-6"></path>
                <polygon id="Fill-4" points="215.955307 32.3 219.329609 32.3 219.329609 1.7 215.955307 1.7"></polygon>
                <polygon id="Fill-5" points="177.150838 32.3 181.087523 32.3 181.087523 19.2483871 200.77095 19.2483871 200.77095 15.5193548 181.087523 15.5193548 181.087523 7.12903226 200.77095 7.12903226 200.77095 3.4 177.150838 3.4"></polygon>
                <polygon id="Fill-2" points="104.603352 0 104.603352 32.0155545 108.459697 32.0155545 108.459697 9.60107949 131.597765 34 131.597765 1.98527969 127.741421 1.98527969 127.741421 24.3989205"></polygon>
                <path d="M71.2173407,21.8157377 L76.7653631,9.31934426 L82.3133856,21.8157377 L71.2173407,21.8157377 Z M62.424581,32.3 L66.5629426,32.3 L69.5249086,25.6281967 L84.0058177,25.6281967 L86.9677837,32.3 L91.1061453,32.3 L76.7653631,0 L62.424581,32.3 Z" id="Fill-8"></path>
                <polygon id="Fill-3" points="45.5530726 32.3 48.9273743 32.3 48.9273743 1.7 45.5530726 1.7"></polygon>
                <polygon id="Fill-10" points="23.1380686 24.3989205 0 0 0 32.0147203 3.85634477 32.0147203 3.85634477 9.60107949 26.9944134 34 26.9944134 1.98527969 23.1380686 1.98527969"></polygon>
            </g>
        </g>
    </g>
</svg>