<?xml version="1.0" encoding="UTF-8" standalone="no"?>
<!-- Generator: Adobe Illustrator 19.1.0, SVG Export Plug-In . SVG Version: 6.00 Build 0)  -->

<svg
   xmlns:dc="http://purl.org/dc/elements/1.1/"
   xmlns:cc="http://creativecommons.org/ns#"
   xmlns:rdf="http://www.w3.org/1999/02/22-rdf-syntax-ns#"
   xmlns:svg="http://www.w3.org/2000/svg"
   xmlns="http://www.w3.org/2000/svg"
   xmlns:sodipodi="http://sodipodi.sourceforge.net/DTD/sodipodi-0.dtd"
   xmlns:inkscape="http://www.inkscape.org/namespaces/inkscape"
   version="1.1"
   id="Layer_1"
   x="0px"
   y="0px"
   width="379.20001"
   height="60.299999"
   viewBox="0 0 379.2 60.299999"
   xml:space="preserve"
   inkscape:version="0.91 r13725"
   sodipodi:docname="press-chinadaily.svg"><metadata
     id="metadata3375"><rdf:RDF><cc:Work
         rdf:about=""><dc:format>image/svg+xml</dc:format><dc:type
           rdf:resource="http://purl.org/dc/dcmitype/StillImage" /><dc:title></dc:title></cc:Work></rdf:RDF></metadata><defs
     id="defs3373" /><sodipodi:namedview
     pagecolor="#ffffff"
     bordercolor="#666666"
     borderopacity="1"
     objecttolerance="10"
     gridtolerance="10"
     guidetolerance="10"
     inkscape:pageopacity="0"
     inkscape:pageshadow="2"
     inkscape:window-width="2560"
     inkscape:window-height="1377"
     id="namedview3371"
     showgrid="false"
     inkscape:zoom="1.5855748"
     inkscape:cx="248.06649"
     inkscape:cy="-144.97809"
     inkscape:window-x="-8"
     inkscape:window-y="-8"
     inkscape:window-maximized="1"
     inkscape:current-layer="Layer_1"
     fit-margin-top="0"
     fit-margin-left="0"
     fit-margin-right="0"
     fit-margin-bottom="0" /><style
     type="text/css"
     id="style3337">
	.st0{fill:#01467F;}
	.st1{fill:#D2D3D3;}
</style><path
     style="fill:#010000;fill-opacity:1"
     inkscape:connector-curvature="0"
     id="path3341"
     d="m 379.2,60.3 c -1.6,0 -3.2,0 -4.9,0 -123.1,0 -246.1,0 -369.2,0 -1.7,0 -3.4,0 -5.1,0 C 0,40.2 0,20.1 0,0 c 126.4,0 252.8,0 379.2,0 0,20.1 0,40.2 0,60.3 z M 128.6,30.4 c 0.1,0.4 0.2,0.6 0.3,0.8 2.7,7.3 5.5,14.7 8.2,22 0.3,0.8 0.1,0.7 1,0.7 4.7,0 9.5,0 14.2,0 1,0 0.9,0.1 0.9,-0.9 0,-15.3 0,-30.6 0,-45.9 0,-0.1 0,-0.2 0,-0.4 0,-0.5 0,-0.5 -0.5,-0.5 -1.3,0 -2.6,0 -3.9,0 -3.2,0 -6.3,0 -9.5,0 -0.7,0 -0.7,0 -0.7,0.7 0,0.9 0,1.8 0,2.7 0,6.8 0,13.6 0,20.4 0,0.3 0.1,0.5 -0.1,0.9 -0.2,-0.4 -0.3,-0.7 -0.4,-1 -2.7,-7.7 -5.4,-15.3 -8.1,-23 -0.3,-0.8 -0.2,-0.7 -0.9,-0.7 -4.8,0 -9.7,0 -14.5,0 -0.9,0 -0.8,0 -0.8,0.8 0,15.4 0,30.8 0,46.1 0,0.8 -0.1,0.8 0.8,0.8 4.4,0 8.7,0 13.1,0 0.9,0 0.8,0.1 0.8,-0.8 0,-7.3 0,-14.6 0,-21.9 0,-0.2 0,-0.5 0.1,-0.8 z M 89.8,30.1 c 0,-7.7 0,-15.5 0,-23.2 0,-0.7 0,-0.7 -0.7,-0.7 -4.9,0 -9.8,0 -14.7,0 -0.7,0 -0.7,0 -0.7,0.6 0,1.9 0,3.7 0,5.6 0,3.4 0,6.8 0,10.2 0,0.7 0.1,0.7 -0.7,0.7 -1.8,0 -3.5,0 -5.3,0 -1,0 -0.9,0.1 -0.9,-0.9 0,-5.2 0,-10.4 0,-15.6 0,-0.6 0,-0.6 -0.6,-0.6 0,0 -0.1,0 -0.1,0 -4.8,0 -9.6,0 -14.5,0 -1,0 -0.8,0 -0.8,0.8 0,15.4 0,30.7 0,46.1 0,0.9 -0.1,0.8 0.8,0.8 4.8,0 9.6,0 14.5,0 0.2,0 0.3,0 0.5,0 0.2,0 0.3,-0.1 0.3,-0.3 0,-0.2 0,-0.3 0,-0.5 0,-3.4 0,-6.8 0,-10.2 0,-2.4 0,-4.7 0,-7.1 0,-0.6 0,-0.6 0.5,-0.6 1.9,0 3.9,0 5.8,0 0.5,0 0.5,0 0.5,0.5 0,1.6 0,3.2 0,4.7 0,4.3 0,8.5 0,12.8 0,0.6 0,0.6 0.5,0.6 0.1,0 0.2,0 0.3,0 4.8,0 9.6,0 14.4,0 0.9,0 0.8,0.1 0.8,-0.8 0.1,-7.6 0.1,-15.2 0.1,-22.9 z m 112.5,0 c 0,7.7 0,15.3 0,23 0,0.9 -0.1,0.8 0.8,0.8 4.6,0 9.3,0 13.9,0 1.5,0 3,0 4.5,-0.1 2.3,-0.2 4.5,-0.6 6.7,-1.3 5.2,-1.7 9,-4.9 11.4,-9.8 1.2,-2.5 1.8,-5.2 2.1,-7.9 0.3,-2.5 0.3,-4.9 0.2,-7.4 -0.2,-2.5 -0.6,-4.9 -1.3,-7.2 -1,-3.1 -2.5,-5.8 -5,-8 -2.5,-2.2 -5.3,-3.7 -8.5,-4.6 -2.9,-0.8 -5.9,-1 -8.9,-1.1 -5,-0.2 -10,-0.1 -15,-0.1 -1,0 -0.9,0 -0.9,0.9 0,7.5 0,15.1 0,22.8 z M 198,53.8 c 0,-0.2 0,-0.4 -0.1,-0.6 -0.6,-2.4 -1.3,-4.8 -1.9,-7.2 -3.4,-13 -6.9,-26.1 -10.3,-39.1 -0.2,-0.7 -0.2,-0.7 -0.8,-0.7 -5.6,0 -11.2,0 -16.8,0 -0.6,0 -0.6,0 -0.8,0.6 -0.9,3.3 -1.7,6.6 -2.6,9.9 -3.2,12.1 -6.4,24.3 -9.6,36.4 -0.1,0.2 -0.2,0.4 -0.1,0.7 0.1,0 0.1,0 0.2,0 5,0 9.9,0 14.9,0 0.4,0 0.5,-0.2 0.5,-0.5 0.3,-2 0.7,-3.9 1,-5.9 0.1,-0.6 0.1,-0.6 0.7,-0.6 2.3,0 4.5,0 6.8,0 0.5,0 1.1,0 1.6,0 0.4,0 0.6,0.2 0.6,0.5 0,0.1 0,0.2 0,0.3 0.3,1.9 0.7,3.9 1,5.8 0.1,0.3 0.1,0.5 0.5,0.5 0.1,0 0.2,0 0.4,0 4.7,0 9.4,0 14,0 0.3,0 0.6,0.1 0.8,-0.1 z m 84.9,0 c 0,-0.3 -0.1,-0.5 -0.1,-0.8 -2.3,-8.7 -4.6,-17.4 -6.9,-26.1 -1.7,-6.6 -3.5,-13.3 -5.2,-19.9 -0.2,-0.8 -0.2,-0.8 -1,-0.8 -5.5,0 -11,0 -16.5,0 -0.7,0 -0.7,0 -0.9,0.7 -1.3,5 -2.6,10 -3.9,14.9 -2.8,10.4 -5.5,20.9 -8.3,31.3 -0.1,0.2 -0.2,0.4 -0.1,0.7 0.3,0.1 0.6,0.1 0.8,0.1 4.5,0 9.1,0 13.6,0 1.4,0 1,0.2 1.3,-1.1 0.3,-1.8 0.6,-3.6 0.9,-5.4 0.1,-0.5 0.1,-0.6 0.6,-0.6 2.8,0 5.6,0 8.5,0 0.4,0 0.5,0.1 0.6,0.5 0.3,2 0.7,3.9 1,5.9 0.1,0.7 0.1,0.7 0.8,0.7 4.7,0 9.5,0 14.2,0 0.2,0 0.4,0.1 0.6,-0.1 z M 324.1,6.3 c 0.2,0.4 0.3,0.7 0.5,1 4.2,8.9 8.3,17.9 12.5,26.8 0.2,0.4 0.3,0.8 0.3,1.3 0,5.9 0,11.8 0,17.8 0,0.7 0,0.7 0.7,0.7 2.3,0 4.5,0 6.8,0 2.5,0 5.1,0 7.6,0 1.1,0 0.9,0.1 0.9,-0.9 0,-0.1 0,-0.2 0,-0.3 0,-5.7 0,-11.5 0,-17.2 0,-0.5 0.1,-1 0.3,-1.4 2.4,-5.1 4.7,-10.1 7.1,-15.2 1.8,-4 3.7,-7.9 5.5,-11.9 0.1,-0.2 0.3,-0.5 0.2,-0.8 -0.1,0 -0.2,0 -0.3,0 -5.3,0 -10.6,0 -15.9,0 -0.6,0 -0.6,0 -0.7,0.6 -1.1,3.6 -2.1,7.2 -3.2,10.8 -0.3,1 -0.6,2 -0.9,3 -0.3,-0.3 -0.3,-0.6 -0.4,-0.8 -1.3,-4.3 -2.5,-8.6 -3.8,-12.9 -0.2,-0.8 -0.2,-0.7 -0.9,-0.7 -5.1,0 -10.3,0 -15.4,0 -0.4,0 -0.7,0 -0.9,0.1 z m -276.5,35 c -0.3,0 -0.4,0.1 -0.6,0.2 -1.9,0.9 -4,1.3 -6.1,1.2 -2.9,-0.1 -5.2,-1.4 -6.8,-3.9 -1,-1.6 -1.5,-3.3 -1.8,-5.1 -0.4,-2.3 -0.4,-4.7 -0.1,-7.1 0.2,-1.7 0.5,-3.3 1.3,-4.8 1.5,-3.3 4.1,-5 7.8,-5.1 2,-0.1 3.8,0.3 5.7,1.1 0.2,0.1 0.5,0.3 0.7,0.2 0,-0.1 0,-0.1 0,-0.2 0,-3.6 0,-7.2 0,-10.7 C 47.7,6.8 47.6,6.6 47.3,6.6 47.1,6.6 47,6.5 46.8,6.5 43.3,5.6 39.7,5.2 36.1,5.5 33,5.7 30.1,6.4 27.4,7.9 21.3,11.2 17.6,16.3 16,23 c -1,4.5 -0.9,9.1 -0.1,13.6 0.6,3.2 1.7,6.1 3.6,8.7 4.6,6.2 10.8,9.2 18.4,9.6 3.1,0.2 6.2,-0.5 9.1,-1.5 0.7,-0.2 0.7,-0.1 0.7,-0.9 0,-2.8 0,-5.6 0,-8.4 -0.1,-0.9 -0.1,-1.8 -0.1,-2.8 z m 256,-11.2 c 0,7.7 0,15.3 0,23 0,0.9 -0.1,0.8 0.8,0.8 8.8,0 17.5,0 26.3,0 0.1,0 0.3,0 0.4,0 0.3,0 0.4,-0.1 0.4,-0.4 0,-0.1 0,-0.3 0,-0.4 0,-3.4 0,-6.8 0,-10.2 0,-0.1 0,-0.3 0,-0.4 0,-0.2 -0.1,-0.3 -0.3,-0.3 -0.2,0 -0.3,0 -0.5,0 -3.3,0 -6.7,0 -10,0 -1,0 -0.9,0.1 -0.9,-0.9 0,-11.4 0,-22.8 0,-34.2 0,-0.8 0.1,-0.8 -0.9,-0.8 -4.8,0 -9.6,0 -14.4,0 -1,0 -0.9,0 -0.9,0.9 0,7.6 0,15.2 0,22.9 z m -3.1,0 c 0,-7.6 0,-15.3 0,-22.9 0,-0.2 0,-0.4 0,-0.6 0,-0.3 -0.1,-0.4 -0.4,-0.4 -0.2,0 -0.3,0 -0.5,0 -4.8,0 -9.6,0 -14.3,0 -1,0 -0.9,-0.1 -0.9,0.9 0,15.3 0,30.6 0,45.9 0,0.2 0,0.3 0,0.5 0,0.3 0.1,0.4 0.4,0.4 0.1,0 0.3,0 0.4,0 4.8,0 9.6,0 14.4,0 1,0 0.9,0.1 0.9,-0.9 0,-7.6 0,-15.3 0,-22.9 z m -190.7,0 c 0,-7.7 0,-15.5 0,-23.2 0,-0.7 0.1,-0.7 -0.7,-0.7 0,0 -0.1,0 -0.1,0 -4.8,0 -9.6,0 -14.4,0 -1,0 -0.8,0 -0.8,0.8 0,15.4 0,30.8 0,46.1 0,0.8 -0.1,0.8 0.8,0.8 4.8,0 9.6,0 14.5,0 0.9,0 0.8,0.1 0.8,-0.8 -0.1,-7.6 -0.1,-15.3 -0.1,-23 z"
     class="st0" /><path
     style="fill:#d2d3d3"
     inkscape:connector-curvature="0"
     id="path3355"
     d="m 202.3,30.1 c 0,-7.7 0,-15.3 0,-23 0,-0.9 -0.2,-0.9 0.9,-0.9 5,0 10,-0.1 15,0.1 3,0.1 6,0.4 8.9,1.1 3.2,0.9 6,2.4 8.5,4.6 2.4,2.2 4,4.9 5,8 0.8,2.3 1.2,4.8 1.3,7.2 0.2,2.5 0.1,5 -0.2,7.4 -0.3,2.7 -1,5.4 -2.1,7.9 -2.3,5 -6.2,8.1 -11.4,9.8 -2.2,0.7 -4.4,1.1 -6.7,1.3 -1.5,0.1 -3,0.1 -4.5,0.1 -4.6,0 -9.3,0 -13.9,0 -0.9,0 -0.8,0.1 -0.8,-0.8 0,-7.5 0,-15.1 0,-22.8 z m 16.1,-0.4 c 0,3.7 0,7.5 0,11.2 0,0.2 0,0.3 0,0.5 0,0.3 0.1,0.4 0.4,0.4 2.8,0.1 5.1,-0.9 6.1,-4 0.5,-1.5 0.7,-3 0.8,-4.5 0.2,-2.4 0.2,-4.8 0,-7.2 -0.1,-1.6 -0.3,-3.3 -0.9,-4.8 -0.7,-1.9 -2,-3.1 -4,-3.5 -0.5,-0.1 -1,-0.2 -1.6,-0.2 -0.9,0 -0.8,0 -0.8,0.8 0,3.8 0,7.6 0,11.3 z"
     class="st1" /><path
     style="fill:#d2d3d3"
     inkscape:connector-curvature="0"
     id="path3357"
     d="m 282.9,53.8 c -0.2,0.1 -0.4,0.1 -0.7,0.1 -4.7,0 -9.5,0 -14.2,0 -0.7,0 -0.7,0 -0.8,-0.7 -0.3,-2 -0.7,-3.9 -1,-5.9 -0.1,-0.4 -0.2,-0.5 -0.6,-0.5 -2.8,0 -5.6,0 -8.5,0 -0.5,0 -0.5,0 -0.6,0.6 -0.3,1.8 -0.6,3.6 -0.9,5.4 -0.3,1.3 0.1,1.1 -1.3,1.1 -4.5,0 -9.1,0 -13.6,0 -0.3,0 -0.6,0.1 -0.8,-0.1 -0.1,-0.3 0,-0.5 0.1,-0.7 2.8,-10.4 5.5,-20.9 8.3,-31.3 1.3,-5 2.6,-10 3.9,-14.9 0.2,-0.7 0.2,-0.7 0.9,-0.7 5.5,0 11,0 16.5,0 0.8,0 0.8,0 1,0.8 1.7,6.6 3.5,13.3 5.2,19.9 2.3,8.7 4.6,17.4 6.9,26.1 0.1,0.3 0.2,0.6 0.2,0.8 z M 258.3,37.2 c 0.1,0 0.1,0.1 0.2,0.1 1.9,0 3.9,0 5.8,0 0.2,0 0.4,-0.1 0.3,-0.3 0,-0.1 0,-0.3 -0.1,-0.4 -0.9,-4.7 -1.7,-9.3 -2.6,-14 -0.2,-0.8 -0.3,-1.6 -0.5,-2.5 0,0 -0.1,0 -0.1,0 -1,5.6 -2,11.4 -3,17.1 z"
     class="st1" /><path
     style="fill:#d2d3d3"
     inkscape:connector-curvature="0"
     id="path3359"
     d="m 324.1,6.3 c 0.3,-0.2 0.5,-0.1 0.8,-0.1 5.1,0 10.3,0 15.4,0 0.7,0 0.7,-0.1 0.9,0.7 1.3,4.3 2.5,8.6 3.8,12.9 0.1,0.3 0.1,0.6 0.4,0.8 0.3,-1 0.6,-2 0.9,-3 1.1,-3.6 2.1,-7.2 3.2,-10.8 0.2,-0.6 0.2,-0.6 0.7,-0.6 5.3,0 10.6,0 15.9,0 0.1,0 0.2,0 0.3,0 0.1,0.3 -0.1,0.5 -0.2,0.8 -1.8,4 -3.7,7.9 -5.5,11.9 -2.4,5.1 -4.7,10.1 -7.1,15.2 -0.2,0.5 -0.3,0.9 -0.3,1.4 0,5.7 0,11.5 0,17.2 0,0.1 0,0.2 0,0.3 0,1 0.1,0.9 -0.9,0.9 -2.5,0 -5.1,0 -7.6,0 -2.3,0 -4.5,0 -6.8,0 -0.7,0 -0.7,0 -0.7,-0.7 0,-5.9 0,-11.8 0,-17.8 0,-0.5 -0.1,-0.9 -0.3,-1.3 -4.2,-8.9 -8.3,-17.9 -12.5,-26.8 -0.1,-0.3 -0.3,-0.6 -0.4,-1 z"
     class="st1" /><path
     style="fill:#d2d3d3"
     inkscape:connector-curvature="0"
     id="path3361"
     d="m 303.6,30.1 c 0,-7.7 0,-15.3 0,-23 0,-0.9 -0.1,-0.9 0.9,-0.9 4.8,0 9.6,0 14.4,0 1,0 0.9,0 0.9,0.8 0,11.4 0,22.8 0,34.2 0,1 -0.1,0.9 0.9,0.9 3.3,0 6.7,0 10,0 0.2,0 0.3,0 0.5,0 0.2,0 0.4,0.1 0.3,0.3 0,0.1 0,0.3 0,0.4 0,3.4 0,6.8 0,10.2 0,0.1 0,0.3 0,0.4 0,0.3 -0.1,0.4 -0.4,0.4 -0.1,0 -0.3,0 -0.4,0 -8.8,0 -17.5,0 -26.3,0 -0.9,0 -0.8,0.1 -0.8,-0.8 0,-7.6 0,-15.2 0,-22.9 z"
     class="st1" /><path
     style="fill:#d2d3d3"
     inkscape:connector-curvature="0"
     id="path3363"
     d="m 300.5,30.1 c 0,7.6 0,15.3 0,22.9 0,1 0.1,0.9 -0.9,0.9 -4.8,0 -9.6,0 -14.4,0 -0.1,0 -0.3,0 -0.4,0 -0.3,0 -0.4,-0.1 -0.4,-0.4 0,-0.2 0,-0.3 0,-0.5 0,-15.3 0,-30.6 0,-45.9 0,-1 -0.1,-0.9 0.9,-0.9 4.8,0 9.6,0 14.3,0 0.2,0 0.3,0 0.5,0 0.3,0 0.4,0.1 0.4,0.4 0,0.2 0,0.4 0,0.6 0,7.6 0,15.3 0,22.9 z"
     class="st1" /><path
     style="fill:#010000;fill-opacity:1"
     inkscape:connector-curvature="0"
     id="path3365"
     d="m 218.4,29.7 c 0,-3.8 0,-7.5 0,-11.3 0,-0.8 -0.1,-0.8 0.8,-0.8 0.5,0 1,0.1 1.6,0.2 2,0.4 3.4,1.6 4,3.5 0.6,1.6 0.8,3.2 0.9,4.8 0.2,2.4 0.2,4.8 0,7.2 -0.1,1.5 -0.3,3 -0.8,4.5 -1,3.1 -3.3,4.1 -6.1,4 -0.3,0 -0.4,-0.1 -0.4,-0.4 0,-0.2 0,-0.3 0,-0.5 0,-3.7 0,-7.4 0,-11.2 z"
     class="st0" /><path
     style="fill:#000000;fill-opacity:1"
     inkscape:connector-curvature="0"
     id="path3367"
     d="m 176.5,20 c 0.1,0.1 0.1,0.1 0.1,0.2 1,5.7 2.1,11.3 3.1,17.1 -2.1,0 -4.2,0 -6.3,0 0.1,-0.7 2.5,-14.9 3.1,-17.3 z"
     class="st0" /><path
     style="fill:#010000;fill-opacity:1"
     inkscape:connector-curvature="0"
     id="path3369"
     d="m 258.3,37.2 c 1,-5.7 2,-11.4 3.1,-17.1 0,0 0.1,0 0.1,0 0.2,0.8 0.3,1.6 0.5,2.5 0.9,4.7 1.7,9.3 2.6,14 0,0.1 0,0.3 0.1,0.4 0,0.3 -0.1,0.3 -0.3,0.3 -1.9,0 -3.9,0 -5.8,0 -0.2,-0.1 -0.3,-0.1 -0.3,-0.1 z"
     class="st0" /></svg>