<?xml version="1.0" encoding="UTF-8"?>
<!-- Generator: Adobe Illustrator 15.0.0, SVG Export Plug-In . SVG Version: 6.00 Build 0)  -->
<!DOCTYPE svg PUBLIC "-//W3C//DTD SVG 1.1//EN" "http://www.w3.org/Graphics/SVG/1.1/DTD/svg11.dtd">
<svg version="1.1" id="Layer_1" xmlns="http://www.w3.org/2000/svg" xmlns:xlink="http://www.w3.org/1999/xlink" x="0px" y="0px" width="300px" height="31px" viewBox="0 0 300 31" enable-background="new 0 0 300 31" xml:space="preserve">
<g>
	<path fill-rule="evenodd" clip-rule="evenodd" fill="#231F20" d="M50.199,0.405c0.314,0.105,0.523,0.21,0.419,0.628   c-0.105,0.733-1.256,0.419-1.883,0.627c-1.57,0.524-1.047,2.617-1.256,4.082v6.069c0,2.721,0,5.963,0,8.686v5.965   c0,0.838-0.104,1.778,0.523,2.093c0.419,0.626,1.674,0.208,2.511,0.314c1.256-0.212,1.779-1.569,2.616-2.199   c0.313-1.152,0.837-2.093,1.046-3.245c0.627-2.09,0.314-4.813,1.046-6.905c0.418-0.105,0.523,0.209,0.628,0.523v11.614   c0.209,0.314-0.105,0.838-0.105,1.152l-0.942,0.209H44.235c-0.105,0-0.838,0-1.046,0c-0.419-0.103-1.047,0-1.256-0.418   c0.105-1.152,1.989-0.629,1.989-1.99V12.859c-0.105-1.885,0-4.292,0-6.07c0-1.779,0.523-4.186-0.732-5.128   c-0.523-0.523-2.198,0.314-1.989-0.837c0.105-0.208,0.209-0.313,0.523-0.419H50.199L50.199,0.405z"/>
	<path fill-rule="evenodd" clip-rule="evenodd" fill="#231F20" d="M92.267,1.975c0.418,0.314,0.941,0,1.151-0.104   c0.418-0.418,0-1.465,0.837-1.36l0.523,0.105v10.987c-0.209,0.104,0,0.732-0.314,0.732h-0.628   c-0.208-3.976-0.522-8.057-3.452-9.941c-0.524-0.314-1.152-0.523-1.779-0.523c-1.256,0.104-1.989,1.047-2.512,1.989   c-0.732,1.151-0.522,3.348,0.105,4.395c1.569,2.197,4.081,3.453,5.964,5.232c1.883,1.987,4.082,4.081,4.185,7.428   c0.314,3.663-0.941,6.696-3.348,8.687c-1.36,0.941-3.453,1.047-5.023,0.418l-2.197-1.464c-0.522-0.209-0.628,0.314-0.837,0.523   c0,0.626-0.104,1.046-0.523,1.255l-0.732-0.209l-0.105-6.07v-6.802c0.209-0.104,0.733-0.104,0.942,0   c0.208,4.292,0.314,8.789,3.453,10.988c0.942,0.629,2.094,1.152,3.453,0.731c1.989-0.838,2.721-3.033,2.721-5.441   c-0.208-2.093-1.046-3.662-2.511-4.812c-1.988-2.408-4.918-3.663-6.801-6.279c-0.523-0.628-0.523-1.466-0.942-2.198   c-1.046-3.453,0.314-6.907,2.303-9c0.941-0.627,2.407-1.046,3.662-0.732C90.801,0.824,91.638,1.348,92.267,1.975L92.267,1.975z"/>
	<path fill-rule="evenodd" clip-rule="evenodd" fill="#231F20" d="M9.493,0.511c0.209,0.105,0.523,0.105,0.627,0.523   c-0.314,0.733-1.256,0.733-1.57,1.36S8.237,4.173,8.446,4.905l1.256,7.43c0.523,2.407,1.045,4.918,1.674,7.325c0,0,0.209,0,0.314,0   c0.837-3.557,1.465-7.116,2.093-10.673c-0.627-2.721-0.105-6.383-2.616-7.639c-0.208-0.523,0.105-0.837,0.627-0.837   c1.466,0.105,6.174,0,7.326,0.105c0.104,0.208,0.104,0.627,0,0.837c-0.837,0.314-1.779,0.208-2.302,0.941   c-1.151,1.884,0.418,3.872,0.313,6.07l1.256,6.593c0.314,1.463,0.314,3.242,1.151,4.394h0.105l1.57-6.802   c0.837-2.825,1.255-5.859,1.883-8.79c0.209-0.942-0.105-1.57-0.732-1.989c-0.418-0.418-1.151-0.313-1.779-0.418   c-0.104-0.209-0.104-0.628,0-0.837c1.57,0,6.383-0.105,7.011,0c0.314,0.104,0.209,0.627,0.105,0.837   c-0.941,0.208-1.884,0.418-2.407,1.046c-0.628,1.674-0.942,3.453-1.36,5.127l-1.779,8.163c-1.047,4.497-2.197,9.103-3.244,13.707   c-0.208,0.314-0.732,0.314-0.942,0.105c-0.628-0.838-0.628-2.198-0.941-3.348l-1.57-9.001l-0.837-3.766h-0.209l-1.255,6.173   c-0.628,3.033-1.256,6.07-1.883,9.21c-0.105,0.626-0.524,1.047-1.361,0.835c-0.733-0.209-0.418-1.149-0.627-1.779L8.76,24.578   l-1.57-8.267l-1.046-5.964C5.83,7.94,5.203,5.534,4.679,3.231c-0.105-0.627-0.732-1.045-1.15-1.464   C2.796,1.557,2.167,1.871,1.435,1.453C1.226,1.243,1.121,0.616,1.54,0.511H9.493L9.493,0.511z"/>
	<path fill-rule="evenodd" clip-rule="evenodd" fill="#231F20" d="M33.352,1.243c0.419,2.825,1.256,5.337,1.674,8.267l2.197,10.776   c0.524,2.407,0.732,4.815,1.36,7.015c0.314,0.94,0.942,1.569,1.989,1.672c0,0.314,0.313,0.523,0.105,0.732l-0.314,0.314h-6.175   c-0.209-0.314-1.255,0-1.674-0.314c-0.314-1.57,1.989-0.312,2.197-1.464c0.523-0.523,0.314-1.57,0.209-2.199   c-0.523-1.043-0.104-2.825-1.151-3.557h-4.186l-0.419,0.208c-0.104,1.885-1.464,3.978-0.314,5.862   c0.419,0.314,1.256,0.208,1.57,0.523l-0.104,0.626l-5.965,0.105c-0.627,0.209-0.522-0.731-0.314-0.94   c1.256,0.103,1.989-0.523,2.616-1.152c0.733-1.676,0.733-3.769,1.255-5.65l1.151-7.326l1.047-6.068   c0.523-2.512,0.837-5.127,1.36-7.744C31.573,0.405,33.561,0.092,33.352,1.243L33.352,1.243z"/>
	<path fill-rule="evenodd" clip-rule="evenodd" fill="#231F20" d="M66.419,0.511c0.104,0.209,0.313,0.627,0.104,0.837   c-0.941,0.419-2.511,0-2.72,1.151c-0.209,3.244-0.209,5.651-0.209,8.895l-0.104,12.768h-0.105c0.628,1.569-0.837,4.709,1.465,4.812   c0.523,0.106,1.57,0.106,2.093-0.209c2.093-1.676,2.721-4.5,3.14-7.325c0.314-1.464,0.104-3.242,0.522-4.709   c0.209-0.103,0.628-0.103,0.838,0v12.767l-0.105,0.523c-1.674,0-3.454,0-4.709,0.105l-5.964-0.105h-3.244   c-0.523,0-0.313-0.732-0.209-1.047c1.046-0.103,2.302,0,2.826-0.838c0.418-1.569,0.104-3.663,0.313-5.335   c-0.209-1.464,0.104-3.033-0.104-4.709l0.104-1.361V3.335c-0.104-0.522-0.419-1.15-0.732-1.465   c-0.628-0.732-3.139,0.315-2.198-1.36H66.419L66.419,0.511z"/>
	<path fill-rule="evenodd" clip-rule="evenodd" fill="#231F20" d="M110.684,0.616l0.208,0.522v12.035   c-0.104,0.314-0.313,0.418-0.523,0.522l-0.523-0.208c0.104-3.767-0.418-7.116-1.465-10.151c-0.209-0.627-0.732-1.15-1.361-1.465   c-0.522,0-1.046,0-1.255,0.419v11.72v10.569h-0.104c0.104,1.569-0.209,3.557,0.941,4.292c0.732,0.523,1.988-0.314,2.093,0.835   c0,0.838-1.151,0.212-1.675,0.522c-0.522,0-1.778,0-2.302,0v-0.103c-0.732,0.314-1.465-0.208-2.093,0.103   c-0.628-0.103-1.988-0.103-2.93-0.103c-0.314-0.105-0.209-0.731-0.104-0.943c1.152-0.209,2.407-0.312,2.826-1.57V2.499   c-0.209-0.524-0.524-0.628-0.942-0.732c-1.57,0.419-1.988,2.093-2.407,3.663c-0.523,2.302-0.941,4.604-0.732,7.43   c-0.208,0.313,0,0.836-0.523,0.836l-0.627-0.208V0.824C98.545,0.405,107.439,0.511,110.684,0.616L110.684,0.616z"/>
	<path fill-rule="evenodd" clip-rule="evenodd" fill="#231F20" d="M123.136,0.616c1.779,0.522,3.244,1.674,4.082,3.244   c0.732,2.302,1.15,6.07-0.314,8.058c-0.733,1.046-1.569,1.988-2.721,2.721c-0.209,0.733,0.523,0.733,0.941,1.36   c1.465,1.046,1.675,3.454,1.675,5.338c0-0.212-0.209-0.421-0.313-0.212c-0.105,0.314,0.104,0.523,0.418,0.523   c0.105,1.778-0.209,3.769,0.209,5.338c0.105,0.315,0.314,0.523,0.627,0.626c0.523-0.103,0.627-0.626,0.838-0.94   c-0.105-0.94,0.104-1.987,0.208-2.931c0.314,0.209,0.628-0.417,0.837,0c0.209,2.407,0.105,4.918-1.465,6.07   c-0.627,0.417-1.256,0.629-2.197,0.523c-1.046-0.314-1.779-0.94-2.303-1.778l-0.313-1.99v-7.534   c-0.314-1.464-0.627-3.034-2.093-3.451c-0.628-0.21-1.674-0.42-2.197,0l-0.209,0.417v11.614c0.209,0.63,0.418,1.152,0.942,1.361   c0.522,0.106,1.255,0,1.151,0.838l-0.209,0.314l-5.441,0.103c-0.209,0-0.523-0.208-0.627,0c-0.524-0.417-2.303,0.523-1.884-0.731   c0-0.732,0.942-0.209,1.36-0.523c0.524-0.103,0.838-0.626,1.151-0.94c0-0.523,0.314-1.152,0.104-1.676l0.104-6.07   c0-2.511-0.104-4.916,0-7.113c0-1.57,0-3.768-0.104-5.442c0.104-1.046,0-2.616,0.104-3.663c-0.208-0.941-0.418-1.883-1.255-2.198   c-0.523-0.209-1.465,0.104-1.675-0.418c-0.104-0.419,0-0.733,0.419-0.837H123.136L123.136,0.616z"/>
	<path fill-rule="evenodd" clip-rule="evenodd" fill="#231F20" d="M145.216,0.616c0.733,0.313,0.314,1.778,0.419,2.511   c0.314,1.674-0.21,3.558,0.104,5.023c-0.315,0.627,0.104,1.046,0,1.674c-0.209,0.733,0,1.779-0.209,2.407   c-1.465,0.104-0.733-1.779-0.942-2.721c-0.313-3.244-1.464-6.175-4.185-7.535c-0.942-0.314-2.512-0.314-3.14,0.419   c-0.627,1.884-0.314,5.023-0.314,6.802c-0.209,0.627,0.104,0.837,0,1.569c0,0.942,0,1.989,0,2.93   c0.104,0.314-0.105,1.152,0.628,1.046c2.512-1.151,2.826-4.081,2.826-7.011c0-0.418,0.208-0.627,0.836-0.523l0.105,0.628   c-0.209,1.361,0.209,3.035-0.105,4.5c0,1.465,0,3.455,0.105,5.023c-0.105,1.885-0.105,3.557,0,5.441   c0,0.417-0.209,0.626-0.628,0.626c-0.732-0.626-0.209-2.404-0.523-3.349c-0.419-1.778-0.837-3.871-2.826-4.288l-0.314,0.208   c-0.209,2.301-0.104,3.977-0.104,6.07c0,1.882,0.104,4.289,0,6.174c0.628,1.255,2.198,0.731,3.662,0.731   c2.616-1.149,3.559-4.289,4.082-7.22l1.256,0.314v7.743l-0.314,0.314l-12.139,0.103c-0.837-0.208-2.302,0.106-3.14-0.208   c-0.313-1.673,1.674-0.523,2.303-1.149c0.418-0.212,0.627-0.629,0.837-1.047V3.127c-0.209-0.523-0.523-1.047-0.942-1.256   c-0.731-0.313-2.301,0.315-2.197-0.941l0.209-0.313H145.216L145.216,0.616z"/>
	<path fill-rule="evenodd" clip-rule="evenodd" fill="#231F20" d="M160.389,0.616c0.523,0.313,1.989-0.21,2.304,0.418   c0,3.872,0.104,7.221,0,10.988c-0.106,0.313-0.63,0.313-0.838,0.105c-0.419-4.081-0.314-8.896-4.08-10.36   c-0.838-0.314-1.78,0.104-2.616,0.104c-0.525,0.523-0.942,0.942-0.942,1.779V13.8c0.104,0.314,0.209,0.523,0.523,0.523   c2.825-0.733,2.616-4.186,3.035-7.011c0.103-0.209,0.628-0.209,0.837,0c0,1.36,0,3.244,0,4.29c0.208,0.209,0,0.209,0,0.628   c0.208,0.942,0,1.674,0.104,2.826c0,0.732,0,1.88,0,2.825c-0.313,1.569,0.104,3.557-0.313,5.021   c-0.211,0.212-0.628,0.106-0.734-0.209c-0.208-2.407-0.208-5.544-2.092-7.01c-0.209-0.209-0.837-0.209-1.151,0l-0.209,0.732v6.802   h0.104c0.104,1.676-0.627,4.395,0.627,5.441c0.838,0.421,1.989,0.523,3.035,0.314c2.303-0.731,2.93-3.14,3.768-5.232   c-0.21-0.838,0.313-1.673,0.313-2.616l0.211-3.349c0.209-0.208,0.419-0.314,0.732-0.103l0.21,0.209   c-0.315,1.569,0.628,4.08-0.838,4.709c-0.104,0.418-0.628,0.418-0.628,0.94c0.419-0.417,0.942-0.838,1.359-1.464h0.211   l-0.104,6.067c-0.21,0.735,0.313,1.885-0.523,2.093c-1.78,0.212-3.454,0.106-5.232,0.106c-3.351-0.209-6.488-0.106-9.732-0.106   c-0.314-0.103-0.314-0.731-0.104-0.94c0.941-0.314,2.197-0.105,2.825-1.046c0.941-0.732,0.418-2.825,0.524-4.187   c0.104-2.302-0.209-5.335,0-7.428l-0.106-5.966v-7.43c-0.313-0.837-0.941-1.57-1.987-1.57c-0.628,0-1.361,0.105-1.151-0.732   C147.833,0.511,158.715,0.616,160.389,0.616L160.389,0.616z"/>
	<path fill-rule="evenodd" clip-rule="evenodd" fill="#231F20" d="M213.653,3.65c1.361,1.884,1.778,4.604,2.406,7.221   c0.733,5.441,0.21,11.72-1.883,15.695c-0.838,1.569-1.988,2.722-3.349,3.56c-1.256,0.314-3.139,0.418-3.977-0.42   c-3.977-3.663-4.918-9.419-4.814-16.114c0.211-4.5,1.57-8.79,4.187-11.824c1.046-1.151,3.035-1.465,4.709-0.942   C211.979,1.557,213.025,2.499,213.653,3.65L213.653,3.65z"/>
	<path fill-rule="evenodd" clip-rule="evenodd" fill="#231F20" d="M178.703,0.929l0.209,0.314l0.104,8.058   c-0.313,1.36,0,3.034-0.209,4.395c-0.314,0.314-0.627,0-0.838-0.104l-0.314-5.127c-0.416-2.407-0.836-4.604-2.197-6.278   c-0.313-0.315-1.046-0.315-1.255,0l-0.419,0.418v7.43v0.104v5.966v11.929c0.211,1.464,2.304,0.626,3.14,1.255   c0.104,0.523-0.104,0.838-0.522,0.94c-2.721,0.315-5.441-0.208-8.162,0c-0.628,0.106-0.628-0.626-0.42-0.94   c0.943-0.208,2.094-0.105,2.408-1.046l0.104-11.721V2.708c-0.21-0.314-0.419-0.628-0.838-0.733   c-1.883,0.21-1.987,2.093-2.513,3.454l-0.836,5.65c-0.209,0.942,0.209,2.198-0.313,2.721l-0.629-0.105l-0.104-5.86   c0-2.092-0.104-4.708,0.104-6.802C165.936,0.511,176.923,0.824,178.703,0.929L178.703,0.929z"/>
	<path fill-rule="evenodd" clip-rule="evenodd" fill="#231F20" d="M201.306,0.824c0.523-0.104,0.628,0.419,0.419,0.733   c-1.047,0.209-2.094,0.209-2.723,0.942c-0.731,1.674,0.106,3.872-0.209,5.651c0.105,0.314-0.104,0.941,0,1.464   c0.105,1.36,0,2.93,0,4.186c0,0.419,0,1.151,0,1.78v9.938c-0.627,2.093-1.568,4.187-3.662,4.709   c-2.093,0.523-3.453-0.417-4.395-1.464c-1.15-1.676-2.408-3.871-1.465-6.381c0.418-0.944,1.15-1.468,2.197-1.57   c0.522,0.209,1.152,0.417,1.36,0.94c-0.104,0.94,0.523,1.987-0.104,2.616c-0.104,0.838-1.256,0.838-1.256,1.778   c0.105,1.256,0.629,2.302,1.674,2.723c0.941,0.209,1.465-0.212,1.988-0.735c0.733-2.093,0.314-5.441,0.314-7.743l0.104-6.068V3.546   c-0.21-0.628-0.419-1.152-0.942-1.675c-0.627-0.523-2.093,0.209-2.406-0.627l0.313-0.627   C195.758,0.616,198.063,0.929,201.306,0.824L201.306,0.824z"/>
	<path fill-rule="evenodd" clip-rule="evenodd" fill="#231F20" d="M224.223,0.929c0.419-0.209,1.255-0.313,1.57,0.209   c0.104,0.628-0.315,0.732-0.734,0.837c-0.627,0-1.046,0.314-1.463,0.628c-0.419,0.732-0.419,1.779-0.419,2.826v11.929l-0.104,0.103   c0.208,3.14,0,5.232,0.208,8.479c0.315,1.255,1.047,2.407,2.197,3.033c0.942,0.209,2.198,0.106,2.825-0.626   c1.047-0.735,1.257-1.884,1.466-3.037V14.847l-0.104-0.628l0.104-9.209c0.104-0.942-0.104-1.989-0.628-2.721   c-0.523-0.419-1.465-0.419-2.093-0.523l0.104-0.733l5.547-0.104c0.313,0,0.521,0.314,0.521,0.523c0,0.522-0.836,0.208-1.046,0.418   c-0.522,0.104-1.045,0.523-1.045,1.047l-0.315,1.674v20.927c-0.208,1.782-1.255,3.245-2.512,4.292   c-0.836,0.732-2.51,0.417-3.452,0.629c-2.093-0.42-3.871-1.884-4.501-3.874c-1.255-2.616-0.417-6.905-0.731-9.73v-13.5   c-0.209-0.627-0.523-1.046-1.047-1.36c-0.523-0.208-1.466,0-1.466-0.627c-0.104-0.628,0.63-0.314,0.942-0.523L224.223,0.929   L224.223,0.929z"/>
	<path fill-rule="evenodd" clip-rule="evenodd" fill="#231F20" d="M241.069,1.034c3.14-0.418,6.279,0.209,7.534,2.721   c1.047,1.675,1.675,4.291,0.942,6.593c-0.942,1.674-1.674,3.767-3.557,4.604c0,0.941,1.045,1.152,1.464,1.884   c0.419,0.838,0.838,1.57,0.838,2.719l0.209,5.339c0,0.94-0.104,2.511,0.838,2.931c1.255-0.42,0.94-2.305,1.15-3.662   c0.104-0.106,0.523-0.106,0.628,0c0.314,2.302-0.209,4.497-1.57,5.858c-0.731,0.314-1.674,0.731-2.512,0.42   c-0.942,0-0.942-1.046-1.569-1.569l-0.313-3.037v-6.066c-0.104-1.361-0.209-2.932-1.257-3.663c-0.731-0.629-2.091-0.837-3.138-0.42   l-0.21,0.314c-0.418,4.08,0.104,7.428,0,11.72c0.104,0.629,0.21,1.361,0.941,1.676c0.628,0.103,0.942,0,1.675,0.208   c0.104,0.209,0,0.523,0.104,0.838l-5.545,0.104l-3.035-0.209c-0.209-0.209-0.209-0.732,0-0.838c0.942,0,1.674-0.314,2.199-0.838   l0.313-1.047V3.546c-0.21-0.628-0.313-1.256-0.942-1.571c-0.523-0.208-1.465,0.105-1.465-0.627   c0.314-0.732,0.941-0.104,1.676-0.418C238.034,1.034,239.291,1.034,241.069,1.034L241.069,1.034z"/>
	<path fill-rule="evenodd" clip-rule="evenodd" fill="#231F20" d="M256.453,0.929c0.208,0.209,0.627,0.314,0.731,0.628   c2.093,5.86,3.663,11.93,6.07,17.58c0.628-0.105-0.21-0.731,0.209-1.046c-0.104-2.199,0.104-4.291-0.104-6.593   c0.209-1.255,0-2.197,0.104-3.558c-0.313-0.209,0.21-0.523-0.104-0.627c0.209-1.256-0.104-3.035-0.104-4.5   c-0.523-0.733-1.465-0.942-2.512-0.942c0-0.104-0.209-0.732,0.209-0.837c1.988,0,3.873,0,6.07,0   c0.417,0.104,0.208,0.523,0.208,0.837c-0.627,0.315-1.569,0.209-1.988,0.837l-0.417,1.046l-0.104,5.65v15.697   c0,0.523,0,1.676,0,2.199c-0.106,0.834,0.104,2.195-0.106,3.033c-0.208,0.209-0.731,0.314-0.94,0.105   c-0.733-0.943-0.629-2.514-1.361-3.454c-1.15-2.824-1.778-6.07-2.931-8.789l-2.091-5.965c-0.315-1.047-0.838-1.884-1.153-2.826   L255.93,9.51c-0.313,1.255-0.313,2.302-0.104,3.558l-0.104,5.652v9.313c0.209,0.523,0.417,1.047,0.94,1.361   c0.523,0.312,1.78-0.314,1.78,0.626l-0.106,0.42l-5.858,0.104c-0.419-0.104-0.941-0.104-0.941-0.626   c0.419-0.838,2.197,0,2.616-1.047c0.417-0.838,0.417-1.99,0.417-3.14l-0.104-12.035V3.65c-0.208-1.464-1.674-1.57-2.825-1.883   c-0.314-0.209,0-0.523,0-0.733C253.209,0.824,254.778,0.929,256.453,0.929L256.453,0.929z"/>
	<path fill-rule="evenodd" clip-rule="evenodd" fill="#231F20" d="M276.858,6.266c0.419,2.93,1.36,5.546,1.674,8.581l1.884,8.684   c0.628,2.094,0.523,4.815,2.511,5.862c0.524,0.103,1.152,0.103,0.838,0.94l-0.104,0.209c-2.407,0.105-5.651,0.208-8.162-0.104   c-0.522-1.467,1.256-0.838,1.883-1.258c0.523-0.418,0.628-1.256,0.523-2.196c-0.313-1.467-0.523-3.036-1.15-4.186   c-1.674-0.106-3.663-0.106-5.129,0.103c-0.417,0.523-0.521,1.361-0.627,2.199c-0.209,1.255-1.047,3.14,0.21,4.186   c0.523,0.523,2.615-0.417,1.883,1.152c-1.674,0.312-3.663,0.209-5.337,0.209c-0.523-0.209-1.674,0.209-1.359-0.838   c0-0.629,1.045-0.209,1.359-0.417c0.942-0.523,1.361-1.468,1.57-2.408l1.255-7.116l1.569-8.999l0.942-5.233   c0.314-1.569,0.523-3.348,1.257-4.604l1.359,0.104L276.858,6.266L276.858,6.266z"/>
	<path fill-rule="evenodd" clip-rule="evenodd" fill="#231F20" d="M292.765,1.034c0.419,0.104,0.836,0.209,0.836,0.733   c-0.209,0.732-1.568,0.313-2.092,0.732c-0.733,0.314-0.733,1.255-0.941,1.884v23.335c-0.315,0.731,0.208,1.255,0.627,1.676   c0.838,0.523,2.721,0.417,3.768,0.103c1.674-1.047,1.988-3.14,2.721-5.024l0.731-5.44c0.106-0.209,0.525-0.209,0.838,0v9.732   h-0.104c0,0.523,0.104,1.361-0.104,1.885c-0.522,0.209-1.36,0-1.779,0.103l-0.313-0.103l-5.651,0.103   c-2.197-0.103-4.604,0.209-6.384-0.312c-0.208-0.105-0.208-0.522-0.104-0.734c0.627-0.418,1.988,0.105,2.302-0.835l0.105-1.047   V3.127c-0.523-1.047-1.676-1.152-2.723-1.152c0-0.418-0.208-0.837,0.211-0.941H292.765L292.765,1.034z"/>
	<path fill-rule="evenodd" clip-rule="evenodd" fill="#FFFFFF" d="M211.77,3.754l0.21,1.989v6.592l0.104,0.105l-0.104,13.602   c-0.21,1.046-0.733,1.781-1.255,2.616c-0.734,0.629-1.989,0.523-2.723,0.105c-1.57-1.046-1.883-3.033-1.778-4.814   c-0.104-1.464,0.419-2.72,0-4.08c0.104-1.57,0-3.349,0.208-5.022c-0.208-0.105,0-0.733-0.208-0.838c0.419-0.522-0.104-0.836,0-1.36   c0.104-2.616,0-4.604,0-7.639c0.419-1.36,1.046-2.93,2.512-3.244C210.305,1.661,211.142,2.604,211.77,3.754L211.77,3.754z"/>
	<path fill-rule="evenodd" clip-rule="evenodd" fill="#FFFFFF" d="M122.299,1.975c2.93,1.779,1.779,6.279,1.674,9.628   c-0.208,0.941-0.732,1.674-1.465,2.302c-0.836,0.523-2.616,0.419-3.453,0.104L118.95,3.335c0.105-0.732,0.419-1.465,1.36-1.465   C120.939,1.661,121.566,1.975,122.299,1.975L122.299,1.975z"/>
	<path fill-rule="evenodd" clip-rule="evenodd" fill="#FFFFFF" d="M245.675,3.65c0.314,0.733,0.314,1.779,0.417,2.511l-0.103,5.546   c-0.314,1.046-0.629,1.988-1.571,2.407c-0.836,0.314-2.721,0.314-3.768,0c-0.104-3.977-0.104-7.011-0.104-10.987   c0.104-0.523,0.522-1.047,1.15-1.256C243.686,1.453,244.732,2.499,245.675,3.65L245.675,3.65z"/>
	<path fill-rule="evenodd" clip-rule="evenodd" fill="#FFFFFF" d="M274.242,9.824c0.627,3.977,1.884,7.535,2.407,11.615l-0.21,0.209   l-4.187,0.105l-0.521-0.314c0.104-1.152,0.313-2.407,0.628-3.663l0.836-5.544c0.21-0.837,0.314-1.779,0.628-2.511L274.242,9.824   L274.242,9.824z"/>
	<path fill-rule="evenodd" clip-rule="evenodd" fill="#FFFFFF" d="M32.723,15.371l1.047,5.651c-0.733,0.834-2.197,0-3.349,0.314   l-0.837-0.106l0.105-1.36l0.941-5.964l0.733-3.872l0.209,0.104L32.723,15.371L32.723,15.371z"/>
</g>
</svg>