<?xml version="1.0" encoding="UTF-8"?>
<!-- Generator: Adobe Illustrator 18.1.1, SVG Export Plug-In . SVG Version: 6.00 Build 0)  -->
<!DOCTYPE svg PUBLIC "-//W3C//DTD SVG 1.1//EN" "http://www.w3.org/Graphics/SVG/1.1/DTD/svg11.dtd">
<svg version="1.1" id="Layer_1" xmlns="http://www.w3.org/2000/svg" xmlns:xlink="http://www.w3.org/1999/xlink" x="0px" y="0px" viewBox="0 0 727 175" enable-background="new 0 0 727 175" xml:space="preserve">
<g>
	<defs>
		<rect id="SVGID_1_" y="0.7" width="726.2" height="174.2"/>
	</defs>
	<clipPath id="SVGID_2_">
		<use xlink:href="#SVGID_1_" overflow="visible"/>
	</clipPath>
	<path clip-path="url(#SVGID_2_)" d="M0,0.7h111.4c29.8,0,43.1,10.1,43.1,37.6v94.7c0,32-11.6,42.1-43.1,42.1H0V0.7 M75.6,135.1   c7.7,0,9.9-3.4,9.9-12.4V52.9c0-9-2.4-12.4-9.9-12.4H68v94.7H75.6z"/>
	<path clip-path="url(#SVGID_2_)" d="M238.5,39.6l7.1,59.2h-14.4L238.5,39.6 M185.2,0.7L154.5,175h70.2l3.9-37.8h19.5L252,175h70.4   L291.7,0.7H185.2z"/>
	<polyline clip-path="url(#SVGID_2_)" points="330.6,0.7 330.6,40.4 373.1,40.4 326.5,137.7 326.5,175 449.1,175 449.1,135.3    402.3,135.3 449.1,37.2 449.1,0.7 330.6,0.7  "/>
	<polyline clip-path="url(#SVGID_2_)" points="455.1,0.7 455.1,175 565,175 565,135.3 523.2,135.3 523.2,99.2 565,99.2 565,59.5    523.2,59.5 523.2,40.4 565,40.4 565,0.7 455.1,0.7  "/>
	<path clip-path="url(#SVGID_2_)" d="M571.7,175h111.4c31.6,0,43.1-10.1,43.1-42.1V38.3c0-27.5-13.3-37.6-43.1-37.6H571.7V175    M639.7,135.1V40.4h7.5c7.5,0,9.9,3.4,9.9,12.4v69.8c0,9-2.1,12.4-9.9,12.4H639.7z"/>
</g>
</svg>