<?xml version="1.0" encoding="UTF-8" standalone="no"?>
<svg
   xmlns:dc="http://purl.org/dc/elements/1.1/"
   xmlns:cc="http://creativecommons.org/ns#"
   xmlns:rdf="http://www.w3.org/1999/02/22-rdf-syntax-ns#"
   xmlns:svg="http://www.w3.org/2000/svg"
   xmlns="http://www.w3.org/2000/svg"
   xmlns:sodipodi="http://sodipodi.sourceforge.net/DTD/sodipodi-0.dtd"
   xmlns:inkscape="http://www.inkscape.org/namespaces/inkscape"
   version="1.0"
   width="94.657372mm"
   height="27.178356mm"
   id="svg3347"
   inkscape:version="0.91 r13725"
   viewBox="0 0 94.65737 27.178356"
   sodipodi:docname="press-torydaily.svg">
  <metadata
     id="metadata3378">
    <rdf:RDF>
      <cc:Work
         rdf:about="">
        <dc:format>image/svg+xml</dc:format>
        <dc:type
           rdf:resource="http://purl.org/dc/dcmitype/StillImage" />
        <dc:title></dc:title>
      </cc:Work>
    </rdf:RDF>
  </metadata>
  <sodipodi:namedview
     pagecolor="#ffffff"
     bordercolor="#666666"
     borderopacity="1"
     objecttolerance="10"
     gridtolerance="10"
     guidetolerance="10"
     inkscape:pageopacity="0"
     inkscape:pageshadow="2"
     inkscape:window-width="2560"
     inkscape:window-height="1377"
     id="namedview3376"
     inkscape:document-units="mm"
     showgrid="false"
     inkscape:zoom="3.8139007"
     inkscape:cx="63.294367"
     inkscape:cy="90.017072"
     inkscape:window-x="-8"
     inkscape:window-y="-8"
     inkscape:window-maximized="1"
     inkscape:current-layer="layer1"
     fit-margin-top="0"
     fit-margin-left="0"
     fit-margin-right="0"
     fit-margin-bottom="0" />
  <defs
     id="defs3349">
    <pattern
       id="WMFhbasepattern"
       patternUnits="userSpaceOnUse"
       width="6"
       height="6"
       x="0"
       y="0" />
  </defs>
  <g
     inkscape:groupmode="layer"
     id="layer1"
     inkscape:label="Layer 1"
     transform="translate(-0.48198767,-0.41552667)">
    <g
       id="g4308"
       transform="translate(-14.207676,-122.39321)">
      <path
         inkscape:connector-curvature="0"
         id="path3352"
         d="M 27.347333,126.91533 27.178,128.27 l -0.169333,1.27 -0.08467,1.27 -0.08467,1.10067 0,1.10066 -0.08467,1.016 0,1.016 0,0.84667 0,0.93133 0,0.84667 0.08467,0.762 0,0.67733 0,0.67734 0.08467,0.59266 0.08467,0.59267 0,0.508 0.08467,0.508 0.08467,0.508 0.08467,0.42333 0.08467,0.33867 0.169334,0.67733 0.254,0.59267 0.169333,0.254 0.08467,0.254 0.169333,0.16933 0.08467,0.0847 0.08467,0.0847 0.08467,0 0.08467,-0.0847 0.08467,-0.16933 0,-0.254 0,-0.33867 0,-0.42333 0,-0.42334 0,-0.59266 -0.08467,-0.59267 0,-0.67733 0,-0.762 0,-0.762 0.08467,-0.84667 0.08467,-1.69333 0.169333,-1.69334 0.169334,-1.60866 0.08467,-1.524 0.08467,-0.762 0.08467,-0.84667 0,-0.93133 0,-0.59267 0,-0.508 0,-0.59267 0,-0.67733 -0.08467,-0.762 0,-0.762 1.185333,-0.16933 1.27,-0.16934 1.354667,-0.16933 1.354667,-0.16933 2.624666,-0.254 1.354667,-0.0847 1.27,-0.0847 1.100667,-0.0847 1.100666,-0.0847 1.016,-0.16933 0.846667,-0.254 0.762,-0.16934 0.762,-0.16933 0.592667,-0.254 0.592666,-0.16933 0.508,-0.16934 0.423334,-0.16933 0.423333,-0.254 0.338667,-0.16933 0.08467,-0.0847 0.08467,-0.0847 0,-0.0847 0,0 0,-0.0847 -0.08467,0 -0.169333,0 -0.169333,-0.0847 -0.254,0 -0.254,0 -0.338667,0 -0.423333,0 -0.423334,0.0847 -0.423333,0 -1.016,0.0847 -2.201333,0.16933 -2.116667,0.254 -1.947333,0.254 -1.016,0.0847 -0.931334,0 -0.931333,0.0847 -0.762,0.0847 -1.608667,0.16933 -0.423333,0.0847 -0.508,0 -0.508,0.0847 -0.592667,0.0847 -0.762,0.16934 -0.762,0.0847 -1.608666,0.254 -1.693334,0.254 -0.762,0.0847 -0.762,0.16933 -0.592666,0.0847 -0.592667,0.0847 -0.508,0.16933 -0.508,0.0847 -1.608667,0.33866 -1.862666,0.33867 -0.846667,0.16933 -0.762,0.0847 -0.423333,0.0847 -0.254,0.0847 L 16.256,127 l -0.423333,0.0847 -0.338667,0.16933 -0.254,0.0847 -0.254,0.16933 -0.169333,0.16933 -0.08467,0.16934 0,0.16933 0,0.16933 0.08467,0.0847 0.08467,0.0847 0.169334,0.0847 0.169333,0 0.423333,0.0847 0.423334,0.0847 0.423333,0 0.338667,0 0.254,-0.0847 0.423333,0 0.508,-0.0847 0.592667,0 0.762,-0.0847 0.762,-0.0847 0.931333,-0.0847 1.016,-0.16933 1.100667,-0.16933 0.931333,-0.254 0.423333,-0.0847 0.423334,-0.0847 0.338666,-0.0847 0.338667,-0.0847 0.508,-0.0847 L 26.67,127 l 0.338667,0 0.338666,-0.0847"
         style="fill:#000000;fill-opacity:1;stroke:#000000;stroke-width:0.08466667px;stroke-linecap:round;stroke-linejoin:round;stroke-miterlimit:4;stroke-dasharray:none;stroke-opacity:1" />
      <path
         inkscape:connector-curvature="0"
         id="path3354"
         d="m 107.35733,136.73667 0.254,-0.254 0.254,-0.16934 0.16934,-0.16933 0.16933,-0.16933 0.33867,-0.16934 0.254,-0.16933 0.254,-0.0847 0.16933,0 0.0847,0.0847 0,0.0847 0,0.33866 -0.0847,0.33867 -0.0847,0.33867 -0.0847,0.33866 -0.0847,0.254 -0.16933,0.0847 -0.16934,0.254 -0.16933,0.16933 -0.16933,0.254 -0.16934,0.16934 -0.16933,0.16933 -0.16933,0.33867 -0.33867,0.33866 0.0847,1.10067 0,1.016 0,0.508 0,0.59267 0,0.93133 -0.0847,0.93133 -0.16933,0.93134 -0.33867,1.016 -0.33867,1.016 -0.16933,0.508 -0.16933,0.42333 -0.16934,0.42333 -0.16933,0.33867 -0.16933,0.254 -0.0847,0.254 -0.0847,0.16933 -0.0847,0.16934 -0.16934,0.16933 -0.16933,0 -0.33867,0.0847 -0.33866,-0.0847 -0.33867,-0.16933 -0.42333,-0.16934 -0.42334,-0.254 -0.254,-0.0847 -0.16933,-0.16934 -0.16933,-0.0847 -0.0847,-0.16934 -0.0847,-0.16933 -0.0847,-0.254 0,-0.33867 0,-0.16933 0,-0.254 0,-0.254 0,-0.33867 0,-0.33866 0.0847,-0.508 0.0847,-0.508 0.16933,-0.59267 0.0847,-0.42333 0.0847,-0.33867 0.16933,-0.42333 0.16933,-0.508 0.254,-0.508 0.254,-0.59267 0.254,-0.59267 0.33867,-0.67733 0.42333,-0.762 0.42334,-0.762 0.508,-0.84667 0.59266,-0.93133 0,0 0,-0.0847 -0.0847,-1.016 0,-0.42333 -0.0847,-0.42333 0,-0.42334 0,-0.254 -0.0847,-0.254 0,-0.254 -0.0847,-0.0847 0,-0.0847 -0.0847,0 -0.0847,0 -0.0847,0.16933 -0.0847,0.254 -0.254,0.42334 -0.254,0.508 -0.33867,0.67733 -0.508,0.59267 -0.16933,0.254 -0.254,0.254 -0.16933,0.254 -0.16934,0.16933 -0.254,0.0847 -0.16933,0.0847 -0.254,0 -0.254,0 -0.254,0 -0.33867,-0.16933 -0.254,-0.16933 -0.254,-0.16934 -0.16933,-0.254 -0.16933,-0.254 -0.0847,-0.42333 0,-0.42333 -0.0847,-1.10067 0,-0.254 0,-0.254 -0.0847,-0.16933 0,-0.16934 0,-0.0847 -0.0847,0 -0.0847,0.0847 0,0.0847 -0.16933,0.254 -0.16933,0.33867 -0.33867,0.59266 -0.338667,0.59267 -0.423333,0.59267 -0.423333,0.67733 -0.423334,0.508 -0.169333,0.254 -0.338667,0.254 -0.254,0.16933 -0.338666,0.0847 -0.254,0 -0.338667,-0.0847 -0.338667,-0.16933 -0.338666,-0.254 -0.254,-0.254 -0.169334,-0.33867 -0.254,-0.42333 -0.08467,-0.42333 -0.08467,-0.508 -0.08467,-0.508 0,-0.508 0,-0.508 0.08467,-0.67734 0,-0.33866 0.08467,-0.42334 0,-0.42333 0.08467,-0.508 0.08467,-0.508 0.169333,-0.59267 0.08467,-0.59266 0.169333,-0.67734 0.254,-0.762 0.254,-0.84666 0,-0.16934 0.08467,-0.16933 0,-0.254 0.08467,-0.16933 0.08467,-0.33867 0.169334,-0.254 0.08467,-0.16933 0.08467,-0.0847 0.08467,-0.0847 0.08467,0 0.169334,0.0847 0.338666,0.254 0.254,0.254 0.338667,0.33867 0.169333,0.16933 0.08467,0.16933 0.08467,0.16934 0.08467,0.16933 -0.08467,0.254 0,0.254 -0.08467,0.33867 -0.08467,0.42333 -0.08467,0.508 -0.169334,0.59267 -0.254,0.762 -0.254,0.762 -0.254,0.762 -0.254,0.762 -0.254,0.59266 -0.169333,0.59267 -0.08467,0.59267 -0.08467,0.508 0,0.59266 0,0.508 0.08467,0.42334 0,0.16933 0.08467,0.16933 0,0.0847 0.08467,0.0847 0.08467,0 0.08467,0 0.169333,-0.16934 0.169334,-0.16933 0.169333,-0.254 0.169333,-0.254 0.169334,-0.42333 0.254,-0.33867 0.254,-0.508 0.254,-0.508 0.592666,-1.10067 0.254,-0.42333 0.254,-0.42333 0.254,-0.33867 0.338671,-0.254 0.254,-0.16933 0.33867,0 0.33866,0 0.254,0.16933 0.254,0.16933 0.16934,0.254 0.16933,0.33867 0.0847,0.254 0.0847,0.254 0.0847,0.254 0,0.254 -0.0847,0.33867 0,0.42333 -0.0847,0.42333 -0.0847,0.84667 0,0.33867 0.0847,0.254 0,0.16933 0.0847,0.0847 0.16934,0 0.16933,-0.0847 0.16933,-0.16933 0.16934,-0.16934 0.16933,-0.254 0.16933,-0.33866 0.16934,-0.33867 0.16933,-0.42333 0.508,-0.93134 0.254,-0.42333 0.254,-0.33867 0.16933,-0.33866 0.16934,-0.16934 0.254,-0.16933 0.16933,-0.0847 0.254,0 0.33867,0.0847 0.254,0.16933 0.254,0.16934 0.254,0.16933 0.16933,0.254 0.16933,0.42333 0.0847,0.254 0.0847,0.33867 0,0.16933 0,0.33867 0.0847,0.33867 0,0.33866 0,0.254 0,0.16934"
         style="fill:#000000;fill-opacity:1;stroke:#000000;stroke-width:0.08466667px;stroke-linecap:round;stroke-linejoin:round;stroke-miterlimit:4;stroke-dasharray:none;stroke-opacity:1" />
      <path
         inkscape:connector-curvature="0"
         id="path3358"
         d="m 93.133333,127.93133 -0.254,-0.254 -0.254,-0.16933 -0.254,-0.16933 -0.254,-0.0847 -0.169333,0 -0.08467,0 0,0.0847 0,0.0847 0,0.0847 0.169334,0.16933 0.254,0.16934 0.169333,0.0847 0.169333,0.16934 0.169334,0.16933 0.169333,0.0847 0.169333,0 0.08467,0 0.08467,-0.16934 0,-0.0847 -0.169334,-0.16934"
         style="fill:#000000;fill-opacity:1;stroke:#000000;stroke-width:0.08466667px;stroke-linecap:round;stroke-linejoin:round;stroke-miterlimit:4;stroke-dasharray:none;stroke-opacity:1" />
      <path
         inkscape:connector-curvature="0"
         id="path3360"
         d="m 86.190667,132.41867 -0.08467,0 0,-0.0847 -0.169333,-0.33867 -0.169334,-0.254 -0.08467,-0.16933 -0.169334,-0.16933 -0.169333,-0.16934 -0.254,-0.16933 -0.592667,-0.33867 -0.508,-0.16933 -0.423333,-0.16933 -0.423333,-0.16934 -0.423334,0 -0.169333,0 -0.169333,0 -0.169334,0.0847 -0.254,0.16933 -0.169333,0.254 -0.254,0.33867 -0.254,0.42333 -0.254,0.508 -0.338667,0.59267 -0.254,0.67733 -0.254,0.762 -0.254,0.67734 -0.169333,0.67733 -0.08467,0.67733 -0.08467,0.508 0,0.59267 0.08467,0.508 0.08467,0.42333 0.08467,0.42334 0.254,0.33866 0.169333,0.33867 0.254,0.254 0.254,0.16933 0.254,0.0847 0.338667,0.16933 0.254,0 0.254,0 0.254,0 0.254,-0.0847 0.254,-0.16934 0.254,-0.16933 0.338666,-0.33867 0.338667,-0.33866 0.338667,-0.508 0.677333,-0.84667 0.338667,-0.42333 0.254,-0.33867 0.423333,-0.59267 0.338667,-0.42333 0.169333,-0.33867 0.169333,-0.254 0.254,-0.59266 0,-0.16934 0.08467,-0.0847 0.08467,0 0,0 0,0 0,0.16933 0,0.16933 0,0.16934 0,0.508 0,0.59266 0,1.27 0,0.508 0.08467,0.508 0.169334,0.33867 0.169333,0.16933 0.254,0.16934 0.338667,0.0847 0.254,0 0.254,0 0.338666,-0.0847 0.254,-0.16934 0.254,-0.16933 0.169334,-0.254 0.254,-0.33867 0.254,-0.33866 0.508,-0.84667 0.254,-0.33867 0.254,-0.42333 0.169333,-0.254 0.169333,-0.33867 0.254,-0.508 0.08467,-0.254 0.08467,-0.16933 0.08467,-0.0847 0,0 0.08467,0 0,0.16934 0,0.16933 0.08467,0.254 0,0.254 0,0.33867 0,0.67733 0,0.67733 -0.08467,0.254 0,0.254 0,0.42334 0,0.33866 0.08467,0.16934 0.08467,0.16933 0.08467,0.0847 0.338667,0.254 0.423333,0.16933 0.169333,0.0847 0.08467,0 0.08467,-0.0847 0,-0.0847 0,-0.254 0,-0.254 0,-0.33866 0.08467,-0.33867 0,-0.42333 0.08467,-0.508 0.08467,-1.18534 0,-0.508 0,-0.42333 0,-0.33867 -0.08467,-0.254 0,-0.254 -0.08467,-0.0847 -0.338666,-0.254 -0.338667,-0.16934 -0.254,-0.16933 -0.338667,-0.16933 -0.338666,0 -0.254,0 -0.254,0.0847 -0.169334,0.0847 -0.08467,0.16933 -0.169334,0.16934 -0.169333,0.254 -0.169333,0.33866 -0.254,0.42334 -0.508,1.016 -0.254,0.508 -0.254,0.42333 -0.169334,0.33867 -0.08467,0.16933 -0.169334,0.33867 -0.169333,0.33866 -0.08467,0.0847 -0.08467,0 0,-0.0847 -0.08467,-0.0847 0,-0.16934 -0.08467,-0.42333 0,-0.508 0.08467,-0.508 0.169333,-1.10067 0.08467,-0.42333 0.08467,-0.42333 0,-0.33867 0,-0.254 -0.08467,-0.16933 -0.169333,-0.254 -0.254,-0.16934 -0.254,-0.16933 -0.254,-0.16933 -0.254,-0.16934 -0.169334,-0.0847 -0.169333,0 -0.169333,0 -0.08467,0.0847 -0.254,0.16934 -0.08467,0 -0.08467,0"
         style="fill:#000000;fill-opacity:1;stroke:#000000;stroke-width:0.08466667px;stroke-linecap:round;stroke-linejoin:round;stroke-miterlimit:4;stroke-dasharray:none;stroke-opacity:1" />
      <path
         inkscape:connector-curvature="0"
         id="path3366"
         d="m 69.680667,126.40733 0,0.16934 -0.08467,0.254 0,0.254 -0.08467,0.254 -0.08467,0.33866 -0.08467,0.33867 -0.08467,0.42333 -0.08467,0.42334 -0.08467,0.508 0,0.508 -0.169333,1.18533 -0.169334,2.286 0,1.016 0,1.016 0,0.84667 0,0.762 0,0.762 0,0.59266 0.08467,0.59267 0,0.59267 0,0.508 0.08467,0.42333 0,0.42333 0.08467,0.33867 0.08467,0.254 0.08467,0.254 0,0.16933 0,0.0847 -0.08467,0.0847 -0.08467,0.0847 -0.254,0.0847 -0.169333,-0.0847 -0.508,-0.0847 -0.254,-0.0847 0,0 0,0 0,0.0847 0.08467,0.0847 0.254,0.16934 0.254,0.254 0.338666,0.16933 0.338667,0.0847 0.338667,0 0.338666,0 0.338667,-0.0847 0.338667,-0.0847 0.338666,-0.16933 0.423334,-0.16933 0.508,-0.33867 0.592666,-0.42333 0.677334,-0.508 0.762,-0.59267 0.762,-0.67733 0.677333,-0.762 0.677333,-0.84667 0.677334,-0.84667 0.592666,-0.84666 0.508,-0.93134 0.423334,-0.84666 0.338666,-0.84667 0.254,-0.84667 0.254,-0.762 0.08467,-0.84666 0.08467,-0.762 0,-0.762 -0.08467,-0.762 -0.254,-0.762 -0.254,-0.762 -0.338667,-0.67734 -0.508,-0.508 -0.592666,-0.508 -0.677334,-0.42333 -0.677333,-0.33867 -0.677333,-0.33866 -0.846667,-0.254 -0.846667,-0.16934 -1.016,-0.0847 -1.100666,0 -1.100667,0.0847 -1.100667,0.16934 -0.508,0.0847 -0.508,0.0847 -0.423333,0.0847 -0.423333,0.0847 -0.338667,0.0847 -0.338667,0.0847 -0.508,0.16933 -0.423333,0.0847 -0.423333,0.0847 -0.338667,0.0847 -0.254,0.0847 -0.08467,0.0847 -0.08467,0.16934 0.08467,0.0847 0.169334,0.16934 0.08467,0.16933 0.338667,0.254 0.338667,0.16933 0.169333,0.16934 0.169333,0 0.338667,-0.0847 0.338667,-0.0847 0.508,-0.0847 1.016,-0.254 0.423333,-0.0847 0.338667,-0.0847 0.338666,-0.0847 0.254,0 0.169334,0 0.169333,0 0.08467,0.16933 0,0.0847 0,0.0847"
         style="fill:#000000;fill-opacity:1;stroke:#000000;stroke-width:0.08466667px;stroke-linecap:round;stroke-linejoin:round;stroke-miterlimit:4;stroke-dasharray:none;stroke-opacity:1" />
      <path
         inkscape:connector-curvature="0"
         id="path3374"
         d="m 39.285333,132.16467 0.169334,-0.762 0,-0.762 -0.08467,-0.42334 -0.08467,-0.33866 -0.08467,-0.254 -0.169334,-0.33867 -0.169333,-0.16933 -0.169333,-0.254 -0.169334,-0.0847 -0.254,-0.16933 L 38.1,128.524 l -0.254,0 -0.423333,0 -0.338667,0.0847 -0.338667,0.16933 -0.338666,0.254 -0.254,0.33867 -0.508,0.59266 -0.423334,0.508 -0.254,0.42334 -0.08467,0.16933 -0.169334,0.33867 -0.169333,0.254 -0.169333,0.33866 -0.338667,0.762 -0.254,0.84667 -0.169333,0.762 -0.169334,0.67733 0,0.59267 0.169334,0.508 0.169333,0.42333 0.338667,0.33867 0.338666,0.254 0.423334,0.0847 0.423333,0.0847 0.423333,-0.0847 0.423334,-0.0847 0.423333,-0.16933 0.338667,-0.254 0.423333,-0.42334 0.423333,-0.508 0.169334,-0.33866 0.254,-0.33867 0.169333,-0.33867 0.169333,-0.42333 0.169334,-0.42333 0.169333,-0.42334 0.423333,-0.33866 0.423334,-0.33867 0.338666,-0.33867 0.254,-0.254 0.592667,-0.42333 0.423333,-0.254 0.254,-0.254 0.254,-0.16933 0.254,-0.0847 0.169334,-0.0847 0.254,-0.0847 0.169333,-0.0847 0.08467,0 0.08467,0.0847 0.08467,0 0,0.16933 0,0.0847 0,0.16933 0,0.16933 0,0.16934 0,0.254 0,0.33866 -0.08467,0.67734 0,0.67733 0,0.59267 -0.08467,0.33866 0,0.16934 0,0.42333 0,0.254 0,0.254 0.169333,0.508 0.169333,0.33867 0.338667,0.254 0.169333,0.0847 0.169334,0 0.169333,0 0.169333,-0.0847 0.169334,-0.0847 0.169333,-0.254 0.169333,-0.16933 0.254,-0.33867 0.169334,-0.33867 0.254,-0.33866 0.508,-0.93134 0.423333,-0.84666 0.169333,-0.33867 0.08467,-0.16933 0.08467,-0.0847 0.08467,-0.0847 0,0 0.08467,0 0,0.0847 0,0.16933 0,0.16934 0,0.508 -0.08467,1.10066 0,0.508 0.08467,0.42334 0.08467,0.33866 0.254,0.33867 0.169333,0.0847 0.254,0.16933 0.254,0.16933 0.338667,0.0847 0.254,0.0847 0.254,0 0.338666,-0.16934 0.254,-0.16933 0.254,-0.254 0.169334,-0.254 0.508,-0.67733 0.508,-0.762 0.423333,-0.84667 0.338667,-0.84667 0.169333,-0.33866 0.169333,-0.16934 0.08467,-0.0847 0,-0.0847 0.08467,0 0.08467,0.0847 0,0.0847 0.08467,0.16934 0,0.16933 0,0.254 0.08467,0.254 0,0.42333 0.08467,0.33867 0,0.508 0,0.42333 0.08467,0.508 0,1.10067 0,0.762 0.08467,0.762 -0.592667,0.762 -0.508,0.84667 -0.508,0.93133 -0.508,1.016 -0.423333,1.016 -0.254,1.016 -0.254,1.016 -0.08467,0.93133 -0.08467,0.84667 0,0.762 0.08467,0.59267 0.08467,0.59266 0.169333,0.42334 0.254,0.254 0.254,0.254 0.338667,0.0847 0.338666,0.0847 0.338667,0 0.338667,0.0847 0.338666,-0.0847 0.338667,-0.0847 0.254,-0.0847 0.338667,-0.33867 0.169333,-0.33867 0.254,-0.508 0.08467,-0.254 0.08467,-0.33866 0.08467,-0.33867 0,-0.42333 0.08467,-0.42334 0.08467,-0.508 0,-0.59266 0.08467,-0.67734 0,-0.762 0,-0.84666 0.08467,-1.016 0,-1.10067 0,-2.37067 0.677333,-0.93133 0.338667,-0.508 0.338666,-0.33867 0.254,-0.42333 0.254,-0.254 0.169334,-0.254 0.254,-0.254 0.254,-0.42333 0.169333,-0.33867 0.169333,-0.33867 0.08467,-0.254 0,-0.16933 0,-0.0847 -0.08467,0 -0.08467,0 -0.169334,0.0847 -0.169333,0.16933 -0.508,0.33867 -0.423333,0.42333 -0.508,0.42334 -0.338667,0.33866 -0.254,0.254 -0.254,0.254 -0.254,0.33867 -0.08467,-0.84667 -0.08467,-0.84666 0,-0.67734 -0.08467,-0.67733 -0.08467,-0.508 -0.08467,-0.33867 -0.08467,-0.33866 -0.169333,-0.254 -0.08467,-0.254 -0.169333,-0.16934 -0.169334,-0.0847 -0.169333,-0.0847 -0.254,-0.0847 -0.169333,0 -0.254,0 -0.169334,0.0847 -0.423333,0.16933 -0.423333,0.254 -0.254,0.42334 -0.338667,0.508 -0.254,0.508 -0.508,1.016 -0.254,0.42333 -0.254,0.42333 -0.169333,0.254 -0.254,0.254 -0.169334,0.0847 -0.169333,0 -0.08467,-0.0847 -0.08467,-0.254 -0.08467,-0.33866 0,-0.33867 0.08467,-0.508 0,-0.59267 0.08467,-1.10066 0,-0.508 0,-0.42334 -0.08467,-0.33866 -0.169334,-0.254 -0.169333,-0.0847 -0.254,0 -0.338667,0.0847 -0.254,0.0847 -0.169333,0.16934 -0.254,0.254 -0.169333,0.33866 -0.169334,0.16934 -0.08467,0.254 -0.338667,0.59266 -0.338667,0.67734 -0.338666,0.59266 -0.338667,0.67734 -0.169333,0.254 -0.08467,0.16933 -0.169333,0.254 -0.08467,0.0847 -0.08467,0.0847 -0.08467,0 0,-0.0847 -0.08467,-0.16934 0,-0.16933 0,-0.33867 0.08467,-0.33866 0,-0.42334 0.169333,-1.69333 0,-0.42333 0.08467,-0.33867 0,-0.33867 -0.08467,-0.254 0,-0.254 -0.08467,-0.254 -0.08467,-0.16933 -0.08467,-0.0847 -0.169333,-0.0847 -0.169334,-0.0847 -0.508,0 -0.423333,0.0847 -0.592667,0.0847 -0.423333,0.254 -0.254,0.0847 -0.254,0.16933 -0.338667,0.254 -0.338666,0.254 -0.423334,0.254 -0.508,0.42334"
         style="fill:#000000;fill-opacity:1;stroke:#000000;stroke-width:0.08466667px;stroke-linecap:round;stroke-linejoin:round;stroke-miterlimit:4;stroke-dasharray:none;stroke-opacity:1" />
      <path
         inkscape:connector-curvature="0"
         id="path3368"
         d="m 34.967333,133.858 0,0.67733 0,0.59267 0,0.508 0,0.42333 0,0.42334 0.169334,0.16933 0,0 0.08467,0 0.08467,-0.0847 0.169333,-0.0847 0.254,-0.254 0.423334,-0.508 0.254,-0.254 0.08467,-0.16934 0.254,-0.33866 0.169334,-0.254 0.169333,-0.254 0.08467,-0.254 0,-0.0847 -0.08467,-0.0847 -0.169333,-0.0847 -0.254,-0.0847 -0.423334,-0.16933 -0.254,-0.0847 -0.08467,-0.16933 -0.254,-0.254 -0.254,-0.254 -0.08467,-0.0847 -0.08467,0.0847 -0.08467,0.0847 -0.08467,0.254 0,0.254 -0.08467,0.33867"
         style="fill:#ffffff;fill-opacity:1;stroke:#000000;stroke-width:0.08466667px;stroke-linecap:round;stroke-linejoin:round;stroke-miterlimit:4;stroke-dasharray:none;stroke-opacity:1" />
      <path
         inkscape:connector-curvature="0"
         id="path3370"
         d="m 37.422667,129.96333 -0.169334,0.254 -0.08467,0.0847 -0.08467,0.16933 -0.08467,0.254 -0.08467,0.254 -0.254,0.508 -0.08467,0.59267 -0.08467,0.508 -0.08467,0.33867 0,0.16933 0.169333,0.0847 0.169333,0.0847 0.169334,0.0847 0.254,-0.0847 0.169333,0 0.254,-0.16933 0.08467,-0.0847 0.169333,-0.33866 0.08467,-0.42334 0.08467,-0.42333 0.08467,-0.42333 0,-0.508 0,-0.42334 0,-0.42333 -0.08467,-0.33867 -0.08467,-0.16933 -0.08467,0 -0.08467,0 -0.169333,0.0847 -0.169333,0.33866"
         style="fill:#ffffff;fill-opacity:1;stroke:#000000;stroke-width:0.08466667px;stroke-linecap:round;stroke-linejoin:round;stroke-miterlimit:4;stroke-dasharray:none;stroke-opacity:1" />
      <path
         inkscape:connector-curvature="0"
         id="path3372"
         d="m 52.408667,140.29267 0,2.87866 -0.08467,1.35467 0,0.59267 -0.08467,0.59266 -0.08467,0.59267 -0.08467,0.508 -0.169333,0.508 -0.08467,0.42333 -0.169333,0.33867 -0.08467,0.254 -0.169333,0.254 -0.08467,0.16933 -0.169333,0.16934 -0.08467,0 -0.08467,0.0847 -0.169333,0 -0.08467,-0.0847 -0.08467,-0.0847 -0.169334,-0.254 -0.08467,-0.42333 -0.08467,-0.42334 0,-0.59266 0,-0.508 0,-0.67734 0.08467,-0.67733 0.169333,-0.67733 0.169333,-0.762 0.169334,-0.67734 0.254,-0.67733 0.423333,-0.84667 0.254,-0.42333 0.254,-0.42333 0.169333,-0.254 0.169334,-0.254"
         style="fill:#ffffff;fill-opacity:1;stroke:#000000;stroke-width:0.08466667px;stroke-linecap:round;stroke-linejoin:round;stroke-miterlimit:4;stroke-dasharray:none;stroke-opacity:1" />
      <path
         inkscape:connector-curvature="0"
         id="path3356"
         d="m 106.51067,140.37733 0.0847,0.93134 0,0.93133 -0.0847,1.10067 -0.0847,1.016 -0.16933,1.016 -0.254,0.93133 -0.254,0.762 -0.254,0.762 -0.16934,0.254 -0.0847,0.33867 -0.16934,0.16933 -0.16933,0.254 -0.0847,0.16933 -0.0847,0.0847 -0.16934,0.16933 -0.16933,0 -0.16933,0 -0.254,-0.16933 -0.0847,-0.0847 -0.0847,-0.16933 0,-0.16933 0,-0.254 0,-0.42334 0.0847,-0.42333 0.0847,-0.59267 0.0847,-0.67733 0.16934,-0.67733 0.16933,-0.762 0.254,-0.67734 0.254,-0.762 0.33867,-0.67733 0.42333,-0.762 0.42333,-0.84667 0.42334,-0.762"
         style="fill:#ffffff;fill-opacity:1;stroke:#000000;stroke-width:0.08466667px;stroke-linecap:round;stroke-linejoin:round;stroke-miterlimit:4;stroke-dasharray:none;stroke-opacity:1" />
      <path
         inkscape:connector-curvature="0"
         id="path3362"
         d="m 85.005333,132.24933 -0.254,-0.33866 -0.254,-0.254 -0.169333,-0.16934 -0.254,-0.0847 0,0 -0.08467,0.0847 -0.08467,0.0847 -0.08467,0.0847 -0.169333,0.254 -0.169334,0.254 -0.254,0.254 -0.169333,0.42333 -0.338667,0.59267 -0.254,0.59266 -0.508,1.27 -0.169333,0.59267 -0.169333,0.67733 -0.08467,0.508 -0.08467,0.508 0,0.42334 0,0.254 0,0.254 0,0.254 0.08467,0.16933 0,0.0847 0.08467,0.0847 0.08467,0 0.169334,-0.16933 0.254,-0.254 0.423333,-0.67733 0.508,-0.67734 0.423333,-0.67733 0.423334,-0.67733 0.423333,-0.59267 0.338667,-0.59267 0.254,-0.508 0.169333,-0.42333 0.169333,-0.33867 0.254,-0.254 0,-0.16933 0,-0.16933 -0.08467,-0.16934 -0.08467,-0.16933 -0.338667,-0.33867"
         style="fill:#ffffff;fill-opacity:1;stroke:#000000;stroke-width:0.08466667px;stroke-linecap:round;stroke-linejoin:round;stroke-miterlimit:4;stroke-dasharray:none;stroke-opacity:1" />
      <path
         inkscape:connector-curvature="0"
         id="path3364"
         d="m 71.797333,126.32267 0,0.16933 -0.08467,0.254 0,0.508 0,0.67733 -0.08467,0.59267 -0.08467,0.762 -0.169333,0.67733 -0.338667,1.35467 -0.169333,1.35467 -0.08467,0.762 -0.08467,0.762 -0.08467,0.84666 -0.08467,0.93134 0,0.93133 -0.08467,0.84667 0,0.762 0,0.762 0,0.59266 -0.08467,0.508 0,0.42334 0,0.16933 0,0.0847 0,0.16933 0.08467,0 0.08467,0.0847 0.08467,-0.0847 0.08467,-0.0847 0.169333,-0.0847 0.338667,-0.254 0.846666,-0.84667 0.846667,-0.67733 0.423333,-0.42334 0.508,-0.508 0.508,-0.67733 0.592667,-0.762 0.508,-0.762 0.592667,-0.84667 0.423333,-0.762 0.423333,-0.84666 0.338667,-0.84667 0.254,-0.762 0.169333,-0.84667 0.08467,-0.84666 0,-0.762 -0.08467,-0.762 L 77.47,128.27 77.300667,127.67733 76.962,127.254 l -0.423333,-0.42333 -0.508,-0.33867 -0.592667,-0.254 -0.592667,-0.16933 -0.508,-0.16934 -0.508,-0.0847 -0.423333,-0.0847 -0.423333,0 -0.338667,-0.0847 -0.169333,0 -0.254,0 -0.08467,0.0847 -0.169333,0 -0.08467,0.0847 0,0.0847 -0.08467,0.16934 0,0.0847 0,0.16934"
         style="fill:#ffffff;fill-opacity:1;stroke:#000000;stroke-width:0.08466667px;stroke-linecap:round;stroke-linejoin:round;stroke-miterlimit:4;stroke-dasharray:none;stroke-opacity:1" />
    </g>
  </g>
</svg>
