<?xml version="1.0" encoding="UTF-8" standalone="no"?>
<!-- Created with Inkscape (http://www.inkscape.org/) -->

<svg
   xmlns:dc="http://purl.org/dc/elements/1.1/"
   xmlns:cc="http://creativecommons.org/ns#"
   xmlns:rdf="http://www.w3.org/1999/02/22-rdf-syntax-ns#"
   xmlns:svg="http://www.w3.org/2000/svg"
   xmlns="http://www.w3.org/2000/svg"
   xmlns:sodipodi="http://sodipodi.sourceforge.net/DTD/sodipodi-0.dtd"
   xmlns:inkscape="http://www.inkscape.org/namespaces/inkscape"
   width="288"
   height="75.178001"
   id="svg3344"
   version="1.1"
   inkscape:version="0.91 r13725"
   sodipodi:docname="press-stevenalan.svg">
  <metadata
     id="metadata10">
    <rdf:RDF>
      <cc:Work
         rdf:about="">
        <dc:format>image/svg+xml</dc:format>
        <dc:type
           rdf:resource="http://purl.org/dc/dcmitype/StillImage" />
        <dc:title></dc:title>
      </cc:Work>
    </rdf:RDF>
  </metadata>
  <defs
     id="defs8" />
  <sodipodi:namedview
     pagecolor="#ffffff"
     bordercolor="#666666"
     borderopacity="1"
     objecttolerance="10"
     gridtolerance="10"
     guidetolerance="10"
     inkscape:pageopacity="0"
     inkscape:pageshadow="2"
     inkscape:window-width="1577"
     inkscape:window-height="1135"
     id="namedview6"
     showgrid="false"
     fit-margin-top="0"
     fit-margin-left="0"
     fit-margin-right="0"
     fit-margin-bottom="0"
     inkscape:zoom="2.2208589"
     inkscape:cx="80.434368"
     inkscape:cy="52.843883"
     inkscape:window-x="0"
     inkscape:window-y="0"
     inkscape:window-maximized="0"
     inkscape:current-layer="layer1" />
  <g
     inkscape:label="Vrstva 1"
     inkscape:groupmode="layer"
     id="layer1"
     transform="translate(-1.0656324,-1.1658825)">
    <path
       inkscape:connector-curvature="0"
       id="path4220"
       d="m 1.0656324,34.321883 c 1.44,-3.095 3.7489999,-5.398 7.2479999,-4.922 2.9789997,0.405 5.6919997,0.796 8.2849997,-1.052 0.184,-0.131 0.59,0.05 1.444,0.151 -0.655,1.133 -0.955,2.312 -1.706,2.809 -1.407,0.93 -3.048,1.54 -4.645,2.139 -1.31,0.491 -2.7439997,0.659 -4.0419997,1.174 -2.81,1.115 -3.101,3.366 -0.685,5.203 2.451,1.864 5.0899997,3.499 7.4219997,5.496 1.859,1.592 3.457,3.516 5.021,5.416 0.9,1.094 1.899,1.294 2.508,0.009 1.143,-2.415 2.12,-4.91 3.115,-7.393 0.569,-1.419 1.126,-2.854 1.531,-4.324 1.171,-4.244 2.614,-8.456 3.285,-12.783 0.672,-4.337 0.547,-8.799 0.756,-13.207 0.018,-0.38 -0.108,-0.766 -0.109,-1.149 -0.005,-1.404 -0.239,-3.2950005 1.356,-3.5630005 0.724,-0.122 2.221,1.651 2.631,2.8220005 1.874,5.346 1.621,10.81 0.121,16.204 -0.395,1.421 -0.017,1.86 1.299,2.049 1.138,0.164 2.274,0.426 3.371,0.771 1.947,0.612 3.813,0.84 5.824,0.066 1.057,-0.407 2.799,-1.203 3.242,0.65 0.422,1.766 -1.492,2.05 -2.575,2.143 -3.314,0.285 -6.66,0.385 -9.984,0.279 -2.217,-0.071 -3.239,0.269 -3.538,2.456 -0.501,3.663 -1.281,7.405 -0.962,11.027 0.296,3.352 1.581,6.723 2.982,9.839 1.319,2.934 4.384,3.412 6.639,1.049 1.953,-2.046 3.527,-4.55 4.865,-7.066 2.01,-3.776 3.383,-7.909 5.564,-11.571 1.774,-2.978 4.804,-4.739 8.364,-3.709 2.229,0.645 4.399,1.641 6.427,2.78 1.294,0.727 1.402,2.108 0.318,3.297 -1.075,1.179 -1.887,0.349 -2.768,-0.388 -2.231,-1.867 -4.881,-2.293 -7.613,-1.691 -0.841,0.185 -1.493,1.224 -2.232,1.873 0.604,0.595 1.106,1.426 1.832,1.738 1.756,0.755 3.628,1.235 5.427,1.898 0.6,0.221 1.121,0.658 1.679,0.996 -0.424,0.592 -0.727,1.514 -1.292,1.722 -4.015,1.475 -5.478,4.725 -6.258,8.531 -0.396,1.931 0.473,4.217 1.977,5.04 1.683,0.921 3.01,0.666 4.814,-1.115 5.426,-5.355 10.026,-11.313 13.209,-18.296 0.369,-0.809 0.79,-1.686 1.433,-2.25 0.594,-0.52 1.519,-0.662 2.299,-0.971 0.223,0.791 0.711,1.616 0.615,2.367 -0.232,1.831 -0.898,3.611 -1.097,5.443 -0.537,4.964 1.574,9.407 3.013,13.969 0.326,1.034 0.763,2.053 1.296,2.996 0.847,1.497 1.998,1.68 3.308,0.581 3.852,-3.235 4.8,-7.64 4.599,-12.329 -0.116,-2.719 -0.809,-5.411 -1.176,-8.124 -0.078,-0.575 0.058,-1.673 0.23,-1.701 0.74,-0.121 1.68,-0.176 2.276,0.189 1.806,1.106 3.446,2.595 5.787,2.068 0.694,-0.156 1.475,-0.472 1.949,-0.97 2.741998,-2.878 5.467998,-3.652 9.044998,-2.175 2.008,0.829 3.901,1.941 5.823,2.967 0.442,0.236 0.994,0.574 1.141,0.991 0.282,0.801 0.709,1.955 0.358,2.487 -0.67,1.011 -1.738,0.929 -2.801,0.047 -2.626,-2.18 -5.557,-3.455 -9.03,-2.192 -0.545,0.198 -1.329,0.703 -1.361,1.116 -0.044,0.569 0.373,1.499 0.852,1.727 1.817,0.861 3.731,1.52 5.626,2.209 0.533,0.194 1.148,0.163 1.679,0.362 1.162,0.435 1.408,1.092 0.3,1.913 -0.36,0.267 -0.718,0.552 -1.115,0.754 -3.405,1.737 -4.06,5.232 -5.232,8.343 -0.505,1.339 -0.116,2.779 1.318,3.456 1.661,0.785 3.344,0.315 4.621,-0.818 1.233,-1.095 2.392,-2.4 3.196,-3.83 3.26,-5.798 6.378,-11.672 8.011,-18.2 0.18,-0.718 0.788,-1.871 1.196,-1.871 0.757,0.001 1.908,0.525 2.192,1.151 0.728,1.602 1.143,3.363 1.546,5.092 0.363,1.559 0.462,3.18 0.83,4.738 0.342,1.451 1.2,1.666 2.122,0.509 0.663,-0.832 1.17,-1.841 1.535,-2.847 0.896,-2.471 1.67,-4.986 2.492,-7.483 0.59,-1.793 1.728,-3.075 3.658,-3.249 1.971,-0.178 2.98,1.321 3.386,2.863 0.992,3.765 1.758,7.594 2.512,11.417 0.347,1.757 0.346,3.584 0.696,5.34 0.413,2.074 1.306,2.49 2.855,1.145 1.462,-1.269 2.736,-2.834 3.802,-4.46 1.296,-1.977 2.26,-4.17 3.438,-6.23 0.204,-0.357 0.965,-0.81 1.111,-0.708 0.399,0.28 0.876,0.857 0.838,1.271 -0.092,0.994 -0.329,2.023 -0.742,2.931 -1.45,3.188 -2.955,6.352 -4.523,9.483 -1.148,2.292 -2.374,4.549 -3.687,6.75 -0.303,0.507 -1.172,1.075 -1.652,0.978 -0.611,-0.124 -1.317,-0.794 -1.592,-1.404 -2.414,-5.364 -3.35,-11.126 -4.504,-16.84 -0.295,-1.459 -1.364,-2.762 -2.077,-4.137 -1.035,1.122 -2.523,2.073 -3.026,3.397 -2.135,5.624 -3.932,11.376 -5.968,17.04 -0.398,1.106 -1.518,2.963 -1.946,2.867 -1.603,-0.358 -1.266,-2.029 -1.338,-3.348 -0.266,-4.925 -0.531,-9.851 -0.884,-14.77 -0.043,-0.598 -0.624,-1.157 -0.956,-1.734 -0.521,0.421 -1.215,0.742 -1.529,1.284 -0.8,1.382 -1.414,2.87 -2.133,4.301 -1.316,2.618 -2.378,5.423 -4.06,7.783 -1.834,2.574 -4.104,4.899 -6.473,7.007 -1.431,1.274 -4.461,0.362 -5.797,-1.552 -1.562,-2.24 -2.665,-4.69 -1.824,-7.574 0.553,-1.898 1.13,-3.799 1.501,-5.737 0.16,-0.84 0.045,-1.881 -0.329,-2.642 -0.733,-1.489 -1.769,-2.825 -2.617,-4.262 -0.880998,-1.493 -2.201998,-1.84 -3.789998,-1.633 -1.637,0.213 -1.991,1.368 -2.067,2.76 -0.43,7.83 -3.719,14.747 -7.068,21.61 -1.576,3.229 -3.482,3.406 -5.295,0.281 -3.119,-5.377 -5.709,-11.041 -6.497,-17.334 -0.088,-0.701 -0.143,-1.42 -0.352,-2.086 -0.154,-0.49 -0.48,-1.211 -0.832,-1.278 -0.391,-0.073 -1.045,0.376 -1.335,0.778 -2.623,3.639 -5.175,7.328 -7.785,10.976 -0.819,1.145 -1.783,2.184 -2.623,3.315 -1.311,1.765 -3.091,2.014 -5,1.462 -5.662,-1.639 -7.493,-5.498 -6.163,-11.162 0.718,-3.057 2.415,-5.884 3.831,-9.188 -0.667,-0.48 -1.621,-1.308 -2.702,-1.906 -1.261,-0.697 -1.919,0.212 -2.313,1.245 -0.799,2.097 -1.36,4.301 -2.323,6.316 -1.866,3.904 -3.928,7.716 -5.946,11.546 -0.385,0.73 -0.969,1.351 -1.417,2.051 -1.395,2.185 -3.151,2.515 -5.127,0.788 -2.62,-2.29 -3.701,-5.471 -4.759,-8.649 -0.769,-2.309 -1.524,-4.625 -2.382,-6.901 -0.596,-1.581 -1.413,-1.708 -2.491,-0.398 -0.687,0.834 -1.153,1.846 -1.778,2.736 -1.95,2.779 -3.749,5.69 -5.939,8.268 -3.393,3.995 -10.6239997,4.48 -14.7789996,1.261 -1.017,-0.788 -1.554,-1.773 -1.023,-3.017 0.506,-1.186 1.4959999,-1.817 2.7969999,-1.49 1.228,0.308 2.435,0.746 3.604,1.239 2.9339997,1.236 4.6859997,0.522 5.5389997,-2.561 0.94,-3.399 0.639,-6.677 -1.943,-9.334 -1.468,-1.511 -3.1139997,-2.864 -4.7739997,-4.168 -2.753,-2.162 -5.2709999,-4.48 -6.4259999,-7.923 -0.005,-0.641 -0.005,-1.283 -0.005,-1.926 z" />
    <path
       inkscape:connector-curvature="0"
       id="path4222"
       d="m 205.78863,1.1658825 c 3.598,4.665 6.138,9.7140005 5.785,15.8260005 -0.052,0.897 -0.099,1.803 -0.03,2.696 0.395,5.118 -0.874,9.936 -2.773,14.593 -1.906,4.677 -4.12,9.23 -5.978,13.925 -0.56,1.416 -0.824,3.235 -0.461,4.677 1.183,4.704 2.638,9.346 4.153,13.957 0.659,2.006 2.873,2.195 4.469,0.333 1.792,-2.09 3.369,-4.369 4.986,-6.604 2.816,-3.892 3.923,-8.233 3.684,-13.045 -0.206,-4.161 1.65,-6.189 6.748,-8.099 5.486,-2.055 11.086,-1.766 16.66,-0.595 0.958,0.201 2.403,1.493 2.371,2.227 -0.052,1.205 -1.107,2.379 -1.779,3.543 -0.473,0.819 -1.397,1.572 -1.455,2.402 -0.224,3.186 -0.436,6.415 -0.149,9.582 0.2,2.21 1.088,4.398 1.922,6.495 0.456,1.146 1.523,1.04 2.334,0.141 2.046,-2.266 3.572,-4.81 4.315,-7.818 1.059,-4.286 2.18,-8.558 3.337,-12.818 0.408,-1.5 1.585,-1.777 2.524,-0.539 0.676,0.891 0.877,2.134 1.516,3.066 0.684,0.997 1.505,2.076 2.531,2.569 0.376,0.181 1.65,-1.105 2.268,-1.911 1.209,-1.576 2.244,-3.284 3.351,-4.938 2.113,-3.158 6.355,-3.054 7.633,0.512 1.257,3.507 1.644,7.323 2.444,10.997 0.216,0.992 0.248,2.453 0.883,2.834 1.252,0.75 2.421,-0.214 3.256,-1.285 2.897,-3.718 5.341,-7.684 6.562,-12.296 0.32,-1.209 0.873,-1.862 2.17,-1.104 0,0.643 0,1.285 0,1.928 -0.239,0.356 -0.582,0.68 -0.701,1.072 -2.238,7.379 -6.369,13.813 -10.234,20.367 -0.563,0.955 -1.777,1.527 -2.69,2.277 -0.516,-0.906 -1.312,-1.758 -1.498,-2.727 -0.673,-3.519 -1.036,-7.098 -1.726,-10.613 -0.439,-2.24 -1.09,-4.472 -1.96,-6.578 -0.43,-1.04 -1.811,-2 -2.719,-0.51 -1.617,2.652 -3.423,5.374 -4.183,8.317 -0.935,3.618 -0.843,7.495 -1.269,11.252 -0.174,1.54 -0.235,3.218 -2.514,4.293 -0.326,-1.81 -0.673,-3.38 -0.883,-4.967 -0.545,-4.124 -0.999,-8.26 -1.559,-12.381 -0.154,-1.13 -0.6,-2.187 -2.117,-2.567 -0.557,1.639 -1.082,3.135 -1.576,4.642 -1.096,3.342 -2.12,6.709 -3.297,10.022 -0.357,1.004 -0.915,2.169 -1.741,2.721 -1.362,0.911 -2.997,1.785 -4.558,1.863 -0.713,0.035 -1.745,-1.766 -2.237,-2.905 -0.754,-1.747 -1.144,-3.648 -1.736,-5.469 -0.195,-0.601 -0.459,-1.209 -0.824,-1.718 -0.631,-0.879 -1.346,-0.883 -2.013,0.024 -2.125,2.89 -4.226,5.798 -6.402,8.649 -0.614,0.805 -1.395,1.511 -2.199,2.134 -1.215,0.942 -2.372,0.941 -3.172,-0.585 -1.337,-2.553 -2.659,-5.113 -3.983,-7.673 -0.359,-0.694 -0.7,-1.398 -1.298,-2.595 -3.254,6.409 -5.667,12.681 -10.334,17.582 -0.386,0 -0.771,0 -1.157,0 -0.722,-0.8 -1.674,-1.488 -2.126,-2.418 -1.813,-3.736 -3.526,-7.524 -5.157,-11.343 -0.572,-1.34 -0.754,-2.841 -1.211,-4.237 -0.159,-0.486 -0.533,-1.023 -0.961,-1.246 -0.197,-0.102 -0.927,0.41 -1.126,0.793 -0.796,1.532 -1.387,3.175 -2.226,4.681 -1.316,2.365 -2.771,4.652 -4.167,6.973 -0.299,-0.04 -0.598,-0.081 -0.897,-0.121 -0.5,-1.178 -1.138,-2.319 -1.473,-3.543 -0.795,-2.903 -1.386,-5.863 -2.197,-8.762 -0.213,-0.76 -0.931,-1.378 -1.417,-2.061 -0.583,0.636 -1.478,1.179 -1.696,1.922 -1.163,3.961 -3.159,7.416 -5.848,10.512 -2.271,2.615 -3.97,2.369 -5.896,-0.488 -3.141,-4.661 -4.888,-9.705 -4.705,-15.326 0.119,-3.646 0.35,-7.298 0.799,-10.914 0.105,-0.843 1.175,-2.008 2.017,-2.241 4.075,-1.126 8.183,-2.411 12.358,-2.808 3.694,-0.351 6.884,1.724 9.466,4.387 0.382,0.394 0.268,1.268 0.384,1.921 -0.57,-0.045 -1.16,-0.009 -1.705,-0.15 -1.453,-0.378 -2.191,0.52 -2.268,1.632 -0.149,2.156 -0.156,4.357 0.107,6.499 0.304,2.474 0.846,4.937 1.525,7.336 0.26,0.92 1.081,2.179 1.83,2.322 0.748,0.143 2.065,-0.706 2.548,-1.483 2.732,-4.391 4.553,-8.871 3.822,-14.431 -1,-7.609 -1.516,-15.346 -0.181,-23.018 1.032,-5.927 1.893,-11.9120005 4.527,-17.4250005 0.355,-0.743 0.827,-1.429 1.245,-2.141 0.647,0 1.289,0 1.932,0 z m -34.772,49.1260005 c 0.263,2.22 0.473,4.519 0.825,6.796 0.298,1.924 1.339,3.018 3.48,3.114 1.932,0.087 3.106,-0.651 4.035,-2.277 2.638,-4.618 4.178,-9.63 5.338,-14.762 0.179,-0.792 -0.266,-2.061 -0.872,-2.637 -2.504,-2.38 -9.517,-1.331 -11.419,1.588 -0.24,0.369 -0.468,0.798 -0.527,1.224 -0.313,2.285 -0.572,4.578 -0.86,6.954 z m 52.115,1.178 c 0.117,1.827 0.079,3.196 0.321,4.513 0.332,1.813 0.733,3.64 1.372,5.362 0.563,1.516 1.742,2.278 3.342,1.18 1.349,-0.926 2.823,-1.773 3.899,-2.964 1.275,-1.412 2.289,-3.096 3.226,-4.769 1.829,-3.268 2.136,-6.723 0.406,-10.101 -0.444,-0.866 -1.593,-1.598 -2.57,-1.899 -0.984,-0.303 -2.162,-0.045 -3.245,0.061 -4.802,0.469 -6.783,2.648 -6.751,7.367 0.003,0.576 0,1.154 0,1.25 z m -21.102,-11.478 c 0.197,10e-4 0.394,0.002 0.591,0.003 0.171,-0.327 0.412,-0.635 0.501,-0.983 0.944,-3.692 2.245,-7.344 2.694,-11.098 0.589,-4.929 0.519,-9.938 0.685,-14.914 0.023,-0.689 -0.099,-1.447 -0.39,-2.06 -0.207,-0.436 -0.802,-0.927 -1.241,-0.9440005 -0.418,-0.016 -1.081,0.4640005 -1.245,0.8800005 -0.442,1.123 -0.83,2.31 -0.967,3.503 -0.716,6.22 -1.727,12.427 -1.262,18.725 0.17,2.299 0.42,4.592 0.634,6.888 z" />
  </g>
</svg>
