<?xml version="1.0" encoding="UTF-8" standalone="no"?>
<!-- Created with Inkscape (http://www.inkscape.org/) -->

<svg
   xmlns:dc="http://purl.org/dc/elements/1.1/"
   xmlns:cc="http://creativecommons.org/ns#"
   xmlns:rdf="http://www.w3.org/1999/02/22-rdf-syntax-ns#"
   xmlns:svg="http://www.w3.org/2000/svg"
   xmlns="http://www.w3.org/2000/svg"
   xmlns:sodipodi="http://sodipodi.sourceforge.net/DTD/sodipodi-0.dtd"
   xmlns:inkscape="http://www.inkscape.org/namespaces/inkscape"
   width="120.2091mm"
   height="40.496841mm"
   viewBox="0 0 425.93775 143.49274"
   id="svg2"
   version="1.1"
   inkscape:version="0.91 r13725"
   sodipodi:docname="press-5resolutions.svg">
  <defs
     id="defs4" />
  <sodipodi:namedview
     id="base"
     pagecolor="#ffffff"
     bordercolor="#666666"
     borderopacity="1.0"
     inkscape:pageopacity="0.0"
     inkscape:pageshadow="2"
     inkscape:zoom="0.98994949"
     inkscape:cx="69.81866"
     inkscape:cy="155.06883"
     inkscape:document-units="px"
     inkscape:current-layer="layer1"
     showgrid="false"
     fit-margin-top="0"
     fit-margin-left="0"
     fit-margin-right="0"
     fit-margin-bottom="0"
     inkscape:window-width="1680"
     inkscape:window-height="987"
     inkscape:window-x="-8"
     inkscape:window-y="-8"
     inkscape:window-maximized="1" />
  <metadata
     id="metadata7">
    <rdf:RDF>
      <cc:Work
         rdf:about="">
        <dc:format>image/svg+xml</dc:format>
        <dc:type
           rdf:resource="http://purl.org/dc/dcmitype/StillImage" />
        <dc:title></dc:title>
      </cc:Work>
    </rdf:RDF>
  </metadata>
  <g
     inkscape:label="Vrstva 1"
     inkscape:groupmode="layer"
     id="layer1"
     transform="translate(-117.25714,-410.87303)">
    <g
       transform="matrix(0.9375,0,0,0.9375,-134.14286,-50.584237)"
       inkscape:label="5res"
       id="g4144"
       style="fill:#000000;fill-opacity:1;stroke:none">
      <g
         transform="translate(277.28,603.52002)"
         id="g4146"
         style="fill:#000000;fill-opacity:1;stroke:none">
        <path
           inkscape:connector-curvature="0"
           id="path4148"
           style="fill:#000000;fill-opacity:1;stroke:none;stroke-width:0.5;stroke-linecap:round;stroke-linejoin:round;stroke-miterlimit:10;stroke-dasharray:none;stroke-opacity:1"
           d="m 0,0 -9.12,0 0.32,1.76 0.32,1.92 0.48,1.92 0.64,1.76 0.64,1.92 0.64,1.92 0.8,1.76 0.8,1.92 0.96,1.759999 1.12,1.760001 1.12,1.76 1.12,1.76 1.28,1.6 1.44,1.600001 1.28,1.599998 1.6,1.440001 1.44,1.44 1.6,1.279999 1.76,1.280001 1.6,1.279999 1.76,1.120002 1.76,0.959999 1.920001,0.96 1.76,0.959999 1.919998,0.800003 1.76,0.639999 1.92,0.639999 1.92,0.64 1.920001,0.479999 1.92,0.32 1.76,0.32 1.920002,0.16 L 36,41.599998 l 1.919998,0.16 1.920002,0 1.919998,0 1.920002,-0.16 2.079998,-0.319999 1.920002,-0.16 2.079998,-0.48 L 51.68,40.16 53.599998,39.68 55.68,39.040001 57.599998,38.240002 59.52,37.439999 61.279999,36.48 63.200001,35.52 64.959999,34.400002 66.720001,33.279999 68.480003,32.16 70.080002,30.879999 71.68,29.440001 73.279999,28 74.720001,26.559999 76,25.120001 77.440002,23.52 l 1.119996,-1.6 1.279998,-1.6 0.960007,-1.760001 1.119995,-1.6 L 82.720001,15.2 83.68,13.44 l 0.64,-1.76 0.800003,-1.76 0.639999,-1.76 0.479996,-1.92 0.480003,-1.76 0.479996,-1.92 0.32,-1.92 0.319999,-2.08 L 88,-3.36 l 0.160004,-2.08 0,-1.92 L 88,-9.44 l 0,-2.08 -0.32,-2.08 -0.319999,-2.08 -0.32,-2.08 -0.639999,-1.92 -0.480004,-2.08 -0.639999,-1.92 -0.799996,-2.08 -0.800003,-1.92 -0.959999,-1.760001 -0.959999,-1.92 -1.120003,-1.759998 -1.120002,-1.600002 L 78.400002,-36.48 77.120003,-38.080002 75.839996,-39.52 72.959999,-42.400002 70.080002,-44.959999 67.040001,-47.200001 65.440002,-48.32 63.84,-49.279999 62.240002,-50.240002 60.48,-51.200001 58.720001,-52 l -1.920002,-0.639999 -1.919998,-0.8 -1.920002,-0.479999 -1.919998,-0.640003 -2.080002,-0.48 -1.919998,-0.32 -2.080002,-0.319999 -2.079998,-0.16 -2.080002,-0.16 -2.079998,0 -2.080002,0.16 -2.079998,0.16 -2.080001,0.16 -2.08,0.319999 -2.08,0.48 -2.08,0.479999 -1.92,0.640004 -1.92,0.639999 -1.92,0.799999 -1.920001,0.799999 -1.76,0.8 -1.759999,0.960003 -1.6,1.119998 -1.76,0.96 -1.44,1.119998 L 7.2,-44 l 7.84,-55.839996 66.559998,0 0,-8.960004 -74.399998,0 -11.04,78.56 8,4.32 1.6,-2.879999 1.92,-2.720001 2.24,-2.560002 2.56,-2.559997 1.28,-1.119999 1.44,-1.120003 L 16.639999,-40 18.08,-40.959999 l 1.6,-0.959999 1.600001,-0.800003 1.599998,-0.799999 1.76,-0.64 1.760001,-0.639999 1.6,-0.64 1.76,-0.479999 1.92,-0.320004 1.759999,-0.319999 1.760002,-0.16 1.759998,-0.16 1.760002,-0.16 1.759999,0 1.760002,0.16 1.759998,0.16 1.599998,0.319999 1.760003,0.16 1.599998,0.480004 1.600002,0.319999 1.439999,0.48 1.599998,0.639999 1.440003,0.64 1.599998,0.639999 1.440003,0.799999 1.599998,0.800003 1.439999,0.959999 1.440002,0.96 1.279999,1.119998 1.439999,1.120003 1.279999,1.119999 2.560005,2.560002 1.119995,1.439998 1.120003,1.440001 1.120002,1.439998 0.959999,1.600001 0.96,1.6 0.799995,1.6 0.800003,1.600001 0.639999,1.759998 0.64,1.600001 0.480003,1.76 0.32,1.76 0.479996,1.76 0.160003,1.76 0.32,1.6 0.159996,1.76 0,1.76 0,1.6 -0.159996,1.76 -0.160004,1.6 -0.159996,1.6 -0.319999,1.6 -0.32,1.6 -0.480004,1.6 -0.479995,1.6 -0.64,1.6 -0.640007,1.6 -0.639999,1.6 -0.799995,1.6 -0.96,1.44 -0.959999,1.6 -0.960006,1.44 -1.119995,1.44 -1.279999,1.440001 L 68,20.639999 66.720001,21.92 65.279999,23.200001 63.84,24.32 62.400002,25.440001 60.959999,26.4 59.360001,27.360001 57.759998,28.32 56.16,29.120001 54.560001,29.76 52.959999,30.4 51.200001,31.040001 49.599998,31.52 47.84,31.84 46.240002,32.16 44.48,32.48 l -1.599999,0.159999 -1.600002,0.16 -1.599999,0 -1.599998,0 L 36.32,32.639999 34.720001,32.48 32.959999,32.32 31.360001,32 29.6,31.68 28,31.200001 26.24,30.719999 24.639999,30.08 l -1.599998,-0.799999 -1.6,-0.640002 L 19.84,27.68 18.24,26.879999 16.639999,25.76 15.2,24.799999 13.76,23.68 12.48,22.4 11.04,21.120001 9.76,19.84 8.64,18.559999 7.52,17.120001 6.4,15.68 5.44,14.08 4.64,12.64 3.68,11.04 3.04,9.44 2.24,7.84 1.76,6.4 1.12,4.8 0.64,3.2 0.32,1.6 0,0" />
      </g>
    </g>
    <g
       transform="scale(0.99158845,1.0084829)"
       style="font-style:normal;font-weight:normal;font-size:40.84875488px;line-height:125%;font-family:sans-serif;letter-spacing:0px;word-spacing:0px;fill:#000000;fill-opacity:1;stroke:none;stroke-width:1px;stroke-linecap:butt;stroke-linejoin:miter;stroke-opacity:1"
       id="text4153">
      <path
         d="m 242.48424,430.15503 -3.84453,0 -7.44971,-8.85588 -4.17364,0 0,8.85588 -2.96193,0 0,-22.27434 6.23801,0 q 2.0195,0 3.36583,0.26927 1.34634,0.2543 2.4234,0.92747 1.2117,0.76292 1.88487,1.92975 0.68813,1.15186 0.68813,2.93201 0,2.40844 -1.2117,4.039 -1.2117,1.6156 -3.33592,2.43836 l 8.37719,9.73848 z m -6.92614,-16.00641 q 0,-0.95739 -0.34406,-1.6904 -0.32911,-0.74796 -1.10699,-1.25657 -0.64325,-0.43382 -1.52584,-0.59837 -0.8826,-0.17952 -2.07934,-0.17952 l -3.48551,0 0,8.40711 2.99185,0 q 1.40617,0 2.45332,-0.23935 1.04715,-0.25431 1.78016,-0.92747 0.67316,-0.62829 0.98731,-1.43609 0.3291,-0.82276 0.3291,-2.07934 z"
         style="font-size:30.63656616px;line-height:125%;letter-spacing:10.28999996px;word-spacing:-0.01px;fill:#000000;fill-opacity:1"
         id="path4269" />
      <path
         d="m 270.32145,430.15503 -14.67503,0 0,-22.27434 14.67503,0 0,2.63283 -11.7131,0 0,6.10338 11.7131,0 0,2.63283 -11.7131,0 0,8.27247 11.7131,0 0,2.63283 z"
         style="font-size:30.63656616px;line-height:125%;letter-spacing:10.28999996px;word-spacing:-0.01px;fill:#000000;fill-opacity:1"
         id="path4271" />
      <path
         d="m 301.50954,423.79734 q 0,1.30146 -0.61333,2.573 -0.59837,1.27153 -1.6904,2.15413 -1.19674,0.95739 -2.79738,1.49593 -1.58568,0.53853 -3.82957,0.53853 -2.40844,0 -4.33819,-0.44878 -1.91478,-0.44878 -3.90436,-1.33137 l 0,-3.7099 0.20942,0 q 1.6904,1.40617 3.90437,2.16909 2.21397,0.76293 4.15868,0.76293 2.7525,0 4.27835,-1.03219 1.5408,-1.03219 1.5408,-2.75251 0,-1.48096 -0.733,-2.18405 -0.71805,-0.70308 -2.19902,-1.09203 -1.12194,-0.29918 -2.43836,-0.49365 -1.30145,-0.19447 -2.76746,-0.49366 -2.96193,-0.62829 -4.39802,-2.13917 -1.42113,-1.52585 -1.42113,-3.9642 0,-2.79739 2.36356,-4.57754 2.36356,-1.79511 5.99867,-1.79511 2.3486,0 4.30826,0.44878 1.95967,0.44878 3.47055,1.10698 l 0,3.50047 -0.20943,0 q -1.27154,-1.07707 -3.35087,-1.78015 -2.06438,-0.71805 -4.23347,-0.71805 -2.37853,0 -3.82957,0.98731 -1.43609,0.98732 -1.43609,2.54308 0,1.39121 0.71804,2.18405 0.71805,0.79284 2.52812,1.2117 0.95739,0.20943 2.72258,0.50862 1.76519,0.29918 2.99185,0.61333 2.48324,0.6582 3.73982,1.98958 1.25658,1.33137 1.25658,3.72485 z"
         style="font-size:30.63656616px;line-height:125%;letter-spacing:10.28999996px;word-spacing:-0.01px;fill:#000000;fill-opacity:1"
         id="path4273" />
      <path
         d="m 333.16136,410.43872 q 1.36129,1.49593 2.07934,3.66502 0.733,2.1691 0.733,4.9216 0,2.7525 -0.74796,4.93656 -0.73301,2.16909 -2.06438,3.62014 -1.37625,1.51088 -3.26112,2.2738 -1.86991,0.76293 -4.27835,0.76293 -2.3486,0 -4.27835,-0.77789 -1.91478,-0.77788 -3.26112,-2.25884 -1.34633,-1.48097 -2.07933,-3.6351 -0.71805,-2.15414 -0.71805,-4.9216 0,-2.72259 0.71805,-4.87672 0.71804,-2.16909 2.09429,-3.7099 1.31642,-1.466 3.26112,-2.24389 1.95967,-0.77788 4.26339,-0.77788 2.39348,0 4.29331,0.79284 1.91479,0.77789 3.24616,2.22893 z m -0.26927,8.58662 q 0,-4.33819 -1.9447,-6.68679 -1.94471,-2.36356 -5.31054,-2.36356 -3.39575,0 -5.34045,2.36356 -1.92975,2.3486 -1.92975,6.68679 0,4.38306 1.97462,6.71671 1.97463,2.31868 5.29558,2.31868 3.32096,0 5.28062,-2.31868 1.97462,-2.33365 1.97462,-6.71671 z"
         style="font-size:30.63656616px;line-height:125%;letter-spacing:10.28999996px;word-spacing:-0.01px;fill:#000000;fill-opacity:1"
         id="path4275" />
      <path
         d="m 365.05253,430.15503 -14.09162,0 0,-22.27434 2.96193,0 0,19.64151 11.12969,0 0,2.63283 z"
         style="font-size:30.63656616px;line-height:125%;letter-spacing:10.28999996px;word-spacing:-0.01px;fill:#000000;fill-opacity:1"
         id="path4277" />
      <path
         d="m 395.07379,421.20939 q 0,2.4234 -0.53853,4.23347 -0.52358,1.79511 -1.73528,2.99185 -1.15186,1.13691 -2.69266,1.66048 -1.54081,0.52358 -3.59023,0.52358 -2.09429,0 -3.65006,-0.5535 -1.55576,-0.55349 -2.61787,-1.63056 -1.2117,-1.22666 -1.75023,-2.96193 -0.52357,-1.73527 -0.52357,-4.26339 l 0,-13.3287 2.96193,0 0,13.47829 q 0,1.81007 0.23935,2.85722 0.2543,1.04715 0.83772,1.89983 0.6582,0.97235 1.78015,1.46601 1.1369,0.49365 2.72258,0.49365 1.60064,0 2.72259,-0.47869 1.12194,-0.49366 1.79511,-1.48097 0.58341,-0.85268 0.82276,-1.94471 0.25431,-1.10698 0.25431,-2.73754 l 0,-13.55309 2.96193,0 0,13.3287 z"
         style="font-size:30.63656616px;line-height:125%;letter-spacing:10.28999996px;word-spacing:-0.01px;fill:#000000;fill-opacity:1"
         id="path4279" />
      <path
         d="m 426.92009,410.51352 -7.95833,0 0,19.64151 -2.96193,0 0,-19.64151 -7.95833,0 0,-2.63283 18.87859,0 0,2.63283 z"
         style="font-size:30.63656616px;line-height:125%;letter-spacing:10.28999996px;word-spacing:-0.01px;fill:#000000;fill-opacity:1"
         id="path4281" />
      <path
         d="m 448.08547,430.15503 -8.79605,0 0,-2.27381 2.91706,0 0,-17.72672 -2.91706,0 0,-2.27381 8.79605,0 0,2.27381 -2.91706,0 0,17.72672 2.91706,0 0,2.27381 z"
         style="font-size:30.63656616px;line-height:125%;letter-spacing:10.28999996px;word-spacing:-0.01px;fill:#000000;fill-opacity:1"
         id="path4283" />
      <path
         d="m 480.05145,410.43872 q 1.36129,1.49593 2.07934,3.66502 0.733,2.1691 0.733,4.9216 0,2.7525 -0.74796,4.93656 -0.73301,2.16909 -2.06438,3.62014 -1.37625,1.51088 -3.26112,2.2738 -1.86991,0.76293 -4.27835,0.76293 -2.3486,0 -4.27835,-0.77789 -1.91478,-0.77788 -3.26111,-2.25884 -1.34634,-1.48097 -2.07934,-3.6351 -0.71805,-2.15414 -0.71805,-4.9216 0,-2.72259 0.71805,-4.87672 0.71804,-2.16909 2.09429,-3.7099 1.31642,-1.466 3.26112,-2.24389 1.95967,-0.77788 4.26339,-0.77788 2.39348,0 4.29331,0.79284 1.91479,0.77789 3.24616,2.22893 z m -0.26927,8.58662 q 0,-4.33819 -1.9447,-6.68679 -1.9447,-2.36356 -5.31054,-2.36356 -3.39575,0 -5.34045,2.36356 -1.92975,2.3486 -1.92975,6.68679 0,4.38306 1.97462,6.71671 1.97463,2.31868 5.29558,2.31868 3.32096,0 5.28062,-2.31868 1.97462,-2.33365 1.97462,-6.71671 z"
         style="font-size:30.63656616px;line-height:125%;letter-spacing:10.28999996px;word-spacing:-0.01px;fill:#000000;fill-opacity:1"
         id="path4285" />
      <path
         d="m 514.84472,430.15503 -3.66502,0 -10.56124,-19.92574 0,19.92574 -2.76746,0 0,-22.27434 4.59249,0 9.63377,18.19046 0,-18.19046 2.76746,0 0,22.27434 z"
         style="font-size:30.63656616px;line-height:125%;letter-spacing:10.28999996px;word-spacing:-0.01px;fill:#000000;fill-opacity:1"
         id="path4287" />
      <path
         d="m 547.2445,423.79734 q 0,1.30146 -0.61333,2.573 -0.59837,1.27153 -1.6904,2.15413 -1.19674,0.95739 -2.79738,1.49593 -1.58568,0.53853 -3.82957,0.53853 -2.40844,0 -4.33819,-0.44878 -1.91478,-0.44878 -3.90436,-1.33137 l 0,-3.7099 0.20943,0 q 1.69039,1.40617 3.90436,2.16909 2.21397,0.76293 4.15868,0.76293 2.7525,0 4.27835,-1.03219 1.5408,-1.03219 1.5408,-2.75251 0,-1.48096 -0.733,-2.18405 -0.71805,-0.70308 -2.19901,-1.09203 -1.12195,-0.29918 -2.43836,-0.49365 -1.30146,-0.19447 -2.76747,-0.49366 -2.96193,-0.62829 -4.39802,-2.13917 -1.42113,-1.52585 -1.42113,-3.9642 0,-2.79739 2.36356,-4.57754 2.36357,-1.79511 5.99867,-1.79511 2.3486,0 4.30826,0.44878 1.95967,0.44878 3.47055,1.10698 l 0,3.50047 -0.20943,0 q -1.27153,-1.07707 -3.35087,-1.78015 -2.06438,-0.71805 -4.23347,-0.71805 -2.37852,0 -3.82957,0.98731 -1.43609,0.98732 -1.43609,2.54308 0,1.39121 0.71804,2.18405 0.71805,0.79284 2.52812,1.2117 0.95739,0.20943 2.72258,0.50862 1.7652,0.29918 2.99186,0.61333 2.48323,0.6582 3.73981,1.98958 1.25658,1.33137 1.25658,3.72485 z"
         style="font-size:30.63656616px;line-height:125%;letter-spacing:10.28999996px;word-spacing:-0.01px;fill:#000000;fill-opacity:1"
         id="path4289" />
      <path
         d="m 239.94116,448.80923 -7.95832,0 0,19.64151 -2.96194,0 0,-19.64151 -7.95832,0 0,-2.63283 18.87858,0 0,2.63283 z"
         style="font-size:30.63656616px;letter-spacing:7.44999981px;fill:#000000;fill-opacity:1"
         id="path4291" />
      <path
         d="m 266.29967,448.73443 q 1.36129,1.49593 2.07934,3.66502 0.733,2.16909 0.733,4.9216 0,2.7525 -0.74796,4.93655 -0.73301,2.1691 -2.06438,3.62014 -1.37625,1.51089 -3.26112,2.27381 -1.86991,0.76292 -4.27835,0.76292 -2.3486,0 -4.27835,-0.77788 -1.91478,-0.77788 -3.26112,-2.25885 -1.34633,-1.48096 -2.07933,-3.6351 -0.71805,-2.15413 -0.71805,-4.92159 0,-2.72259 0.71805,-4.87672 0.71804,-2.16909 2.09429,-3.7099 1.31642,-1.46601 3.26112,-2.24389 1.95967,-0.77788 4.26339,-0.77788 2.39348,0 4.29331,0.79284 1.91478,0.77788 3.24616,2.22893 z m -0.26927,8.58662 q 0,-4.33819 -1.9447,-6.68679 -1.94471,-2.36357 -5.31054,-2.36357 -3.39575,0 -5.34046,2.36357 -1.92974,2.3486 -1.92974,6.68679 0,4.38306 1.97462,6.71671 1.97462,2.31868 5.29558,2.31868 3.32096,0 5.28062,-2.31868 1.97462,-2.33365 1.97462,-6.71671 z"
         style="font-size:30.63656616px;letter-spacing:7.44999981px;fill:#000000;fill-opacity:1"
         id="path4293" />
      <path
         d="m 315.36662,448.80923 -7.95833,0 0,19.64151 -2.96193,0 0,-19.64151 -7.95833,0 0,-2.63283 18.87859,0 0,2.63283 z"
         style="font-size:30.63656616px;letter-spacing:7.44999981px;fill:#000000;fill-opacity:1"
         id="path4295" />
      <path
         d="m 344.2682,468.45074 -3.84453,0 -7.44971,-8.85589 -4.17363,0 0,8.85589 -2.96194,0 0,-22.27434 6.23802,0 q 2.0195,0 3.36583,0.26926 1.34633,0.25431 2.4234,0.92748 1.2117,0.76292 1.88487,1.92974 0.68812,1.15187 0.68812,2.93202 0,2.40844 -1.2117,4.039 -1.2117,1.6156 -3.33591,2.43836 l 8.37718,9.73848 z m -6.92613,-16.00641 q 0,-0.95739 -0.34407,-1.6904 -0.3291,-0.74796 -1.10698,-1.25658 -0.64325,-0.43382 -1.52585,-0.59837 -0.88259,-0.17951 -2.07933,-0.17951 l -3.48551,0 0,8.40711 2.99185,0 q 1.40617,0 2.45332,-0.23935 1.04715,-0.25431 1.78015,-0.92748 0.67317,-0.62828 0.98731,-1.43608 0.32911,-0.82276 0.32911,-2.07934 z"
         style="font-size:30.63656616px;letter-spacing:7.44999981px;fill:#000000;fill-opacity:1"
         id="path4297" />
      <path
         d="m 372.15255,468.45074 -3.1564,0 -2.18406,-6.2081 -9.63376,0 -2.18405,6.2081 -3.00681,0 8.10792,-22.27434 3.94924,0 8.10792,22.27434 z m -6.25297,-8.75117 -3.90437,-10.93522 -3.91932,10.93522 7.82369,0 z"
         style="font-size:30.63656616px;letter-spacing:7.44999981px;fill:#000000;fill-opacity:1"
         id="path4299" />
      <path
         d="m 399.97706,468.45074 -3.66502,0 -10.56124,-19.92574 0,19.92574 -2.76746,0 0,-22.27434 4.59249,0 9.63376,18.19046 0,-18.19046 2.76747,0 0,22.27434 z"
         style="font-size:30.63656616px;letter-spacing:7.44999981px;fill:#000000;fill-opacity:1"
         id="path4301" />
      <path
         d="m 429.53684,462.09305 q 0,1.30146 -0.61333,2.57299 -0.59837,1.27154 -1.69039,2.15414 -1.19674,0.95739 -2.79739,1.49592 -1.58568,0.53854 -3.82957,0.53854 -2.40844,0 -4.33818,-0.44878 -1.91479,-0.44878 -3.90437,-1.33137 l 0,-3.7099 0.20943,0 q 1.6904,1.40617 3.90437,2.16909 2.21397,0.76292 4.15867,0.76292 2.75251,0 4.27835,-1.03219 1.5408,-1.03218 1.5408,-2.7525 0,-1.48097 -0.733,-2.18405 -0.71804,-0.70309 -2.19901,-1.09203 -1.12195,-0.29918 -2.43836,-0.49365 -1.30146,-0.19447 -2.76746,-0.49366 -2.96194,-0.62829 -4.39803,-2.13917 -1.42113,-1.52585 -1.42113,-3.96421 0,-2.79738 2.36357,-4.57753 2.36356,-1.79511 5.99866,-1.79511 2.3486,0 4.30827,0.44878 1.95966,0.44877 3.47055,1.10698 l 0,3.50047 -0.20943,0 q -1.27154,-1.07707 -3.35088,-1.78015 -2.06438,-0.71805 -4.23347,-0.71805 -2.37852,0 -3.82957,0.98731 -1.43609,0.98731 -1.43609,2.54308 0,1.39121 0.71805,2.18405 0.71804,0.79284 2.52811,1.2117 0.95739,0.20943 2.72259,0.50861 1.76519,0.29919 2.99185,0.61333 2.48324,0.65821 3.73981,1.98959 1.25658,1.33137 1.25658,3.72485 z"
         style="font-size:30.63656616px;letter-spacing:7.44999981px;fill:#000000;fill-opacity:1"
         id="path4303" />
      <path
         d="m 455.97015,448.80923 -11.26432,0 0,6.28289 9.67864,0 0,2.63283 -9.67864,0 0,10.72579 -2.96193,0 0,-22.27434 14.22625,0 0,2.63283 z"
         style="font-size:30.63656616px;letter-spacing:7.44999981px;fill:#000000;fill-opacity:1"
         id="path4305" />
      <path
         d="m 483.39076,448.73443 q 1.36129,1.49593 2.07934,3.66502 0.733,2.16909 0.733,4.9216 0,2.7525 -0.74796,4.93655 -0.73301,2.1691 -2.06438,3.62014 -1.37625,1.51089 -3.26112,2.27381 -1.86991,0.76292 -4.27835,0.76292 -2.3486,0 -4.27835,-0.77788 -1.91478,-0.77788 -3.26111,-2.25885 -1.34634,-1.48096 -2.07934,-3.6351 -0.71805,-2.15413 -0.71805,-4.92159 0,-2.72259 0.71805,-4.87672 0.71804,-2.16909 2.09429,-3.7099 1.31642,-1.46601 3.26112,-2.24389 1.95967,-0.77788 4.26339,-0.77788 2.39348,0 4.29331,0.79284 1.91479,0.77788 3.24616,2.22893 z m -0.26927,8.58662 q 0,-4.33819 -1.9447,-6.68679 -1.9447,-2.36357 -5.31054,-2.36357 -3.39575,0 -5.34045,2.36357 -1.92975,2.3486 -1.92975,6.68679 0,4.38306 1.97462,6.71671 1.97463,2.31868 5.29558,2.31868 3.32096,0 5.28062,-2.31868 1.97462,-2.33365 1.97462,-6.71671 z"
         style="font-size:30.63656616px;letter-spacing:7.44999981px;fill:#000000;fill-opacity:1"
         id="path4307" />
      <path
         d="m 516.78014,468.45074 -3.84453,0 -7.44972,-8.85589 -4.17363,0 0,8.85589 -2.96193,0 0,-22.27434 6.23801,0 q 2.0195,0 3.36583,0.26926 1.34634,0.25431 2.4234,0.92748 1.2117,0.76292 1.88487,1.92974 0.68813,1.15187 0.68813,2.93202 0,2.40844 -1.2117,4.039 -1.2117,1.6156 -3.33592,2.43836 l 8.37719,9.73848 z M 509.854,452.44433 q 0,-0.95739 -0.34406,-1.6904 -0.32911,-0.74796 -1.10699,-1.25658 -0.64325,-0.43382 -1.52584,-0.59837 -0.8826,-0.17951 -2.07934,-0.17951 l -3.48551,0 0,8.40711 2.99185,0 q 1.40617,0 2.45332,-0.23935 1.04715,-0.25431 1.78015,-0.92748 0.67317,-0.62828 0.98731,-1.43608 0.32911,-0.82276 0.32911,-2.07934 z"
         style="font-size:30.63656616px;letter-spacing:7.44999981px;fill:#000000;fill-opacity:1"
         id="path4309" />
      <path
         d="m 546.93829,468.45074 -2.96193,0 0,-19.19273 -6.19314,13.05943 -1.76519,0 -6.14826,-13.05943 0,19.19273 -2.76746,0 0,-22.27434 4.039,0 5.93883,12.40122 5.74435,-12.40122 4.1138,0 0,22.27434 z"
         style="font-size:30.63656616px;letter-spacing:7.44999981px;fill:#000000;fill-opacity:1"
         id="path4311" />
      <path
         d="m 239.94116,487.10494 -7.95832,0 0,19.6415 -2.96194,0 0,-19.6415 -7.95832,0 0,-2.63283 18.87858,0 0,2.63283 z"
         style="font-size:30.63656616px;letter-spacing:2.6400001px;fill:#000000;fill-opacity:1"
         id="path4313" />
      <path
         d="m 262.64153,506.74644 -2.96193,0 0,-10.9053 -11.11473,0 0,10.9053 -2.96194,0 0,-22.27433 2.96194,0 0,8.7362 11.11473,0 0,-8.7362 2.96193,0 0,22.27433 z"
         style="font-size:30.63656616px;letter-spacing:2.6400001px;fill:#000000;fill-opacity:1"
         id="path4315" />
      <path
         d="m 285.95523,506.74644 -14.67503,0 0,-22.27433 14.67503,0 0,2.63283 -11.7131,0 0,6.10337 11.7131,0 0,2.63283 -11.7131,0 0,8.27247 11.7131,0 0,2.63283 z"
         style="font-size:30.63656616px;letter-spacing:2.6400001px;fill:#000000;fill-opacity:1"
         id="path4317" />
      <path
         d="m 320.94432,487.10494 -11.26432,0 0,6.28288 9.67864,0 0,2.63283 -9.67864,0 0,10.72579 -2.96194,0 0,-22.27433 14.22626,0 0,2.63283 z"
         style="font-size:30.63656616px;letter-spacing:2.6400001px;fill:#000000;fill-opacity:1"
         id="path4319" />
      <path
         d="m 343.0164,506.74644 -3.1564,0 -2.18405,-6.20809 -9.63377,0 -2.18405,6.20809 -3.00681,0 8.10792,-22.27433 3.94924,0 8.10792,22.27433 z m -6.25297,-8.75116 -3.90436,-10.93522 -3.91933,10.93522 7.82369,0 z"
         style="font-size:30.63656616px;letter-spacing:2.6400001px;fill:#000000;fill-opacity:1"
         id="path4321" />
      <path
         d="m 365.10345,500.38876 q 0,1.30145 -0.61333,2.57299 -0.59837,1.27154 -1.6904,2.15414 -1.19674,0.95739 -2.79738,1.49592 -1.58568,0.53853 -3.82957,0.53853 -2.40844,0 -4.33819,-0.44877 -1.91478,-0.44878 -3.90436,-1.33138 l 0,-3.70989 0.20943,0 q 1.69039,1.40617 3.90436,2.16909 2.21397,0.76292 4.15868,0.76292 2.7525,0 4.27835,-1.03219 1.5408,-1.03219 1.5408,-2.7525 0,-1.48097 -0.733,-2.18405 -0.71805,-0.70309 -2.19902,-1.09203 -1.12194,-0.29919 -2.43836,-0.49366 -1.30145,-0.19447 -2.76746,-0.49365 -2.96193,-0.62829 -4.39802,-2.13918 -1.42113,-1.52584 -1.42113,-3.9642 0,-2.79738 2.36356,-4.57753 2.36357,-1.79511 5.99867,-1.79511 2.3486,0 4.30826,0.44877 1.95967,0.44878 3.47055,1.10699 l 0,3.50047 -0.20943,0 q -1.27154,-1.07707 -3.35087,-1.78016 -2.06438,-0.71804 -4.23347,-0.71804 -2.37853,0 -3.82957,0.98731 -1.43609,0.98731 -1.43609,2.54307 0,1.39122 0.71804,2.18406 0.71805,0.79284 2.52812,1.2117 0.95739,0.20943 2.72258,0.50861 1.76519,0.29919 2.99185,0.61333 2.48324,0.65821 3.73982,1.98958 1.25658,1.33138 1.25658,3.72486 z"
         style="font-size:30.63656616px;letter-spacing:2.6400001px;fill:#000000;fill-opacity:1"
         id="path4323" />
      <path
         d="m 389.53909,506.74644 -2.96194,0 0,-10.9053 -11.11473,0 0,10.9053 -2.96193,0 0,-22.27433 2.96193,0 0,8.7362 11.11473,0 0,-8.7362 2.96194,0 0,22.27433 z"
         style="font-size:30.63656616px;letter-spacing:2.6400001px;fill:#000000;fill-opacity:1"
         id="path4325" />
      <path
         d="m 406.03136,506.74644 -8.79604,0 0,-2.2738 2.91705,0 0,-17.72673 -2.91705,0 0,-2.2738 8.79604,0 0,2.2738 -2.91705,0 0,17.72673 2.91705,0 0,2.2738 z"
         style="font-size:30.63656616px;letter-spacing:2.6400001px;fill:#000000;fill-opacity:1"
         id="path4327" />
      <path
         d="m 430.34733,487.03014 q 1.3613,1.49593 2.07934,3.66502 0.733,2.16909 0.733,4.92159 0,2.75251 -0.74796,4.93656 -0.733,2.16909 -2.06438,3.62014 -1.37625,1.51089 -3.26112,2.27381 -1.8699,0.76292 -4.27834,0.76292 -2.34861,0 -4.27835,-0.77788 -1.91479,-0.77788 -3.26112,-2.25885 -1.34633,-1.48096 -2.07934,-3.6351 -0.71804,-2.15413 -0.71804,-4.9216 0,-2.72258 0.71804,-4.87671 0.71805,-2.1691 2.0943,-3.7099 1.31641,-1.46601 3.26112,-2.24389 1.95966,-0.77788 4.26339,-0.77788 2.39348,0 4.2933,0.79284 1.91479,0.77788 3.24616,2.22893 z m -0.26926,8.58661 q 0,-4.33818 -1.94471,-6.68678 -1.9447,-2.36357 -5.31053,-2.36357 -3.39576,0 -5.34046,2.36357 -1.92975,2.3486 -1.92975,6.68678 0,4.38307 1.97463,6.71671 1.97462,2.31869 5.29558,2.31869 3.32095,0 5.28061,-2.31869 1.97463,-2.33364 1.97463,-6.71671 z"
         style="font-size:30.63656616px;letter-spacing:2.6400001px;fill:#000000;fill-opacity:1"
         id="path4329" />
      <path
         d="m 457.49059,506.74644 -3.66502,0 -10.56123,-19.92573 0,19.92573 -2.76747,0 0,-22.27433 4.5925,0 9.63376,18.19046 0,-18.19046 2.76746,0 0,22.27433 z"
         style="font-size:30.63656616px;letter-spacing:2.6400001px;fill:#000000;fill-opacity:1"
         id="path4331" />
      <path
         d="m 497.02731,506.74644 -3.15641,0 -2.18405,-6.20809 -9.63376,0 -2.18406,6.20809 -3.00681,0 8.10792,-22.27433 3.94925,0 8.10792,22.27433 z m -6.25297,-8.75116 -3.90437,-10.93522 -3.91933,10.93522 7.8237,0 z"
         style="font-size:30.63656616px;letter-spacing:2.6400001px;fill:#000000;fill-opacity:1"
         id="path4333" />
      <path
         d="m 520.04183,506.74644 -3.66502,0 -10.56124,-19.92573 0,19.92573 -2.76746,0 0,-22.27433 4.59249,0 9.63377,18.19046 0,-18.19046 2.76746,0 0,22.27433 z"
         style="font-size:30.63656616px;letter-spacing:2.6400001px;fill:#000000;fill-opacity:1"
         id="path4335" />
      <path
         d="m 547.42445,495.63171 q 0,3.03673 -1.33138,5.50501 -1.31641,2.46828 -3.51542,3.82957 -1.52585,0.94244 -3.41071,1.3613 -1.86991,0.41885 -4.93656,0.41885 l -5.62468,0 0,-22.27433 5.56484,0 q 3.26112,0 5.17591,0.47869 1.92974,0.46374 3.26112,1.2865 2.2738,1.42113 3.54534,3.78469 1.27154,2.36356 1.27154,5.60972 z m -3.09657,-0.0449 q 0,-2.61787 -0.91251,-4.41299 -0.91252,-1.79511 -2.72259,-2.8273 -1.31641,-0.74796 -2.79738,-1.03219 -1.48097,-0.29918 -3.54535,-0.29918 l -2.78242,0 0,17.18819 2.78242,0 q 2.13918,0 3.72486,-0.31414 1.60064,-0.31415 2.93202,-1.16683 1.66047,-1.0621 2.48323,-2.79738 0.83772,-1.73527 0.83772,-4.33818 z"
         style="font-size:30.63656616px;letter-spacing:2.6400001px;fill:#000000;fill-opacity:1"
         id="path4337" />
      <path
         d="m 240.85368,538.19081 q 0,1.66048 -0.62829,2.93202 -0.62829,1.27153 -1.6904,2.09429 -1.25657,0.98731 -2.76746,1.40617 -1.49593,0.41886 -3.81461,0.41886 l -7.89849,0 0,-22.27434 6.59703,0 q 2.43836,0 3.65006,0.17951 1.2117,0.17952 2.31869,0.74797 1.22666,0.64325 1.78015,1.66048 0.55349,1.00227 0.55349,2.40844 0,1.58568 -0.8078,2.70762 -0.8078,1.10699 -2.15413,1.78015 l 0,0.11968 q 2.25885,0.46374 3.5603,1.98958 1.30146,1.51089 1.30146,3.82957 z m -4.98144,-10.03766 q 0,-0.8078 -0.26926,-1.3613 -0.26927,-0.55349 -0.86764,-0.89755 -0.70308,-0.4039 -1.70536,-0.49366 -1.00227,-0.10471 -2.48323,-0.10471 l -3.53039,0 0,6.43248 3.82957,0 q 1.39121,0 2.21397,-0.13463 0.82276,-0.1496 1.52585,-0.59837 0.70308,-0.44878 0.98731,-1.15187 0.29918,-0.71804 0.29918,-1.69039 z m 1.89983,10.15734 q 0,-1.34634 -0.4039,-2.13918 -0.4039,-0.79284 -1.46601,-1.34633 -0.71804,-0.37398 -1.75023,-0.4787 -1.01723,-0.11967 -2.48324,-0.11967 l -4.65233,0 0,8.28743 3.91933,0 q 1.9447,0 3.18632,-0.19447 1.24162,-0.20943 2.03446,-0.74797 0.83772,-0.58341 1.22666,-1.33137 0.38894,-0.74796 0.38894,-1.92974 z"
         style="font-size:30.63656616px;fill:#000000;fill-opacity:1"
         id="path4339" />
      <path
         d="m 259.73227,545.04215 -14.67504,0 0,-22.27434 14.67504,0 0,2.63283 -11.71311,0 0,6.10338 11.71311,0 0,2.63283 -11.71311,0 0,8.27247 11.71311,0 0,2.63283 z"
         style="font-size:30.63656616px;fill:#000000;fill-opacity:1"
         id="path4341" />
      <path
         d="m 282.0066,545.04215 -3.1564,0 -2.18405,-6.20809 -9.63377,0 -2.18405,6.20809 -3.00681,0 8.10792,-22.27434 3.94924,0 8.10792,22.27434 z m -6.25297,-8.75117 -3.90436,-10.93521 -3.91933,10.93521 7.82369,0 z"
         style="font-size:30.63656616px;fill:#000000;fill-opacity:1"
         id="path4343" />
      <path
         d="m 302.03705,536.09651 q 0,2.4234 -0.53853,4.23348 -0.52357,1.79511 -1.73527,2.99185 -1.15187,1.1369 -2.69267,1.66048 -1.5408,0.52357 -3.59022,0.52357 -2.0943,0 -3.65006,-0.55349 -1.55577,-0.5535 -2.61787,-1.63056 -1.2117,-1.22666 -1.75024,-2.96194 -0.52357,-1.73527 -0.52357,-4.26339 l 0,-13.3287 2.96193,0 0,13.4783 q 0,1.81007 0.23935,2.85722 0.25431,1.04714 0.83772,1.89982 0.65821,0.97235 1.78015,1.46601 1.13691,0.49366 2.72259,0.49366 1.60064,0 2.72258,-0.4787 1.12195,-0.49366 1.79511,-1.48097 0.58342,-0.85268 0.82276,-1.9447 0.25431,-1.10699 0.25431,-2.73755 l 0,-13.55309 2.96193,0 0,13.3287 z"
         style="font-size:30.63656616px;fill:#000000;fill-opacity:1"
         id="path4345" />
      <path
         d="m 323.59335,525.40064 -7.95833,0 0,19.64151 -2.96193,0 0,-19.64151 -7.95833,0 0,-2.63283 18.87859,0 0,2.63283 z"
         style="font-size:30.63656616px;fill:#000000;fill-opacity:1"
         id="path4347" />
      <path
         d="m 342.38218,522.76781 -7.83865,12.50595 0,9.76839 -2.96194,0 0,-9.45425 -7.86857,-12.82009 3.27608,0 6.08842,9.96287 6.14826,-9.96287 3.1564,0 z"
         style="font-size:30.63656616px;fill:#000000;fill-opacity:1"
         id="path4349" />
      <path
         d="m 364.08806,545.04215 -8.79604,0 0,-2.27381 2.91705,0 0,-17.72672 -2.91705,0 0,-2.27381 8.79604,0 0,2.27381 -2.91705,0 0,17.72672 2.91705,0 0,2.27381 z"
         style="font-size:30.63656616px;fill:#000000;fill-opacity:1"
         id="path4351" />
      <path
         d="m 386.15298,545.04215 -3.66502,0 -10.56124,-19.92573 0,19.92573 -2.76746,0 0,-22.27434 4.59249,0 9.63376,18.19046 0,-18.19046 2.76747,0 0,22.27434 z"
         style="font-size:30.63656616px;fill:#000000;fill-opacity:1"
         id="path4353" />
      <path
         d="m 410.89559,533.92742 q 0,3.03673 -1.33137,5.50501 -1.31642,2.46828 -3.51543,3.82957 -1.52584,0.94243 -3.41071,1.36129 -1.86991,0.41886 -4.93655,0.41886 l -5.62469,0 0,-22.27434 5.56485,0 q 3.26112,0 5.1759,0.4787 1.92975,0.46374 3.26112,1.2865 2.27381,1.42113 3.54535,3.78469 1.27153,2.36356 1.27153,5.60972 z m -3.09656,-0.0449 q 0,-2.61787 -0.91252,-4.41298 -0.91251,-1.79511 -2.72258,-2.8273 -1.31642,-0.74796 -2.79739,-1.03219 -1.48096,-0.29918 -3.54534,-0.29918 l -2.78242,0 0,17.18819 2.78242,0 q 2.13917,0 3.72486,-0.31415 1.60064,-0.31414 2.93201,-1.16682 1.66048,-1.06211 2.48324,-2.79738 0.83772,-1.73527 0.83772,-4.33819 z"
         style="font-size:30.63656616px;fill:#000000;fill-opacity:1"
         id="path4355" />
      <path
         d="m 432.48181,536.09651 q 0,2.4234 -0.53853,4.23348 -0.52358,1.79511 -1.73528,2.99185 -1.15186,1.1369 -2.69266,1.66048 -1.54081,0.52357 -3.59023,0.52357 -2.09429,0 -3.65006,-0.55349 -1.55576,-0.5535 -2.61787,-1.63056 -1.2117,-1.22666 -1.75023,-2.96194 -0.52357,-1.73527 -0.52357,-4.26339 l 0,-13.3287 2.96193,0 0,13.4783 q 0,1.81007 0.23935,2.85722 0.2543,1.04714 0.83772,1.89982 0.6582,0.97235 1.78015,1.46601 1.1369,0.49366 2.72258,0.49366 1.60064,0 2.72259,-0.4787 1.12194,-0.49366 1.79511,-1.48097 0.58341,-0.85268 0.82276,-1.9447 0.25431,-1.10699 0.25431,-2.73755 l 0,-13.55309 2.96193,0 0,13.3287 z"
         style="font-size:30.63656616px;fill:#000000;fill-opacity:1"
         id="path4357" />
      <path
         d="m 454.33729,538.68447 q 0,1.30145 -0.61333,2.57299 -0.59837,1.27154 -1.6904,2.15413 -1.19674,0.9574 -2.79738,1.49593 -1.58568,0.53853 -3.82957,0.53853 -2.40844,0 -4.33819,-0.44878 -1.91478,-0.44877 -3.90436,-1.33137 l 0,-3.7099 0.20943,0 q 1.69039,1.40617 3.90436,2.1691 2.21397,0.76292 4.15868,0.76292 2.7525,0 4.27835,-1.03219 1.5408,-1.03219 1.5408,-2.7525 0,-1.48097 -0.733,-2.18406 -0.71805,-0.70308 -2.19902,-1.09202 -1.12194,-0.29919 -2.43835,-0.49366 -1.30146,-0.19447 -2.76747,-0.49365 -2.96193,-0.62829 -4.39802,-2.13918 -1.42113,-1.52584 -1.42113,-3.9642 0,-2.79738 2.36356,-4.57754 2.36357,-1.79511 5.99867,-1.79511 2.3486,0 4.30826,0.44878 1.95967,0.44878 3.47055,1.10699 l 0,3.50046 -0.20943,0 q -1.27153,-1.07706 -3.35087,-1.78015 -2.06438,-0.71804 -4.23347,-0.71804 -2.37853,0 -3.82957,0.98731 -1.43609,0.98731 -1.43609,2.54307 0,1.39121 0.71804,2.18405 0.71805,0.79285 2.52812,1.2117 0.95739,0.20943 2.72258,0.50862 1.7652,0.29918 2.99185,0.61333 2.48324,0.65821 3.73982,1.98958 1.25658,1.33137 1.25658,3.72486 z"
         style="font-size:30.63656616px;fill:#000000;fill-opacity:1"
         id="path4359" />
      <path
         d="m 474.98107,525.40064 -7.95833,0 0,19.64151 -2.96194,0 0,-19.64151 -7.95832,0 0,-2.63283 18.87859,0 0,2.63283 z"
         style="font-size:30.63656616px;fill:#000000;fill-opacity:1"
         id="path4361" />
      <path
         d="m 496.43265,545.04215 -3.84453,0 -7.44971,-8.85588 -4.17364,0 0,8.85588 -2.96193,0 0,-22.27434 6.23801,0 q 2.0195,0 3.36583,0.26927 1.34634,0.25431 2.4234,0.92747 1.2117,0.76293 1.88487,1.92975 0.68813,1.15186 0.68813,2.93201 0,2.40844 -1.2117,4.039 -1.2117,1.6156 -3.33592,2.43836 l 8.37719,9.73848 z m -6.92614,-16.00641 q 0,-0.95739 -0.34406,-1.69039 -0.32911,-0.74797 -1.10699,-1.25658 -0.64325,-0.43382 -1.52584,-0.59837 -0.8826,-0.17951 -2.07934,-0.17951 l -3.48551,0 0,8.4071 2.99185,0 q 1.40617,0 2.45332,-0.23935 1.04715,-0.2543 1.78016,-0.92747 0.67316,-0.62829 0.98731,-1.43609 0.3291,-0.82276 0.3291,-2.07934 z"
         style="font-size:30.63656616px;fill:#000000;fill-opacity:1"
         id="path4363" />
      <path
         d="m 507.15844,545.04215 -8.79605,0 0,-2.27381 2.91706,0 0,-17.72672 -2.91706,0 0,-2.27381 8.79605,0 0,2.27381 -2.91706,0 0,17.72672 2.91706,0 0,2.27381 z"
         style="font-size:30.63656616px;fill:#000000;fill-opacity:1"
         id="path4365" />
      <path
         d="m 526.90466,545.04215 -14.67503,0 0,-22.27434 14.67503,0 0,2.63283 -11.7131,0 0,6.10338 11.7131,0 0,2.63283 -11.7131,0 0,8.27247 11.7131,0 0,2.63283 z"
         style="font-size:30.63656616px;fill:#000000;fill-opacity:1"
         id="path4367" />
      <path
         d="m 547.80276,538.68447 q 0,1.30145 -0.61333,2.57299 -0.59837,1.27154 -1.6904,2.15413 -1.19674,0.9574 -2.79738,1.49593 -1.58568,0.53853 -3.82957,0.53853 -2.40844,0 -4.33819,-0.44878 -1.91478,-0.44877 -3.90436,-1.33137 l 0,-3.7099 0.20943,0 q 1.69039,1.40617 3.90436,2.1691 2.21397,0.76292 4.15868,0.76292 2.7525,0 4.27835,-1.03219 1.5408,-1.03219 1.5408,-2.7525 0,-1.48097 -0.733,-2.18406 -0.71805,-0.70308 -2.19902,-1.09202 -1.12194,-0.29919 -2.43836,-0.49366 -1.30145,-0.19447 -2.76746,-0.49365 -2.96193,-0.62829 -4.39802,-2.13918 -1.42113,-1.52584 -1.42113,-3.9642 0,-2.79738 2.36356,-4.57754 2.36357,-1.79511 5.99867,-1.79511 2.3486,0 4.30826,0.44878 1.95967,0.44878 3.47055,1.10699 l 0,3.50046 -0.20943,0 q -1.27154,-1.07706 -3.35087,-1.78015 -2.06438,-0.71804 -4.23347,-0.71804 -2.37853,0 -3.82957,0.98731 -1.43609,0.98731 -1.43609,2.54307 0,1.39121 0.71804,2.18405 0.71805,0.79285 2.52812,1.2117 0.95739,0.20943 2.72258,0.50862 1.76519,0.29918 2.99185,0.61333 2.48324,0.65821 3.73982,1.98958 1.25658,1.33137 1.25658,3.72486 z"
         style="font-size:30.63656616px;fill:#000000;fill-opacity:1"
         id="path4369" />
    </g>
  </g>
</svg>
