<?xml version="1.0" encoding="UTF-8" standalone="no"?>
<svg
   xmlns:dc="http://purl.org/dc/elements/1.1/"
   xmlns:cc="http://creativecommons.org/ns#"
   xmlns:rdf="http://www.w3.org/1999/02/22-rdf-syntax-ns#"
   xmlns:svg="http://www.w3.org/2000/svg"
   xmlns="http://www.w3.org/2000/svg"
   xmlns:sodipodi="http://sodipodi.sourceforge.net/DTD/sodipodi-0.dtd"
   xmlns:inkscape="http://www.inkscape.org/namespaces/inkscape"
   version="1.0"
   width="126.7461mm"
   height="33.274078mm"
   id="svg3336"
   inkscape:version="0.91 r13725"
   viewBox="0 0 126.7461 33.274078"
   sodipodi:docname="press-twelv.svg">
  <metadata
     id="metadata3349">
    <rdf:RDF>
      <cc:Work
         rdf:about="">
        <dc:format>image/svg+xml</dc:format>
        <dc:type
           rdf:resource="http://purl.org/dc/dcmitype/StillImage" />
        <dc:title></dc:title>
      </cc:Work>
    </rdf:RDF>
  </metadata>
  <sodipodi:namedview
     pagecolor="#ffffff"
     bordercolor="#666666"
     borderopacity="1"
     objecttolerance="10"
     gridtolerance="10"
     guidetolerance="10"
     inkscape:pageopacity="0"
     inkscape:pageshadow="2"
     inkscape:window-width="1680"
     inkscape:window-height="987"
     id="namedview3347"
     inkscape:document-units="mm"
     showgrid="false"
     fit-margin-top="0"
     fit-margin-left="0"
     fit-margin-right="0"
     fit-margin-bottom="0"
     inkscape:zoom="1.1684381"
     inkscape:cx="88.765065"
     inkscape:cy="126.84345"
     inkscape:window-x="-8"
     inkscape:window-y="-8"
     inkscape:window-maximized="1"
     inkscape:current-layer="svg3336" />
  <defs
     id="defs3338">
    <pattern
       id="WMFhbasepattern"
       patternUnits="userSpaceOnUse"
       width="6"
       height="6"
       x="0"
       y="0" />
  </defs>
  <path
     style="fill:#000000;fill-opacity:1;stroke:#000000;stroke-width:0.08466667px;stroke-linecap:round;stroke-linejoin:round;stroke-miterlimit:4;stroke-dasharray:none;stroke-opacity:1"
     d="m 90.97433,0.71974333 2.45534,0 0,-0.67734 -8.72067,0 0,0.67734 2.286,0 0,31.49599967 -2.37067,0 0,1.016 20.574,0 0,-9.22867 0,0.84667 -0.0847,0.762 -0.16934,0.762 -0.16933,0.762 -0.16933,0.59266 -0.254,0.59267 -0.254,0.59267 -0.33867,0.508 -0.33867,0.42333 -0.254,0.33867 -0.33866,0.33866 -0.42334,0.33867 -0.33866,0.16933 -0.33867,0.254 -0.762,0.33867 -0.762,0.254 -0.762,0.16933 -0.67733,0.0847 -0.59267,0.0847 -1.18533,0 -0.59267,0 -0.33867,0 -0.33866,0 -1.016,0 -1.10067,0 -0.59267,0 -0.67733,0 -0.67733,0 -0.67734,0 0,-31.49599967"
     id="path3341"
     inkscape:connector-curvature="0" />
  <path
     style="fill:#000000;fill-opacity:1;stroke:#000000;stroke-width:0.08466667px;stroke-linecap:round;stroke-linejoin:round;stroke-miterlimit:4;stroke-dasharray:none;stroke-opacity:1"
     d="m 22.648333,8.9324033 0,-8.21265997 1.862667,0 8.720667,32.51199967 1.947333,0 6.942667,-24.2146697 6.434666,24.2146697 1.862667,0 7.281333,-28.2786697 0.169334,-0.59267 0.169333,-0.508 0.169333,-0.42333 0.169334,-0.508 0.254003,-0.508 0.33866,-0.42333 0.42334,-0.508 0.254,-0.16934 0.254,-0.16933 0.33866,-0.0847 0.33867,-0.16932997 0.84667,-0.0847 0.93133,-0.0847 1.016,0 0,31.49599967 -2.45533,0 0,1.016 19.98133,0 0,-9.22867 -0.0847,0.84667 -0.0847,0.762 -0.0847,0.762 -0.16933,0.762 -0.16934,0.59266 -0.254,0.59267 -0.254,0.59267 -0.33866,0.508 -0.33867,0.42333 -0.33867,0.33867 -0.33866,0.33866 -0.33867,0.33867 -0.33867,0.16933 -0.33866,0.254 -0.762,0.33867 -0.762,0.254 -0.762,0.16933 -0.67734,0.0847 -0.67733,0.0847 -1.10067,0 -0.59266,0 -0.33867,0 -0.42333,0 -3.97934,0 0,-15.32467 0.508,0 0.42334,0 0.84666,0 0.67734,0 0.59266,0.0847 0.508,0 0.42334,0 0.33866,0 0.42334,0 0.67733,0.0847 0.59267,0.16934 0.508,0.0847 0.508,0.16934 0.42333,0.254 0.33867,0.254 0.33866,0.254 0.33867,0.42333 0.254,0.16933 0.16933,0.254 0.16934,0.33867 0.16933,0.33867 0.16933,0.42333 0.16934,0.508 0.0847,0.59267 0,0.67733 0,-10.83733 0,0.762 -0.0847,0.59266 -0.16934,0.42334 -0.16933,0.42333 -0.16933,0.42333 -0.16934,0.254 -0.16933,0.254 -0.254,0.254 -0.33867,0.33867 -0.33866,0.33867 -0.33867,0.254 -0.42333,0.16933 -0.508,0.16933 -0.508,0.16934 -0.59267,0.0847 -0.67733,0.0847 -0.42334,0 -0.33866,0.0847 -0.42334,0 -0.508,0 -0.59266,0 -0.67734,0 -0.84666,0 -0.42334,0 -0.508,0 0,-15.49399967 3.97934,0 0.42333,0 0.33867,0 0.59266,0 1.10067,0 0.67733,0.0847 0.67734,0.0847 0.762,0.16932997 0.762,0.254 0.762,0.33867 0.33866,0.254 0.33867,0.16933 0.33867,0.33867 0.33866,0.33867 0.33867,0.33866 0.33867,0.42334 0.33866,0.508 0.254,0.59266 0.254,0.59267 0.16934,0.67733 0.16933,0.67734 0.0847,0.762 0.0847,0.762 0.0847,0.84666 0,-8.88999997 -27.008667,0 0,0.67734 0.508,0 0.508,0 0.338667,0.0847 0.338667,0.0847 0.254,0.0847 0.169333,0.16932997 0.423333,0.254 0.254,0.42333 0.254,0.42334 0.169334,0.508 0.08467,0.59266 0,0.59267 -0.08467,0.67733 -0.169334,0.59267 -0.08467,0.508 -5.842,22.4366697 -7.281334,-27.43199967 2.709334,0 0,-0.67734 -8.805334,0 0,0.67734 2.286,0 1.778,6.60399997 L 35.941,27.305073 28.829,0.71974333 l 2.624667,0 0,-0.67734 -31.41133367,0 0,8.88999997 0,-0.84666 0.08467,-0.762 0.08467,-0.762 0.169333,-0.67734 0.254,-0.67733 0.254,-0.59267 0.25399997,-0.59266 0.254,-0.508 0.338667,-0.42334 0.338666,-0.33866 0.338667,-0.33867 0.338667,-0.33867 0.338666,-0.16933 0.423334,-0.254 0.762,-0.33867 0.762,-0.254 0.677333,-0.16932997 0.677333,-0.0847 0.677334,-0.0847 1.100666,0 0.677334,0 0.338666,0 0.338667,0 0,31.58065967 -2.624667,0 0,0.67734 8.8899997,0 0,-0.67734 -2.624666,0 0,-31.58065967 0.338666,0 0.338667,0 0.592667,0 1.185333,0 0.592667,0.0847 0.677333,0.0847 0.762,0.16932997 0.762,0.254 0.762,0.33867 0.338667,0.254 0.423333,0.16933 0.338667,0.33867 0.338666,0.33867 0.338667,0.33866 0.254,0.42334 0.338667,0.508 0.254,0.59266 0.254,0.59267 0.169333,0.67733 0.169333,0.67734 0.169334,0.762 0.08467,0.762 0,0.84666"
     id="path3343"
     inkscape:connector-curvature="0" />
  <path
     style="fill:#000000;fill-opacity:1;stroke:#000000;stroke-width:0.08466667px;stroke-linecap:round;stroke-linejoin:round;stroke-miterlimit:4;stroke-dasharray:none;stroke-opacity:1"
     d="m 121.87767,5.2917433 -7.366,22.6906597 -9.48267,-27.26265967 2.794,0 -0.508,-0.67734 -8.80533,0 0,0.67734 2.032,0 11.176,32.51199967 1.69333,0 9.73667,-29.8873397 0.0847,-0.33866 0.0847,-0.33867 0.16933,-0.254 0.0847,-0.16933 0.16933,-0.254 0.16934,-0.254 0.16933,-0.16934 0.254,-0.16933 0.33867,-0.16933 0.254,-0.16934 0.42333,-0.16932997 0.42333,-0.0847 0.42334,-0.0847 0.508,0 -0.59267,-0.67734 -7.62,0 0.42333,0.67734 0.33867,0 0.33867,0 0.59266,0.0847 0.508,0.16934 0.33867,0.16932997 0.33867,0.254 0.254,0.254 0.254,0.33867 0.16933,0.33866 0.0847,0.254 0.0847,0.33867 0.0847,0.42333 0,0.33867 -0.0847,0.42333 -0.0847,0.42334 -0.0847,0.42333 -0.16933,0.33867"
     id="path3345"
     inkscape:connector-curvature="0" />
</svg>
