<?xml version="1.0" encoding="UTF-8" standalone="no"?>
<!-- Created with Inkscape (http://www.inkscape.org/) -->

<svg
   xmlns:dc="http://purl.org/dc/elements/1.1/"
   xmlns:cc="http://creativecommons.org/ns#"
   xmlns:rdf="http://www.w3.org/1999/02/22-rdf-syntax-ns#"
   xmlns:svg="http://www.w3.org/2000/svg"
   xmlns="http://www.w3.org/2000/svg"
   xmlns:sodipodi="http://sodipodi.sourceforge.net/DTD/sodipodi-0.dtd"
   xmlns:inkscape="http://www.inkscape.org/namespaces/inkscape"
   width="118.75029mm"
   height="16.55764mm"
   viewBox="0 0 420.76874 58.668803"
   id="svg4233"
   version="1.1"
   inkscape:version="0.91 r13725"
   sodipodi:docname="press-trendland.svg">
  <defs
     id="defs4235" />
  <sodipodi:namedview
     id="base"
     pagecolor="#ffffff"
     bordercolor="#666666"
     borderopacity="1.0"
     inkscape:pageopacity="0.0"
     inkscape:pageshadow="2"
     inkscape:zoom="1.4"
     inkscape:cx="221.93894"
     inkscape:cy="-256.40694"
     inkscape:document-units="px"
     inkscape:current-layer="layer1"
     showgrid="false"
     fit-margin-top="0"
     fit-margin-left="0"
     fit-margin-right="0"
     fit-margin-bottom="0"
     inkscape:window-width="2560"
     inkscape:window-height="1377"
     inkscape:window-x="-8"
     inkscape:window-y="-8"
     inkscape:window-maximized="1" />
  <metadata
     id="metadata4238">
    <rdf:RDF>
      <cc:Work
         rdf:about="">
        <dc:format>image/svg+xml</dc:format>
        <dc:type
           rdf:resource="http://purl.org/dc/dcmitype/StillImage" />
        <dc:title></dc:title>
      </cc:Work>
    </rdf:RDF>
  </metadata>
  <g
     inkscape:label="Vrstva 1"
     inkscape:groupmode="layer"
     id="layer1"
     transform="translate(-2.472773,-1.599231)">
    <g
       transform="matrix(0.9375,0,0,0.9375,-91.042852,-453.26636)"
       id="g4174"
       style="stroke:#000000;stroke-opacity:1">
      <path
         d="m 515.35998,545.59998 -23.99999,0"
         style="fill:none;stroke:#000000;stroke-width:0.5;stroke-linecap:round;stroke-linejoin:round;stroke-miterlimit:10;stroke-dasharray:none;stroke-opacity:1"
         id="path4176"
         inkscape:connector-curvature="0" />
    </g>
    <g
       transform="matrix(0.9375,0,0,0.9375,-91.042852,-453.26636)"
       id="g4182"
       style="fill:#000000;fill-opacity:1;stroke:#000000;stroke-opacity:1">
      <path
         d="m 312,487.35999 -14.72,0 0,60.16003 -1.44,0 -35.19999,-55.84003 0,53.12 9.28,0 0,0.79999 -73.12001,0 -0.64,0 -0.8,0 -0.64,-0.15998 -0.48,-0.15997 -0.96,-0.32001 -0.8,-0.48004 -1.44001,-0.95996 -0.64,-0.64002 -0.47999,-0.64001 -0.64,-0.79999 -0.48,-0.96002 -0.32,-0.79999 L 188,538.56 187.67999,537.59998 187.52,536.64001 187.2,534.56 l 0,-1.91999 -0.16001,-1.92004 0,-1.59997 0,-0.96003 0,-0.95996 0,-1.11999 -0.15999,-1.12 -0.16,-1.11999 -0.16,-1.28003 -0.48,-1.12 -0.47999,-1.11999 -0.64,-1.12 -0.64,-0.96002 -0.96001,-0.79999 -0.8,-0.64001 -0.95999,-0.64002 -0.96001,-0.47998 -0.96001,-0.32001 -0.95999,-0.32 -0.96001,-0.15998 -0.79998,-0.16003 -0.96001,0 -0.48,-0.15997 -0.64,0 -0.64,0 -0.8,0 -0.8,0 -1.12,0 -5.44,0 0,30.23999 9.59999,0 0,0.79999 -27.35998,0 0,-0.79999 9.59999,0 0,-57.44 -7.84,0 0,14.88 0,-0.79999 -0.16,-0.79999 -0.31999,-1.44 -0.64,-1.44 -0.80001,-1.28 -0.96,-1.28 -0.96,-1.28 -1.27999,-1.12002 -1.12001,-1.12 -1.28,-0.95999 -1.44001,-0.79999 -1.44,-0.80001 L 138.08,488.48001 136.32001,488 135.2,487.84 l -0.96,-0.16001 -1.12001,-0.16 -1.27999,0 -1.28,-0.16 -1.44001,0 0,57.44 9.60001,0 0,0.79999 -27.36,0 0,-0.79999 9.6,0 0,-57.44 -1.44,0 -1.28,0.16 -1.28,0 -1.12,0.16 -0.96,0.16001 -1.12,0.16 -1.76,0.48001 -1.6,0.63999 -1.44,0.80001 -1.44,0.79999 -1.28,0.95999 -1.12,1.12 -1.28,1.12002 -0.96,1.28 -0.96,1.28 -0.8,1.28 -0.64,1.44 -0.32,1.44 -0.16,0.79999 0,0.79999 0,-15.67999 68.32001,0 1.28,0 1.27999,0 1.28,0 1.12,0 0.96,0 1.12,0 0.8,0 0.95999,0 1.44001,0.16 1.44,0 1.11999,0.16 1.12001,0.16001 0.96,0.16 0.8,0.31998 0.8,0.16 0.64,0.32001 1.28,0.79999 1.12,0.80002 1.27999,0.79998 1.12001,0.96 0.96,1.28002 0.96,1.28 0.64,1.59998 0.64,1.76001 0.31999,1.76001 0.16001,1.91998 -0.16001,1.60001 -0.15998,1.76001 -0.32001,0.63998 -0.31999,0.80002 -0.32001,0.79999 -0.31999,0.64001 -0.64002,0.63999 -0.47999,0.64001 -1.28,1.12 -1.44,0.95999 -1.44001,0.95999 -1.59999,0.63998 -1.44,0.48004 -1.44,0.47999 -1.28,0.47998 -0.95999,0.16003 -0.96001,0.32001 1.75999,0.15997 1.76001,0.32001 1.6,0.47998 1.44,0.48004 1.6,0.63995 1.44001,0.80005 1.43998,0.95996 1.12001,0.79999 0.96,0.96002 0.8,1.12 0.64,1.11999 0.47999,1.12 0.48001,1.28003 0.15999,1.44 0.32001,1.27997 0.16,1.28003 0,1.11999 0,0.96002 0.15999,2.07996 0,2.08002 0,2.08001 0,0.95997 0.16001,0.96002 0,0.79998 0.32,0.79999 0.16001,0.80005 0.31999,0.79999 0.47999,0.79999 0.48002,0.64001 0.47999,0.47998 0.64,0.32001 0.48,0.32001 0.64,0.15997 0.48001,0.16003 0.79998,0.15998 0.32001,0 0.64,0 0.64,0 0.8,0 4.64,0 0,-57.44 -9.28,0 0,-0.79999 47.2,0 0,15.67999 0,-0.79999 0,-0.79999 -0.47999,-1.44 -0.48002,-1.44 -0.79998,-1.28 -0.96001,-1.28 -1.12,-1.28 -1.12001,-1.12002 -1.27999,-1.12 -1.28,-0.95999 -1.28,-0.79999 -1.44,-0.80001 -1.6,-0.63999 L 232.32001,488 231.36,487.84 l -1.12,-0.16001 -1.12001,-0.16 -1.11999,0 -1.28,-0.16 -1.44,0 -8.8,0 0,26.40002 0.96,0 0.95999,0 1.76001,0 1.28,0 1.28,0 1.12,-0.16003 0.96,0 0.80001,-0.15998 0.79998,-0.15997 1.44001,-0.32001 1.12001,-0.48004 1.27999,-0.79999 0.48,-0.47998 0.48,-0.48001 0.64,-0.64001 0.48001,-0.79999 0.47999,-0.79999 0.31999,-0.96002 0.48002,-1.12 0.15998,-0.79998 0,-0.64002 0.16001,-0.79999 0,-0.95999 0.16,-0.96002 0,-0.95999 0,25.75998 0,-0.95996 -0.16,-0.96002 0,-0.96003 -0.16001,-0.79999 0,-0.64001 -0.15998,-0.63995 -0.48002,-1.28003 -0.31999,-0.95996 -0.47999,-0.80005 -0.48001,-0.79999 -0.64,-0.47998 -0.48,-0.64001 -0.48,-0.47999 L 228.96001,516 227.84,515.35998 l -1.44001,-0.32 -0.79998,-0.15998 -0.80001,-0.16003 -0.96,0 -1.12,-0.15997 -1.28,0 -1.28,0 -1.76001,0 -0.95999,0 -0.96,0 0,30.23999 11.52,0 1.28,0 1.28,0 1.28,-0.15998 1.12001,0 1.11999,-0.16003 0.95999,-0.15997 L 236.8,544 l 1.76,-0.64002 1.44,-0.64001 1.28,-0.79999 1.28,-1.11999 1.28,-1.12 1.12001,-1.44 1.11999,-1.59998 0.95999,-1.60003 0.80001,-1.75995 0.48001,-1.92005 0.47999,-1.91998 0.16001,-0.96002 0,-0.95996 -0.16001,17.27997 10.87999,0 0,-57.44 -8.95999,0 0,-0.79999 16.63999,0 29.12002,46.23999 0,-45.44 -9.12002,0 0,-0.79999 39.36001,0 1.60001,0 1.28,0 1.27999,0.16 1.12,0 0.95999,0.16 0.80002,0.16001 0.79999,0.16 0.79999,0 1.28002,0.15998 1.12,0.16 1.11999,0.32001 1.12,0.16 1.28,0.32001 1.6,0.32 1.44001,0.63999 1.75998,0.64001 1.6,0.95999 1.60001,1.12 1.6,1.12 1.60001,1.27999 1.44,1.12 1.28,1.28 1.12,1.28 0.95999,1.44 0.95999,1.60001 0.80002,1.76 0.79999,1.76001 0.64001,1.59998 0.31998,1.76001 0.32001,1.60001 0.16,1.44 0.16,1.6 0,3.03998 0,3.20001 0,3.20002 -0.16,1.59997 -0.32001,1.91999 -0.47998,1.92004 -0.80002,1.91998 -0.95999,1.91998 -1.28,2.08002 -1.28,1.76001 -1.6,1.76001 -1.76001,1.59998 -1.75998,1.59997 -1.92001,1.28003 -1.91999,1.12 -1.92001,0.79998 -2.07999,0.79999 -1.92001,0.48004 -2.07999,0.47999 -1.92001,0.16003 -1.92001,0.15997 -1.75998,0.15998 -1.76001,0 -3.35999,0 -25.44,0 0,-0.79999 8.95999,0 0,-57.44 0,14.40002"
         style="fill:#000000;fill-opacity:1;stroke:#000000;stroke-width:0.5;stroke-linecap:round;stroke-linejoin:round;stroke-miterlimit:10;stroke-dasharray:none;stroke-opacity:1"
         id="path4184"
         inkscape:connector-curvature="0" />
    </g>
    <g
       id="g4198"
       transform="matrix(0.9375,0,0,0.9375,268.20715,58.233606)"
       style="fill:#000000;fill-opacity:1;stroke:#000000;stroke-opacity:1">
      <path
         d="m 0,0 25.76,0 -49.92,0 0,-0.8 9.12,0 0,-57.440002 -9.12,0 0,-0.799999 26.24,0 0,0.799999 -8.8,0 0,57.440002 11.52,0 23.2,-59.36 2.24,0 23.199999,59.36 4.640003,0 4.639999,0 0,-57.440002 -8.960003,0 0,-0.799999 16.640004,0 29.119995,46.240001 0,-45.440002 -9.119995,0 0,-0.799999 39.999988,0 1.60001,0 1.28,0 1.28,0.16 1.11999,0 0.96001,0.16 0.8,0.16 0.8,0.159999 0.79999,0 1.12001,0.16 1.28,0.16 1.12,0.320004 1.11999,0.16 1.28002,0.319999 1.43998,0.32 L 148,-56.32 l 1.60001,0.64 1.75999,0.959999 1.60001,1.120003 1.59999,1.119998 1.6,1.279999 1.44001,1.119999 1.11999,1.280003 1.28,1.279999 0.96001,1.439998 0.95999,1.600002 0.8,1.759999 0.8,1.760002 0.48,1.599998 0.48,1.760003 0.32,1.599998 0.16001,1.439999 0.15998,1.600002 0,3.039999 0,3.200001 0,3.199999 -0.15998,1.6 -0.32001,1.92 -0.48,1.92 -0.8,1.92 -0.96001,1.92 -1.28,2.08 -1.27999,1.76 -1.6,1.76 -1.76,1.6 -1.76,1.6 -1.92,1.28 -1.92,1.12 -1.91999,0.8 -2.08001,0.8 -1.91999,0.48 -2.08001,0.48 -1.91999,0.16 -1.92002,0.16 L 137.28,0 l -1.76,0 -3.36,0 -12.8,0 -12.64,0 0,-0.8 8.8,0 0,-57.440002 -15.2,0 0,60.160002 -1.440003,0 L 63.68,-53.919998 63.68,-0.8 l 9.120003,0 0,0.8 -38.400001,0 0,-0.8 L 44,-0.8 34.880001,-24.16 14.88,-24.16 5.76,-0.8 l 1.28,0 1.12,0 1.12,-0.16 1.12,-0.16 1.92,-0.16 1.76,-0.48 1.44,-0.48 1.439999,-0.64 L 18.24,-3.84 19.52,-4.8 20.639999,-5.92 21.92,-7.36 l 0.959999,-1.6 0.960001,-1.6 0.799999,-1.76 0.640002,-1.92 0.319999,-1.92 0.16,-0.960001 0,-0.959999 0,18.08"
         style="fill:#000000;fill-opacity:1;stroke:#000000;stroke-width:0.5;stroke-linecap:round;stroke-linejoin:round;stroke-miterlimit:10;stroke-dasharray:none;stroke-opacity:1"
         id="path4200"
         inkscape:connector-curvature="0" />
    </g>
    <g
       transform="matrix(0.9375,0,0,0.9375,-91.042852,-453.26636)"
       id="g4178"
       style="fill:#ffffff;fill-opacity:1;stroke:#000000;stroke-opacity:1">
      <path
         d="m 408,495.84 -9.60001,24.80001 19.36002,0 L 408,495.84"
         style="fill:#ffffff;fill-opacity:1;stroke:#000000;stroke-width:0.5;stroke-linecap:round;stroke-linejoin:round;stroke-miterlimit:10;stroke-dasharray:none;stroke-opacity:1"
         id="path4180"
         inkscape:connector-curvature="0" />
    </g>
    <g
       id="g4186"
       transform="matrix(0.9375,0,0,0.9375,66.007153,3.6336156)"
       style="fill:#ffffff;fill-opacity:1;stroke:#000000;stroke-opacity:1">
      <path
         d="m 0,0 -1.44,0 0,26.4 5.44,0 0.96,0 0.96,0 0.8,0 0.64,-0.16 0.64,0 0.64,0 0.96,-0.16 0.8,-0.16 0.64,-0.16 0.48,-0.319999 0.48,-0.16 0.64,-0.480002 L 13.44,24.32 14.08,23.84 14.56,23.200001 15.2,22.24 15.68,21.280001 16,20.16 16.32,19.200001 16.48,18.08 16.48,16.959999 16.639999,16 l 0,-0.8 0,-1.6 0,-0.64 0,-0.96 0,-0.96 L 16.48,9.76 16.32,8.48 16,7.2 15.52,5.76 15.2,5.12 14.72,4.48 14.24,3.84 13.6,3.2 12.8,2.72 12,2.24 11.2,1.76 10.08,1.28 8.96,0.96 7.52,0.64 6.08,0.32 4.32,0.16 2.24,0 1.28,0 0,0"
         style="fill:#ffffff;fill-opacity:1;stroke:#000000;stroke-width:0.5;stroke-linecap:round;stroke-linejoin:round;stroke-miterlimit:10;stroke-dasharray:none;stroke-opacity:1"
         id="path4188"
         inkscape:connector-curvature="0" />
    </g>
    <g
       id="g4190"
       transform="matrix(0.9375,0,0,0.9375,209.10714,3.6336156)"
       style="fill:#ffffff;fill-opacity:1;stroke:#000000;stroke-opacity:1">
      <path
         d="m 0,0 1.28,0 1.92,0 1.92,0.16 4,0.32 1.92,0.16 1.92,0.32 1.76,0.32 1.76,0.48 1.44,0.32 1.280001,0.48 L 20.32,3.04 21.440001,3.52 22.4,4 23.360001,4.64 24.16,5.28 24.959999,6.08 25.76,6.88 26.559999,7.68 27.360001,8.64 28,9.6 l 0.799999,1.12 0.480002,1.12 0.639999,1.12 0.48,1.28 0.479999,1.28 0.320002,1.279999 L 31.68,19.52 31.84,22.08 32,23.360001 32,24.48 l 0,1.12 0.16,1.119999 0,1.760001 0,3.52 L 32,33.919998 31.84,35.84 31.52,38.080002 31.200001,40.32 30.559999,42.560001 29.92,44.799999 28.959999,46.880001 28.32,48 27.84,48.799999 27.200001,49.759998 26.559999,50.560001 25.92,51.200001 25.120001,52 23.68,53.119999 22.4,54.080002 21.120001,54.880001 19.84,55.52 18.719999,56 17.6,56.48 l -1.12,0.319999 -1.12,0.16 -2.08,0.32 -0.96,0 -1.28,0.16 -1.28,0 -0.64,0 -0.8,0 -8.32,0 L 0,0"
         style="fill:#ffffff;fill-opacity:1;stroke:#000000;stroke-width:0.5;stroke-linecap:round;stroke-linejoin:round;stroke-miterlimit:10;stroke-dasharray:none;stroke-opacity:1"
         id="path4192"
         inkscape:connector-curvature="0" />
    </g>
    <g
       id="g4194"
       transform="matrix(0.9375,0,0,0.9375,384.30715,3.6336156)"
       style="fill:#ffffff;fill-opacity:1;stroke:#000000;stroke-opacity:1">
      <path
         d="m 0,0 1.28,0 1.92,0 1.92,0.16 4,0.32 1.92,0.16 1.92,0.32 1.76,0.32 1.76,0.48 1.44,0.32 1.280001,0.48 L 20.32,3.04 21.440001,3.52 22.4,4 23.360001,4.64 24.16,5.28 24.959999,6.08 25.76,6.88 26.559999,7.68 27.360001,8.64 28,9.6 l 0.639999,1.12 0.640002,1.12 0.639999,1.12 0.48,1.28 0.319999,1.28 0.480002,1.279999 L 31.52,19.52 31.84,22.08 32,23.360001 32,24.48 32,25.6 32.16,26.719999 32.16,28.48 32,32 32,33.919998 31.84,35.84 31.52,38.080002 31.200001,40.32 30.559999,42.560001 29.76,44.799999 28.959999,46.880001 28.32,48 27.84,48.799999 27.200001,49.759998 26.559999,50.560001 25.76,51.200001 25.120001,52 23.68,53.119999 22.4,54.080002 20.959999,54.880001 19.84,55.52 18.719999,56 17.6,56.48 l -1.12,0.319999 -1.12,0.16 -2.08,0.32 -1.12,0 -1.12,0.16 -1.28,0 -0.64,0 -0.8,0 -8.32,0 L 0,0"
         style="fill:#ffffff;fill-opacity:1;stroke:#000000;stroke-width:0.5;stroke-linecap:round;stroke-linejoin:round;stroke-miterlimit:10;stroke-dasharray:none;stroke-opacity:1"
         id="path4196"
         inkscape:connector-curvature="0" />
    </g>
  </g>
</svg>
