<?xml version="1.0" encoding="UTF-8" standalone="no"?>
<!-- Generator: Adobe Illustrator 16.0.0, SVG Export Plug-In . SVG Version: 6.00 Build 0)  -->

<svg
   xmlns:dc="http://purl.org/dc/elements/1.1/"
   xmlns:cc="http://creativecommons.org/ns#"
   xmlns:rdf="http://www.w3.org/1999/02/22-rdf-syntax-ns#"
   xmlns:svg="http://www.w3.org/2000/svg"
   xmlns="http://www.w3.org/2000/svg"
   xmlns:sodipodi="http://sodipodi.sourceforge.net/DTD/sodipodi-0.dtd"
   xmlns:inkscape="http://www.inkscape.org/namespaces/inkscape"
   version="1.1"
   id="Layer_1"
   x="0px"
   y="0px"
   width="187.088"
   height="19.438"
   viewBox="0 0 187.088 19.438"
   xml:space="preserve"
   inkscape:version="0.91 r13725"
   sodipodi:docname="press-dailynews.svg"><metadata
     id="metadata3379"><rdf:RDF><cc:Work
         rdf:about=""><dc:format>image/svg+xml</dc:format><dc:type
           rdf:resource="http://purl.org/dc/dcmitype/StillImage" /><dc:title></dc:title></cc:Work></rdf:RDF></metadata><defs
     id="defs3377" /><sodipodi:namedview
     pagecolor="#ffffff"
     bordercolor="#666666"
     borderopacity="1"
     objecttolerance="10"
     gridtolerance="10"
     guidetolerance="10"
     inkscape:pageopacity="0"
     inkscape:pageshadow="2"
     inkscape:window-width="2560"
     inkscape:window-height="1377"
     id="namedview3375"
     showgrid="false"
     inkscape:zoom="3.1334953"
     inkscape:cx="130.90301"
     inkscape:cy="-35.238134"
     inkscape:window-x="-8"
     inkscape:window-y="-8"
     inkscape:window-maximized="1"
     inkscape:current-layer="Layer_1"
     fit-margin-top="0"
     fit-margin-left="0"
     fit-margin-right="0"
     fit-margin-bottom="0" /><path
     inkscape:connector-curvature="0"
     id="path3341"
     d="M 8.4299998,0.436 0,0.436 0,1.163 1.599,1.4529999 c 0.472,0.327 0.727,0.8 0.727,1.526 l 0,13.5160001 c 0,1.127 -0.799,1.744 -2.326,1.744 l 0,0.727 8.6839998,0 L 10.246,18.857 c 2.798,-0.436 4.905,-1.525 6.358,-3.27 1.344,-1.635 1.999,-3.633 1.999,-6.141 0,-2.216 -0.618,-4.106 -1.89,-5.6320001 C 15.26,1.9609999 13.08,0.871 10.246,0.508 l -1.8160002,-0.072 0,0 z m -1.526,1.3799999 c 0.254,-0.29 0.727,-0.399 1.526,-0.399 l 1.8170002,0.291 c 1.344,0.545 2.289,1.817 2.907,3.7070001 0.436,1.271 0.618,2.652 0.618,4.287 0,4.471 -1.163,7.158 -3.524,7.994 l -1.9260002,0.291 c -0.69,0 -1.09,-0.109 -1.344,-0.363 l -0.254,-1.199 0,-13.7370001 0.18,-0.872 0,0 z"
     style="clip-rule:evenodd;fill-rule:evenodd" /><path
     inkscape:connector-curvature="0"
     id="path3343"
     d="m 26.162,5.813 2.798,6.721 -5.341,0 2.543,-6.721 0,0 z m 1.271,-5.741 -6.031,15.007 c -0.436,1.162 -0.799,1.889 -1.09,2.324 -0.363,0.473 -0.909,0.764 -1.635,0.836 l 0,0.727 5.559,0 0,-0.727 C 22.71,18.167 21.983,17.803 21.983,17.077 l 1.235,-3.561 6.177,0 c 0.763,1.998 1.199,3.27 1.199,3.705 0,0.4 -0.109,0.654 -0.363,0.836 l -1.816,0.182 0,0.727 8.902,0 0,-0.727 c -0.654,0.072 -1.163,-0.254 -1.526,-0.799 l -1.454,-3.016 -6.104,-14.353 -0.8,0 0,0.001 z"
     style="clip-rule:evenodd;fill-rule:evenodd" /><path
     inkscape:connector-curvature="0"
     id="path3345"
     d="m 38.77,0.436 9.556,0 0,0.727 -1.744,0.2899999 c -0.545,0.254 -0.835,0.8 -0.835,1.635 l 0,13.2260001 c 0,0.764 0.218,1.309 0.727,1.635 l 1.853,0.291 0,0.727 -9.556,0 0,-0.727 1.817,-0.363 c 0.473,-0.291 0.727,-0.799 0.727,-1.562 l 0,-13.2270001 c 0,-0.763 -0.254,-1.308 -0.799,-1.635 L 38.772,1.163 l 0,-0.727 -0.002,0 z"
     style="clip-rule:evenodd;fill-rule:evenodd" /><path
     inkscape:connector-curvature="0"
     id="path3347"
     d="m 66.275001,12.716 -1.09,6.25 -15.806001,0 0,-0.727 1.744,-0.436 c 0.436,-0.219 0.618,-0.727 0.618,-1.49 l 0,-13.2250001 c 0,-0.835 -0.254,-1.381 -0.727,-1.635 L 49.379,1.163 l 0,-0.727 9.556,0 0,0.727 -2.071,0.3629999 c -0.472,0.29 -0.727,1.017 -0.727,2.107 l 0,12.9720001 c 0,0.617 0.182,1.018 0.618,1.199 l 1.89,0.326 c 1.853,0 3.379,-0.508 4.542,-1.525 0.763001,-0.799 1.562001,-2.07 2.362001,-3.889 l 0.726,0 0,0 z"
     style="clip-rule:evenodd;fill-rule:evenodd" /><path
     inkscape:connector-curvature="0"
     id="path3349"
     d="m 77.757001,0.436 6.976002,0 0,0.654 -1.381,0.146 c -0.727,0.1819999 -1.235,0.5449999 -1.453,0.9449999 L 76.666001,10.683 l 0,5.086 c 0,1.09 0.182,1.744 0.509,1.998 0.291,0.219 0.945002,0.4 1.999002,0.473 l 0,0.727 -9.520002,0 0,-0.727 1.998,-0.473 c 0.436,-0.326 0.618,-0.98 0.618,-1.998 l 0,-3.996 -5.087,-9.1570001 c -0.508,-0.909 -1.235,-1.3809999 -2.18,-1.4529999 l 0,-0.727 9.192,0 0,0.727 -1.816,0.108 c -0.291,0.1459999 -0.437,0.3629999 -0.437,0.7269999 l 0.69,1.526 3.307,6.3580001 3.597002,-6.1040001 c 0.291,-0.69 0.472,-1.09 0.472,-1.417 0,-0.473 -0.182,-0.835 -0.617,-1.0169999 l -1.635002,-0.182 0,-0.726 0.001,0 z"
     style="clip-rule:evenodd;fill-rule:evenodd" /><path
     inkscape:connector-curvature="0"
     id="path3351"
     d="m 111.621,4.614 0,10.901 c 0,1.018 0.182,1.707 0.545,2.07 0.363,0.363 1.018,0.582 2.07,0.654 l 0,0.727 -6.25,0 0,-0.727 1.891,-0.473 c 0.363,-0.254 0.545,-0.799 0.545,-1.707 l 0,-12.9710001 c -0.617,-1.017 -1.271,-1.635 -1.963,-1.8529999 l -1.018,-0.072 0,-0.727 6.469,0 9.447,11.7 0.072,0 0,-8.2490001 c 0,-0.908 -0.109,-1.562 -0.436,-1.926 C 122.628,1.4519999 121.901,1.234 120.886,1.162 l 0,-0.727 5.885,0 0,0.727 c -0.908,0.072 -1.525,0.2899999 -1.816,0.6529999 -0.182,0.327 -0.326,0.8 -0.326,1.526 l 0,16.0960001 -0.727,0 -12.172,-14.825 -0.109,0 0,0.002 z"
     style="clip-rule:evenodd;fill-rule:evenodd" /><path
     inkscape:connector-curvature="0"
     id="path3353"
     d="m 139.779,4.905 0,9.266 -0.654,0 c -0.182,-1.637 -0.689,-2.727 -1.416,-3.381 -0.582,-0.617 -1.635,-0.908 -3.088,-0.908 l 0,6.723 c 0,0.545 0.182,0.98 0.508,1.162 l 1.816,0.363 c 1.562,0 2.908,-0.326 3.998,-0.871 1.307,-0.764 2.396,-2.107 3.197,-3.998 l 0.799,0 -1.09,5.705 -16.061,0 0,-0.727 1.816,-0.436 c 0.438,-0.219 0.619,-0.727 0.619,-1.49 l 0,-13.2250001 c 0,-0.835 -0.256,-1.381 -0.801,-1.635 L 127.787,1.163 l 0,-0.727 15.879,0 0,5.523 -0.799,0 c -0.291,-1.8900001 -0.91,-3.0890001 -1.926,-3.7790001 -0.908,-0.545 -2.326,-0.763 -4.324,-0.763 l -1.562,0.218 c -0.291,0.146 -0.436,0.509 -0.436,1.054 l 0,6.3590001 c 1.416,0 2.434,-0.254 3.051,-0.799 0.727,-0.618 1.199,-1.708 1.453,-3.343 l 0.656,0 0,-10e-4 z"
     style="clip-rule:evenodd;fill-rule:evenodd" /><path
     inkscape:connector-curvature="0"
     id="path3355"
     d="m 146.139,0.436 8.066,0 0,0.727 -1.236,0.182 c -0.363,0.1819999 -0.545,0.4719999 -0.545,0.9079999 l 0.254,0.835 3.162,9.9560001 0.109,0 3.197,-8.357 -0.945,-2.6160001 -0.689,-0.654 -1.271,-0.2539999 0,-0.727 8.502,0 0,0.727 -1.418,0.182 c -0.363,0.1819999 -0.545,0.4359999 -0.545,0.8349999 l 0.363,1.453 2.98,9.1570001 0.072,0 2.943,-9.2660001 0.254,-1.163 c 0,-0.473 -0.182,-0.835 -0.617,-1.0169999 l -1.271,-0.182 0,-0.727 4.977,0 0,0.727 c -0.908,0.072 -1.562,0.6169999 -1.889,1.7069999 L 165.106,19.328 l -0.727,0 -4.615,-12.826 -0.182,0 -4.979,12.826 -0.834,0 -5.742,-16.4590001 -0.689,-1.271 C 147.156,1.344 146.756,1.235 146.139,1.162 l 0,-0.726 0,0 z"
     style="clip-rule:evenodd;fill-rule:evenodd" /><path
     inkscape:connector-curvature="0"
     id="path3357"
     d="M 175.279,2.0709999 C 176.297,0.69 178.004,0 180.22,0 l 2.688,0.509 1.635,0.399 c 0.4,0 0.729,-0.291 0.836,-0.908 l 0.836,0 0,5.959 -0.762,0 C 185.125,4.687 184.58,3.6329999 183.816,2.7249999 182.763,1.4529999 181.564,0.872 180.039,0.872 c -0.727,0 -1.381,0.218 -1.926,0.6539999 -0.654,0.472 -0.982,1.162 -0.982,1.998 0,0.7270001 0.184,1.2710001 0.619,1.7080001 0.363,0.399 1.162,0.908 2.289,1.489 l 3.996,1.999 c 0.689,0.327 1.344,0.799 1.889,1.525 0.801,1.018 1.164,2.182 1.164,3.525 0,1.453 -0.51,2.725 -1.527,3.742 -1.271,1.271 -3.016,1.926 -5.34,1.926 l -2.943,-0.4 -1.707,-0.508 c -0.438,0 -0.654,0.326 -0.801,0.908 l -0.762,0 0,-6.723 0.762,0 c 0.328,1.637 0.873,2.908 1.709,3.961 1.016,1.271 2.289,1.854 3.887,1.854 1.381,0 2.361,-0.473 2.943,-1.381 l 0.508,-1.635 c 0,-0.799 -0.326,-1.527 -0.908,-2.072 -0.363,-0.363 -1.09,-0.762 -2.18,-1.307 l -1.816,-0.873 c -1.998,-0.943 -3.416,-2.034 -4.143,-3.27 -0.398,-0.654 -0.58,-1.562 -0.58,-2.579 -0.001,-1.271 0.363,-2.3620001 1.089,-3.3420001 l 0,0 z"
     style="clip-rule:evenodd;fill-rule:evenodd" /><path
     inkscape:connector-curvature="0"
     id="path3359"
     d="m 97.705005,6.068 -5.632002,0 c -0.436,0 -0.727,0.109 -0.981,0.436 -0.291,0.218 -0.436,0.545 -0.436,0.908 l 0,5.632 c 0,0.398 0.145,0.727 0.436,0.943 0.254,0.328 0.545,0.438 0.981,0.438 l 5.632002,0 c 0.363,0 0.654,-0.109 0.908,-0.438 0.291,-0.217 0.398,-0.545 0.398,-0.943 l 0,-5.632 c 0,-0.363 -0.107,-0.69 -0.398,-0.908 -0.254,-0.328 -0.545,-0.436 -0.908,-0.436 l 0,0 z m 0,7.085 -5.632002,0 -0.073,-0.109 0,-5.632 0.073,-0.146 5.632002,0 0.107,0.146 0,5.632 -0.107,0.109 0,0 z"
     style="clip-rule:evenodd;fill-rule:evenodd" /><path
     inkscape:connector-curvature="0"
     id="path3361"
     d="m 99.340005,4.251 -8.902002,0 c -0.436,0 -0.872,0.109 -1.236,0.436 -0.29,0.364 -0.472,0.763 -0.472,1.272 l 0,8.83 c 0,0.473 0.182,0.908 0.472,1.199 0.364,0.363 0.8,0.545 1.236,0.545 l 8.902002,0 c 0.473,0 0.907995,-0.182 1.198995,-0.545 0.291,-0.291 0.473,-0.727 0.473,-1.199 l 0,-8.83 c 0,-0.509 -0.182,-0.908 -0.473,-1.272 l -1.198995,-0.436 0,0 z m 0,11.01 -8.902002,0 c -0.327,0 -0.509,-0.182 -0.509,-0.473 l 0,-8.83 c 0,-0.363 0.182,-0.545 0.509,-0.545 l 8.902002,0 c 0.291,0 0.473,0.182 0.473,0.545 l 0,8.83 c -0.001,0.291 -0.182,0.473 -0.473,0.473 l 0,0 z"
     style="clip-rule:evenodd;fill-rule:evenodd" /><path
     inkscape:connector-curvature="0"
     id="path3363"
     d="m 101.557,6.504 -1.381,0 0,0.908 c 0.459,0 0.924,-0.061 1.381,0 0.109,0.015 0.254,0.106 0.254,0.218 l 0,5.16 c 0,0.104 -0.15,0.182 -0.254,0.182 l -1.381,0 -0.072,0.834 c 0.484,0 0.969,0 1.453,0 0.326,0 0.592,-0.057 0.799,-0.289 0.18,-0.203 0.363,-0.457 0.363,-0.727 l 0,-5.16 c 0,-0.282 -0.16,-0.567 -0.363,-0.763 -0.211,-0.204 -0.508,-0.363 -0.799,-0.363 l 0,0 z"
     style="clip-rule:evenodd;fill-rule:evenodd" /><path
     inkscape:connector-curvature="0"
     id="path3365"
     d="m 88.476003,18.675 12.861997,0 -0.508,-1.162 0,-0.109 c 0,-0.363 -0.219,-0.545 -0.654,-0.545 -0.437995,0 -0.618995,0.182 -0.618995,0.545 l 0,0.109 -9.301002,0 0,-0.109 c 0,-0.502 -0.298,-0.695 -0.574,-0.688 -0.354,0.008 -0.712,0.35 -0.771,0.797 l -0.435,1.162 0,0 z"
     style="clip-rule:evenodd;fill-rule:evenodd" /><path
     inkscape:connector-curvature="0"
     id="path3367"
     d="m 89.384003,10.138 c -0.727,0 -1.308,0.217 -1.817,0.762 -0.472,0.51 -0.727,1.09 -0.727,1.816 l 0,3.998 0.69,0 0,-3.998 c 0,-0.545 0.182,-1.016 0.545,-1.307 0.363,-0.438 0.763,-0.619 1.308,-0.619 l 3.888,0 0,-0.652 -3.887,0 0,0 z"
     style="clip-rule:evenodd;fill-rule:evenodd" /><path
     inkscape:connector-curvature="0"
     id="path3369"
     d="m 87.749003,16.968 c 0,0.182 -0.182,0.291 -0.581,0.291 -0.437,0 -0.618,-0.109 -0.618,-0.291 0,-0.182 0.182,-0.291 0.618,-0.291 0.399,0 0.581,0.109 0.581,0.291 l 0,0 z"
     style="clip-rule:evenodd;fill-rule:evenodd" /><polygon
     id="polygon3371"
     points="90.292,105.371 89.674,105.371 89.747,104.1 90.183,104.1 90.292,105.371 "
     style="clip-rule:evenodd;fill-rule:evenodd"
     transform="translate(-2.834,-86.659007)" /><path
     inkscape:connector-curvature="0"
     id="path3373"
     d="m 94.873003,8.426 c 1.16,0 2.105002,0.945 2.105002,2.104 0,1.16 -0.945002,2.105 -2.105002,2.105 -1.159,0 -2.104,-0.945 -2.104,-2.105 0,-1.159 0.945,-2.104 2.104,-2.104 l 0,0 z m 0,1.108 c 0.551,0 0.998,0.4469997 0.998,0.996 0,0.549 -0.447,0.998 -0.998,0.998 -0.549,0 -0.996,-0.449 -0.996,-0.998 0,-0.5490003 0.447,-0.996 0.996,-0.996 l 0,0 z"
     style="clip-rule:evenodd;fill-rule:evenodd" /></svg>